font.ufo
<glyph name="quotedbl" format="1">
  <advance width="408"/>
  <unicode hex="0022"/>
  <outline>
    <contour>
      <point x="167" y="605" type="line"/>
      <point x="175" y="816" type="line"/>
      <point x="59" y="816" type="line"/>
      <point x="68" y="605" type="line"/>
    </contour>
    <contour>
      <point x="340" y="605" type="line"/>
      <point x="348" y="816" type="line"/>
      <point x="233" y="816" type="line"/>
      <point x="241" y="605" type="line"/>
    </contour>
  </outline>
</glyph>
<glyph name="quotesingle" format="1">
  <advance width="234"/>
  <unicode hex="0027"/>
  <outline>
    <contour>
      <point x="167" y="605" type="line"/>
      <point x="175" y="816" type="line"/>
      <point x="59" y="816" type="line"/>
      <point x="68" y="605" type="line"/>
    </contour>
  </outline>
</glyph>
<glyph name="asterisk" format="1">
  <advance width="529"/>
  <unicode hex="002A"/>
  <outline>
    <contour>
      <point x="300" y="538" type="line"/>
      <point x="306" y="749" type="line"/>
      <point x="223" y="749" type="line"/>
      <point x="229" y="538" type="line"/>
    </contour>
    <contour>
      <point x="276" y="504" type="line"/>
      <point x="477" y="569" type="line"/>
      <point x="449" y="647" type="line"/>
      <point x="252" y="571" type="line"/>
    </contour>
    <contour>
      <point x="237" y="515" type="line"/>
      <point x="366" y="347" type="line"/>
      <point x="430" y="401" type="line"/>
      <point x="292" y="560" type="line"/>
    </contour>
    <contour>
      <point x="237" y="561" type="line"/>
      <point x="100" y="401" type="line"/>
      <point x="163" y="348" type="line"/>
      <point x="292" y="516" type="line"/>
    </contour>
    <contour>
      <point x="277" y="571" type="line"/>
      <point x="81" y="647" type="line"/>
      <point x="52" y="569" type="line"/>
      <point x="253" y="504" type="line"/>
    </contour>
  </outline>
</glyph>
<glyph name="comma" format="1">
  <advance width="259"/>
  <unicode hex="002C"/>
  <outline>
    <contour>
      <point x="55" y="-115" type="line"/>
      <point x="135" y="-109"/>
      <point x="188" y="-49"/>
      <point x="188" y="43" type="curve"/>
      <point x="188" y="115"/>
      <point x="161" y="154"/>
      <point x="121" y="154" type="curve"/>
      <point x="85" y="154"/>
      <point x="61" y="134"/>
      <point x="61" y="95" type="curve"/>
      <point x="61" y="64"/>
      <point x="79" y="40"/>
      <point x="110" y="39" type="curve"/>
      <point x="110" y="13"/>
      <point x="106" y="-37"/>
      <point x="51" y="-52" type="curve"/>
    </contour>
  </outline>
</glyph>
<glyph name="hyphen" format="1">
  <advance width="351"/>
  <unicode hex="002D"/>
  <outline>
    <contour>
      <point x="68" y="232" type="curve"/>
      <point x="140" y="232"/>
      <point x="212" y="232"/>
      <point x="283" y="232" type="curve"/>
      <point x="283" y="329"/>
      <point x="283" y="232"/>
      <point x="283" y="329" type="curve"/>
      <point x="212" y="329"/>
      <point x="140" y="329"/>
      <point x="68" y="329" type="curve"/>
      <point x="68" y="232"/>
      <point x="68" y="329"/>
    </contour>
  </outline>
</glyph>
<glyph name="slash" format="1">
  <advance width="482"/>
  <unicode hex="002F"/>
  <outline>
    <contour>
      <point x="141" y="-26" type="curve"/>
      <point x="245" y="248"/>
      <point x="350" y="523"/>
      <point x="455" y="797" type="curve"/>
      <point x="341" y="797"/>
      <point x="455" y="797"/>
      <point x="341" y="797" type="curve"/>
      <point x="236" y="523"/>
      <point x="131" y="248"/>
      <point x="27" y="-26" type="curve"/>
      <point x="141" y="-26"/>
      <point x="27" y="-26"/>
    </contour>
  </outline>
</glyph>
<glyph name="five" format="1">
  <advance width="459"/>
  <unicode hex="0035"/>
  <outline>
    <contour>
      <point x="62" y="722" type="curve"/>
      <point x="62" y="624"/>
      <point x="62" y="517"/>
      <point x="62" y="385" type="curve"/>
      <point x="171" y="350"/>
      <point x="62" y="385"/>
      <point x="171" y="350" type="curve"/>
      <point x="171" y="442"/>
      <point x="171" y="542"/>
      <point x="171" y="633" type="curve"/>
      <point x="62" y="722"/>
      <point x="171" y="633"/>
    </contour>
    <contour>
      <point x="171" y="350" type="curve"/>
      <point x="181" y="366"/>
      <point x="198" y="379"/>
      <point x="221" y="379" type="curve"/>
      <point x="281" y="379"/>
      <point x="297" y="315"/>
      <point x="297" y="239" type="curve"/>
      <point x="297" y="161"/>
      <point x="267" y="88"/>
      <point x="199" y="88" type="curve"/>
      <point x="160" y="88"/>
      <point x="135" y="100"/>
      <point x="103" y="122" type="curve"/>
      <point x="45" y="43"/>
      <point x="103" y="122"/>
      <point x="45" y="43" type="curve"/>
      <point x="92" y="11"/>
      <point x="136" y="-5"/>
      <point x="193" y="-5" type="curve"/>
      <point x="325" y="-5"/>
      <point x="411" y="100"/>
      <point x="411" y="238" type="curve"/>
      <point x="411" y="370"/>
      <point x="353" y="474"/>
      <point x="237" y="474" type="curve"/>
      <point x="177" y="474"/>
      <point x="120" y="456"/>
      <point x="62" y="385" type="curve"/>
      <point x="171" y="350"/>
      <point x="62" y="385"/>
    </contour>
    <contour>
      <point x="387" y="722" type="curve"/>
      <point x="287" y="722"/>
      <point x="161" y="722"/>
      <point x="62" y="722" type="curve"/>
      <point x="171" y="633"/>
      <point x="62" y="722"/>
      <point x="171" y="633" type="curve"/>
      <point x="234" y="633"/>
      <point x="323" y="633"/>
      <point x="387" y="633" type="curve"/>
      <point x="387" y="722"/>
      <point x="387" y="633"/>
    </contour>
  </outline>
</glyph>
<glyph name="six" format="1">
  <advance width="514"/>
  <unicode hex="0036"/>
  <outline>
    <contour>
      <point x="143" y="214" type="curve"/>
      <point x="159" y="285"/>
      <point x="195" y="347"/>
      <point x="263" y="347" type="curve"/>
      <point x="329" y="347"/>
      <point x="350" y="293"/>
      <point x="350" y="220" type="curve"/>
      <point x="350" y="153"/>
      <point x="328" y="95"/>
      <point x="266" y="95" type="curve"/>
      <point x="188" y="95"/>
      <point x="159" y="165"/>
      <point x="159" y="256" type="curve"/>
      <point x="159" y="450"/>
      <point x="253" y="578"/>
      <point x="441" y="647" type="curve"/>
      <point x="410" y="729"/>
      <point x="441" y="647"/>
      <point x="410" y="729" type="curve"/>
      <point x="180" y="649"/>
      <point x="50" y="497"/>
      <point x="50" y="251" type="curve"/>
      <point x="50" y="98"/>
      <point x="121" y="-10"/>
      <point x="264" y="-10" type="curve"/>
      <point x="395" y="-10"/>
      <point x="464" y="84"/>
      <point x="464" y="220" type="curve"/>
      <point x="464" y="353"/>
      <point x="401" y="441"/>
      <point x="283" y="441" type="curve"/>
      <point x="161" y="441"/>
      <point x="96" y="325"/>
      <point x="88" y="238" type="curve"/>
      <point x="143" y="214"/>
      <point x="89" y="238"/>
    </contour>
  </outline>
</glyph>
<glyph name="seven" format="1">
  <advance width="456"/>
  <unicode hex="0037"/>
  <outline>
    <contour>
      <point x="147" y="546" type="line"/>
      <point x="147" y="639" type="line"/>
      <point x="57" y="639" type="line"/>
      <point x="57" y="546" type="line"/>
    </contour>
    <contour>
      <point x="57" y="633" type="line"/>
      <point x="437" y="633" type="line"/>
      <point x="437" y="722" type="line"/>
      <point x="57" y="722" type="line"/>
    </contour>
    <contour>
      <point x="371" y="722" type="line"/>
      <point x="55" y="0" type="line"/>
      <point x="169" y="0" type="line"/>
      <point x="437" y="633" type="line"/>
    </contour>
  </outline>
</glyph>
<glyph name="colon" format="1">
  <advance width="257"/>
  <unicode hex="003A"/>
  <outline>
    <contour>
      <point x="189" y="373" type="curve"/>
      <point x="189" y="412"/>
      <point x="163" y="431"/>
      <point x="127" y="431" type="curve"/>
      <point x="91" y="431"/>
      <point x="68" y="410"/>
      <point x="68" y="373" type="curve"/>
      <point x="189" y="373"/>
      <point x="68" y="373"/>
      <point x="189" y="373" type="curve"/>
      <point x="189" y="333"/>
      <point x="164" y="315"/>
      <point x="127" y="315" type="curve"/>
      <point x="91" y="315"/>
      <point x="68" y="334"/>
      <point x="68" y="373" type="curve"/>
      <point x="189" y="373"/>
      <point x="68" y="373"/>
    </contour>
    <contour>
      <point x="189" y="53" type="curve"/>
      <point x="189" y="92"/>
      <point x="163" y="112"/>
      <point x="127" y="112" type="curve"/>
      <point x="91" y="112"/>
      <point x="68" y="90"/>
      <point x="68" y="53" type="curve"/>
      <point x="189" y="53"/>
      <point x="68" y="53"/>
      <point x="189" y="53" type="curve"/>
      <point x="189" y="13"/>
      <point x="164" y="-5"/>
      <point x="127" y="-5" type="curve"/>
      <point x="91" y="-5"/>
      <point x="68" y="15"/>
      <point x="68" y="53" type="curve"/>
      <point x="189" y="53"/>
      <point x="68" y="53"/>
    </contour>
  </outline>
</glyph>
<glyph name="less" format="1">
  <advance width="550"/>
  <unicode hex="003C"/>
  <outline>
    <contour>
      <point x="484" y="619" type="curve"/>
      <point x="335" y="529"/>
      <point x="185" y="439"/>
      <point x="36" y="349" type="curve"/>
      <point x="36" y="251"/>
      <point x="36" y="349"/>
      <point x="36" y="251" type="curve"/>
      <point x="185" y="341"/>
      <point x="335" y="431"/>
      <point x="484" y="521" type="curve"/>
      <point x="484" y="619"/>
      <point x="484" y="521"/>
    </contour>
    <contour>
      <point x="492" y="85" type="curve"/>
      <point x="340" y="173"/>
      <point x="187" y="261"/>
      <point x="36" y="349" type="curve"/>
      <point x="36" y="251"/>
      <point x="36" y="349"/>
      <point x="36" y="251" type="curve"/>
      <point x="187" y="163"/>
      <point x="340" y="75"/>
      <point x="492" y="-13" type="curve"/>
      <point x="492" y="85"/>
      <point x="492" y="-13"/>
    </contour>
  </outline>
</glyph>
<glyph name="C" format="1">
  <advance width="587"/>
  <unicode hex="0043"/>
  <outline>
    <contour>
      <point x="327" y="791" type="move" name="top"/>
    </contour>
    <contour>
      <point x="352" y="3" type="move" name="bottom"/>
    </contour>
    <contour>
      <point x="440" y="654" type="curve"/>
      <point x="440" y="534"/>
      <point x="440" y="654"/>
      <point x="440" y="534" type="curve"/>
      <point x="530" y="534"/>
      <point x="440" y="534"/>
      <point x="530" y="534" type="curve"/>
      <point x="530" y="654"/>
      <point x="530" y="534"/>
      <point x="530" y="654" type="curve"/>
      <point x="440" y="654"/>
      <point x="530" y="654"/>
    </contour>
    <contour>
      <point x="530" y="654" type="curve"/>
      <point x="476" y="696"/>
      <point x="410" y="727"/>
      <point x="334" y="727" type="curve"/>
      <point x="135" y="727"/>
      <point x="52" y="568"/>
      <point x="52" y="345" type="curve"/>
      <point x="52" y="141"/>
      <point x="133" y="-5"/>
      <point x="320" y="-5" type="curve"/>
      <point x="418" y="-5"/>
      <point x="483" y="30"/>
      <point x="543" y="98" type="curve"/>
      <point x="476" y="164"/>
      <point x="542" y="98"/>
      <point x="476" y="164" type="curve"/>
      <point x="431" y="118"/>
      <point x="391" y="88"/>
      <point x="325" y="88" type="curve"/>
      <point x="199" y="88"/>
      <point x="166" y="204"/>
      <point x="166" y="349" type="curve"/>
      <point x="166" y="507"/>
      <point x="197" y="634"/>
      <point x="330" y="634" type="curve"/>
      <point x="383" y="634"/>
      <point x="430" y="614"/>
      <point x="468" y="584" type="curve"/>
      <point x="530" y="654"/>
      <point x="468" y="584"/>
    </contour>
  </outline>
</glyph>
<glyph name="D" format="1">
  <advance width="668"/>
  <unicode hex="0044"/>
  <outline>
    <contour>
      <point x="300" y="791" type="move" name="top"/>
    </contour>
    <contour>
      <point x="189" y="89" type="curve"/>
      <point x="53" y="89"/>
      <point x="193" y="89"/>
      <point x="58" y="89" type="curve"/>
      <point x="58" y="0"/>
      <point x="58" y="89"/>
      <point x="58" y="0" type="curve"/>
      <point x="103" y="0"/>
      <point x="144" y="0"/>
      <point x="189" y="0" type="curve"/>
      <point x="189" y="89"/>
      <point x="189" y="0"/>
    </contour>
    <contour>
      <point x="189" y="722" type="curve"/>
      <point x="144" y="722"/>
      <point x="103" y="722"/>
      <point x="58" y="722" type="curve"/>
      <point x="58" y="633"/>
      <point x="58" y="722"/>
      <point x="58" y="633" type="curve"/>
      <point x="193" y="633"/>
      <point x="53" y="633"/>
      <point x="189" y="633" type="curve"/>
      <point x="189" y="722"/>
      <point x="189" y="633"/>
    </contour>
    <contour>
      <point x="130" y="722" type="curve"/>
      <point x="130" y="481"/>
      <point x="130" y="241"/>
      <point x="130" y="0" type="curve"/>
      <point x="244" y="0"/>
      <point x="130" y="0"/>
      <point x="244" y="0" type="curve"/>
      <point x="244" y="241"/>
      <point x="244" y="481"/>
      <point x="244" y="722" type="curve"/>
      <point x="130" y="722"/>
      <point x="244" y="722"/>
    </contour>
    <contour>
      <point x="189" y="0" type="curve"/>
      <point x="236" y="0"/>
      <point x="279" y="0"/>
      <point x="327" y="0" type="curve"/>
      <point x="529" y="0"/>
      <point x="617" y="139"/>
      <point x="617" y="354" type="curve"/>
      <point x="617" y="577"/>
      <point x="531" y="722"/>
      <point x="323" y="722" type="curve"/>
      <point x="278" y="722"/>
      <point x="235" y="722"/>
      <point x="189" y="722" type="curve"/>
      <point x="189" y="637"/>
      <point x="189" y="719"/>
      <point x="189" y="633" type="curve"/>
      <point x="233" y="633"/>
      <point x="274" y="633"/>
      <point x="318" y="633" type="curve"/>
      <point x="464" y="633"/>
      <point x="503" y="515"/>
      <point x="503" y="353" type="curve"/>
      <point x="503" y="201"/>
      <point x="469" y="89"/>
      <point x="337" y="89" type="curve"/>
      <point x="286" y="89"/>
      <point x="240" y="89"/>
      <point x="189" y="89" type="curve"/>
      <point x="189" y="3"/>
      <point x="189" y="85"/>
    </contour>
  </outline>
</glyph>
<glyph name="G" format="1">
  <advance width="643"/>
  <unicode hex="0047"/>
  <outline>
    <contour>
      <point x="338" y="791" type="move" name="top"/>
    </contour>
    <contour>
      <point x="379" y="-20" type="move" name="bottom"/>
    </contour>
    <contour>
      <point x="480" y="644" type="curve"/>
      <point x="480" y="509"/>
      <point x="480" y="647"/>
      <point x="480" y="512" type="curve"/>
      <point x="570" y="512"/>
      <point x="480" y="512"/>
      <point x="570" y="512" type="curve"/>
      <point x="570" y="647"/>
      <point x="570" y="509"/>
      <point x="570" y="644" type="curve"/>
      <point x="480" y="644"/>
      <point x="570" y="644"/>
    </contour>
    <contour>
      <point x="552" y="358" type="curve"/>
      <point x="498" y="358"/>
      <point x="444" y="358"/>
      <point x="390" y="358" type="curve"/>
      <point x="390" y="269"/>
      <point x="390" y="358"/>
      <point x="390" y="269" type="curve"/>
      <point x="444" y="269"/>
      <point x="498" y="269"/>
      <point x="552" y="269" type="curve"/>
      <point x="552" y="358"/>
      <point x="552" y="269"/>
    </contour>
    <contour>
      <point x="582" y="79" type="curve"/>
      <point x="582" y="172"/>
      <point x="582" y="264"/>
      <point x="582" y="358" type="curve"/>
      <point x="479" y="358"/>
      <point x="582" y="358"/>
      <point x="479" y="358" type="curve"/>
      <point x="479" y="264"/>
      <point x="479" y="172"/>
      <point x="479" y="79" type="curve"/>
      <point x="582" y="79"/>
      <point x="479" y="79"/>
    </contour>
    <contour>
      <point x="570" y="644" type="curve"/>
      <point x="500" y="701"/>
      <point x="431" y="727"/>
      <point x="342" y="727" type="curve"/>
      <point x="142" y="727"/>
      <point x="51" y="578"/>
      <point x="51" y="361" type="curve"/>
      <point x="51" y="143"/>
      <point x="148" y="-5"/>
      <point x="350" y="-5" type="curve"/>
      <point x="445" y="-5"/>
      <point x="505" y="24"/>
      <point x="582" y="79" type="curve"/>
      <point x="525" y="146"/>
      <point x="582" y="79"/>
      <point x="525" y="146" type="curve"/>
      <point x="471" y="107"/>
      <point x="420" y="89"/>
      <point x="350" y="89" type="curve"/>
      <point x="209" y="89"/>
      <point x="165" y="210"/>
      <point x="165" y="370" type="curve"/>
      <point x="165" y="519"/>
      <point x="210" y="634"/>
      <point x="342" y="634" type="curve"/>
      <point x="409" y="634"/>
      <point x="460" y="611"/>
      <point x="513" y="569" type="curve"/>
      <point x="570" y="644"/>
      <point x="513" y="569"/>
    </contour>
  </outline>
</glyph>
<glyph name="I" format="1">
  <advance width="340"/>
  <unicode hex="0049"/>
  <outline>
    <contour>
      <point x="172" y="791" type="move" name="top"/>
    </contour>
    <contour>
      <point x="218" y="4" type="move" name="bottom"/>
    </contour>
    <contour>
      <point x="171" y="722" type="curve"/>
      <point x="125" y="722"/>
      <point x="85" y="722"/>
      <point x="39" y="722" type="curve"/>
      <point x="39" y="633"/>
      <point x="39" y="722"/>
      <point x="39" y="633" type="curve"/>
      <point x="176" y="633"/>
      <point x="34" y="633"/>
      <point x="171" y="633" type="curve"/>
      <point x="171" y="722"/>
      <point x="171" y="633"/>
    </contour>
    <contour>
      <point x="171" y="633" type="curve"/>
      <point x="307" y="633"/>
      <point x="166" y="633"/>
      <point x="302" y="633" type="curve"/>
      <point x="302" y="722"/>
      <point x="302" y="633"/>
      <point x="302" y="722" type="curve"/>
      <point x="256" y="722"/>
      <point x="216" y="722"/>
      <point x="171" y="722" type="curve"/>
      <point x="171" y="633"/>
      <point x="171" y="722"/>
    </contour>
    <contour>
      <point x="171" y="0" type="curve"/>
      <point x="216" y="0"/>
      <point x="256" y="0"/>
      <point x="302" y="0" type="curve"/>
      <point x="302" y="89"/>
      <point x="302" y="0"/>
      <point x="302" y="89" type="curve"/>
      <point x="166" y="89"/>
      <point x="307" y="89"/>
      <point x="171" y="89" type="curve"/>
      <point x="171" y="0"/>
      <point x="171" y="89"/>
    </contour>
    <contour>
      <point x="171" y="89" type="curve"/>
      <point x="34" y="89"/>
      <point x="176" y="89"/>
      <point x="39" y="89" type="curve"/>
      <point x="39" y="0"/>
      <point x="39" y="89"/>
      <point x="39" y="0" type="curve"/>
      <point x="85" y="0"/>
      <point x="125" y="0"/>
      <point x="171" y="0" type="curve"/>
      <point x="171" y="89"/>
      <point x="171" y="0"/>
    </contour>
    <contour>
      <point x="227" y="0" type="curve"/>
      <point x="227" y="241"/>
      <point x="227" y="481"/>
      <point x="227" y="722" type="curve"/>
      <point x="113" y="722"/>
      <point x="227" y="722"/>
      <point x="113" y="722" type="curve"/>
      <point x="113" y="481"/>
      <point x="113" y="241"/>
      <point x="113" y="0" type="curve"/>
      <point x="227" y="0"/>
      <point x="113" y="0"/>
    </contour>
  </outline>
</glyph>
<glyph name="M" format="1">
  <advance width="794"/>
  <unicode hex="004D"/>
  <outline>
    <contour>
      <point x="651" y="0" type="curve"/>
      <point x="694" y="0"/>
      <point x="733" y="0"/>
      <point x="775" y="0" type="curve"/>
      <point x="775" y="89"/>
      <point x="775" y="0"/>
      <point x="775" y="89" type="curve"/>
      <point x="646" y="89"/>
      <point x="780" y="89"/>
      <point x="651" y="89" type="curve"/>
      <point x="651" y="0"/>
      <point x="651" y="89"/>
    </contour>
    <contour>
      <point x="651" y="89" type="curve"/>
      <point x="530" y="89"/>
      <point x="656" y="89"/>
      <point x="535" y="89" type="curve"/>
      <point x="535" y="0"/>
      <point x="535" y="89"/>
      <point x="535" y="0" type="curve"/>
      <point x="576" y="0"/>
      <point x="612" y="0"/>
      <point x="651" y="0" type="curve"/>
      <point x="651" y="89"/>
      <point x="651" y="0"/>
    </contour>
    <contour>
      <point x="144" y="89" type="curve"/>
      <point x="15" y="89"/>
      <point x="149" y="89"/>
      <point x="20" y="89" type="curve"/>
      <point x="20" y="0"/>
      <point x="20" y="89"/>
      <point x="20" y="0" type="curve"/>
      <point x="63" y="0"/>
      <point x="102" y="0"/>
      <point x="144" y="0" type="curve"/>
      <point x="144" y="89"/>
      <point x="144" y="0"/>
    </contour>
    <contour>
      <point x="187" y="722" type="curve"/>
      <point x="144" y="722"/>
      <point x="106" y="722"/>
      <point x="63" y="722" type="curve"/>
      <point x="62" y="633"/>
      <point x="63" y="722"/>
      <point x="62" y="633" type="curve"/>
      <point x="192" y="633"/>
      <point x="58" y="633"/>
      <point x="187" y="633" type="curve"/>
      <point x="187" y="722"/>
      <point x="187" y="633"/>
    </contour>
    <contour>
      <point x="607" y="633" type="curve"/>
      <point x="735" y="633"/>
      <point x="602" y="633"/>
      <point x="730" y="633" type="curve"/>
      <point x="730" y="722"/>
      <point x="730" y="633"/>
      <point x="730" y="722" type="curve"/>
      <point x="688" y="722"/>
      <point x="649" y="722"/>
      <point x="607" y="722" type="curve"/>
      <point x="607" y="633"/>
      <point x="607" y="722"/>
    </contour>
    <contour>
      <point x="144" y="0" type="curve"/>
      <point x="184" y="0"/>
      <point x="139" y="0"/>
      <point x="260" y="0" type="curve"/>
      <point x="260" y="89"/>
      <point x="260" y="0"/>
      <point x="260" y="89" type="curve"/>
      <point x="139" y="89"/>
      <point x="265" y="89"/>
      <point x="144" y="89" type="curve"/>
      <point x="144" y="0"/>
      <point x="144" y="89"/>
    </contour>
    <contour>
      <point x="714" y="0" type="curve"/>
      <point x="699" y="241"/>
      <point x="679" y="481"/>
      <point x="664" y="722" type="curve"/>
      <point x="561" y="722"/>
      <point x="664" y="722"/>
      <point x="561" y="722" type="curve"/>
      <point x="575" y="481"/>
      <point x="586" y="241"/>
      <point x="600" y="0" type="curve"/>
      <point x="714" y="0"/>
      <point x="600" y="0"/>
    </contour>
    <contour>
      <point x="192" y="0" type="curve"/>
      <point x="205" y="241"/>
      <point x="219" y="481"/>
      <point x="233" y="722" type="curve"/>
      <point x="137" y="722"/>
      <point x="233" y="722"/>
      <point x="137" y="722" type="curve"/>
      <point x="122" y="481"/>
      <point x="108" y="241"/>
      <point x="93" y="0" type="curve"/>
      <point x="192" y="0"/>
      <point x="93" y="0"/>
    </contour>
    <contour>
      <point x="442" y="0" type="curve"/>
      <point x="373" y="241"/>
      <point x="304" y="481"/>
      <point x="235" y="722" type="curve"/>
      <point x="139" y="722"/>
      <point x="235" y="722"/>
      <point x="139" y="722" type="curve"/>
      <point x="208" y="481"/>
      <point x="276" y="241"/>
      <point x="345" y="0" type="curve"/>
      <point x="442" y="0"/>
      <point x="345" y="0"/>
    </contour>
    <contour>
      <point x="449" y="0" type="curve"/>
      <point x="517" y="241"/>
      <point x="585" y="481"/>
      <point x="652" y="722" type="curve"/>
      <point x="556" y="722"/>
      <point x="652" y="722"/>
      <point x="556" y="722" type="curve"/>
      <point x="488" y="481"/>
      <point x="419" y="241"/>
      <point x="351" y="0" type="curve"/>
      <point x="449" y="0"/>
      <point x="351" y="0"/>
    </contour>
  </outline>
</glyph>
<glyph name="S" format="1">
  <advance width="508"/>
  <unicode hex="0053"/>
  <outline>
    <contour>
      <point x="257" y="791" type="move" name="top"/>
    </contour>
    <contour>
      <point x="289" y="-14" type="move" name="bottom"/>
    </contour>
    <contour>
      <point x="326" y="661" type="curve"/>
      <point x="326" y="541"/>
      <point x="326" y="647"/>
      <point x="326" y="527" type="curve"/>
      <point x="416" y="527"/>
      <point x="326" y="527"/>
      <point x="416" y="527" type="curve"/>
      <point x="416" y="647"/>
      <point x="416" y="541"/>
      <point x="416" y="661" type="curve"/>
      <point x="326" y="661"/>
      <point x="416" y="661"/>
    </contour>
    <contour>
      <point x="161" y="54" type="curve"/>
      <point x="161" y="174"/>
      <point x="161" y="77"/>
      <point x="161" y="197" type="curve"/>
      <point x="71" y="197"/>
      <point x="161" y="197"/>
      <point x="71" y="197" type="curve"/>
      <point x="71" y="77"/>
      <point x="71" y="174"/>
      <point x="71" y="54" type="curve"/>
      <point x="161" y="54"/>
      <point x="71" y="54"/>
    </contour>
    <contour>
      <point x="71" y="54" type="curve"/>
      <point x="122" y="14"/>
      <point x="173" y="-5"/>
      <point x="242" y="-5" type="curve"/>
      <point x="367" y="-5"/>
      <point x="457" y="65"/>
      <point x="457" y="188" type="curve"/>
      <point x="457" y="296"/>
      <point x="387" y="355"/>
      <point x="292" y="411" type="curve"/>
      <point x="232" y="448"/>
      <point x="181" y="489"/>
      <point x="181" y="545" type="curve"/>
      <point x="179" y="594"/>
      <point x="207" y="634"/>
      <point x="254" y="634" type="curve"/>
      <point x="299" y="634"/>
      <point x="337" y="609"/>
      <point x="364" y="591" type="curve"/>
      <point x="414" y="659"/>
      <point x="366" y="593"/>
      <point x="416" y="661" type="curve"/>
      <point x="367" y="700"/>
      <point x="321" y="719"/>
      <point x="257" y="719" type="curve"/>
      <point x="143" y="719"/>
      <point x="67" y="651"/>
      <point x="67" y="541" type="curve"/>
      <point x="67" y="438"/>
      <point x="133" y="379"/>
      <point x="221" y="327" type="curve"/>
      <point x="287" y="289"/>
      <point x="343" y="246"/>
      <point x="343" y="188" type="curve"/>
      <point x="343" y="138"/>
      <point x="305" y="88"/>
      <point x="248" y="88" type="curve"/>
      <point x="200" y="88"/>
      <point x="168" y="112"/>
      <point x="133" y="138" type="curve"/>
      <point x="73" y="57"/>
      <point x="131" y="136"/>
    </contour>
  </outline>
</glyph>
<glyph name="V" format="1">
  <advance width="638"/>
  <unicode hex="0056"/>
  <outline>
    <contour>
      <point x="506" y="722" type="curve"/>
      <point x="460" y="722"/>
      <point x="417" y="722"/>
      <point x="372" y="722" type="curve"/>
      <point x="372" y="633"/>
      <point x="372" y="722"/>
      <point x="372" y="633" type="curve"/>
      <point x="508" y="633"/>
      <point x="369" y="633"/>
      <point x="506" y="633" type="curve"/>
      <point x="506" y="722"/>
      <point x="506" y="633"/>
    </contour>
    <contour>
      <point x="114" y="722" type="curve"/>
      <point x="75" y="722"/>
      <point x="38" y="722"/>
      <point x="-2" y="722" type="curve"/>
      <point x="-2" y="633"/>
      <point x="-2" y="722"/>
      <point x="-2" y="633" type="curve"/>
      <point x="116" y="633"/>
      <point x="-5" y="633"/>
      <point x="114" y="633" type="curve"/>
      <point x="114" y="722"/>
      <point x="114" y="633"/>
    </contour>
    <contour>
      <point x="514" y="633" type="curve"/>
      <point x="632" y="633"/>
      <point x="511" y="633"/>
      <point x="630" y="633" type="curve"/>
      <point x="630" y="722"/>
      <point x="630" y="633"/>
      <point x="630" y="722" type="curve"/>
      <point x="591" y="722"/>
      <point x="553" y="722"/>
      <point x="514" y="722" type="curve"/>
      <point x="514" y="633"/>
      <point x="514" y="722"/>
    </contour>
    <contour>
      <point x="122" y="633" type="curve"/>
      <point x="258" y="633"/>
      <point x="120" y="633"/>
      <point x="256" y="633" type="curve"/>
      <point x="256" y="722"/>
      <point x="256" y="633"/>
      <point x="256" y="722" type="curve"/>
      <point x="211" y="722"/>
      <point x="167" y="722"/>
      <point x="122" y="722" type="curve"/>
      <point x="122" y="633"/>
      <point x="122" y="722"/>
    </contour>
    <contour>
      <point x="465" y="722" type="curve"/>
      <point x="399" y="480"/>
      <point x="335" y="242"/>
      <point x="271" y="0" type="curve"/>
      <point x="388" y="0"/>
      <point x="259" y="0"/>
      <point x="376" y="0" type="curve"/>
      <point x="444" y="241"/>
      <point x="512" y="481"/>
      <point x="581" y="722" type="curve"/>
      <point x="465" y="722"/>
      <point x="581" y="722"/>
    </contour>
    <contour>
      <point x="47" y="722" type="curve"/>
      <point x="116" y="481"/>
      <point x="186" y="241"/>
      <point x="255" y="0" type="curve"/>
      <point x="372" y="0"/>
      <point x="245" y="0"/>
      <point x="362" y="0" type="curve"/>
      <point x="297" y="242"/>
      <point x="231" y="482"/>
      <point x="164" y="722" type="curve"/>
      <point x="47" y="722"/>
      <point x="164" y="722"/>
    </contour>
  </outline>
</glyph>
<glyph name="Y" format="1">
  <advance width="567"/>
  <unicode hex="0059"/>
  <outline>
    <contour>
      <point x="281" y="791" type="move" name="top"/>
    </contour>
    <contour>
      <point x="276" y="89" type="curve"/>
      <point x="143" y="89"/>
      <point x="279" y="89"/>
      <point x="145" y="89" type="curve"/>
      <point x="145" y="0"/>
      <point x="145" y="89"/>
      <point x="145" y="0" type="curve"/>
      <point x="189" y="0"/>
      <point x="232" y="0"/>
      <point x="276" y="0" type="curve"/>
      <point x="276" y="89"/>
      <point x="276" y="0"/>
    </contour>
    <contour>
      <point x="276" y="0" type="curve"/>
      <point x="321" y="0"/>
      <point x="364" y="0"/>
      <point x="407" y="0" type="curve"/>
      <point x="407" y="89"/>
      <point x="407" y="0"/>
      <point x="407" y="89" type="curve"/>
      <point x="274" y="89"/>
      <point x="409" y="89"/>
      <point x="276" y="89" type="curve"/>
      <point x="276" y="0"/>
      <point x="276" y="89"/>
    </contour>
    <contour>
      <point x="435" y="722" type="curve"/>
      <point x="394" y="722"/>
      <point x="354" y="722"/>
      <point x="312" y="722" type="curve"/>
      <point x="312" y="633"/>
      <point x="312" y="722"/>
      <point x="312" y="633" type="curve"/>
      <point x="438" y="633"/>
      <point x="310" y="633"/>
      <point x="435" y="633" type="curve"/>
      <point x="435" y="722"/>
      <point x="435" y="633"/>
    </contour>
    <contour>
      <point x="112" y="722" type="curve"/>
      <point x="77" y="722"/>
      <point x="44" y="722"/>
      <point x="9" y="722" type="curve"/>
      <point x="8" y="633"/>
      <point x="9" y="722"/>
      <point x="8" y="633" type="curve"/>
      <point x="114" y="633"/>
      <point x="6" y="633"/>
      <point x="112" y="633" type="curve"/>
      <point x="112" y="722"/>
      <point x="112" y="633"/>
    </contour>
    <contour>
      <point x="127" y="633" type="curve"/>
      <point x="253" y="633"/>
      <point x="125" y="633"/>
      <point x="251" y="633" type="curve"/>
      <point x="251" y="722"/>
      <point x="251" y="633"/>
      <point x="251" y="722" type="curve"/>
      <point x="209" y="722"/>
      <point x="169" y="722"/>
      <point x="127" y="722" type="curve"/>
      <point x="127" y="633"/>
      <point x="127" y="722"/>
    </contour>
    <contour>
      <point x="450" y="633" type="curve"/>
      <point x="561" y="633"/>
      <point x="448" y="633"/>
      <point x="559" y="633" type="curve"/>
      <point x="559" y="722"/>
      <point x="559" y="633"/>
      <point x="559" y="722" type="curve"/>
      <point x="522" y="722"/>
      <point x="487" y="722"/>
      <point x="450" y="722" type="curve"/>
      <point x="450" y="633"/>
      <point x="450" y="722"/>
    </contour>
    <contour>
      <point x="45" y="722" type="curve"/>
      <point x="103" y="594"/>
      <point x="158" y="468"/>
      <point x="214" y="337" type="curve"/>
      <point x="330" y="337"/>
      <point x="198" y="337"/>
      <point x="314" y="337" type="curve"/>
      <point x="263" y="469"/>
      <point x="214" y="592"/>
      <point x="161" y="722" type="curve"/>
      <point x="45" y="722"/>
      <point x="161" y="722"/>
    </contour>
    <contour>
      <point x="402" y="722" type="curve"/>
      <point x="343" y="590"/>
      <point x="291" y="468"/>
      <point x="232" y="337" type="curve"/>
      <point x="348" y="337"/>
      <point x="223" y="337"/>
      <point x="339" y="337" type="curve"/>
      <point x="399" y="467"/>
      <point x="457" y="594"/>
      <point x="518" y="722" type="curve"/>
      <point x="402" y="722"/>
      <point x="518" y="722"/>
    </contour>
    <contour>
      <point x="339" y="0" type="curve"/>
      <point x="339" y="115"/>
      <point x="339" y="224"/>
      <point x="339" y="339" type="curve"/>
      <point x="214" y="339"/>
      <point x="339" y="339"/>
      <point x="214" y="339" type="curve"/>
      <point x="214" y="224"/>
      <point x="214" y="115"/>
      <point x="214" y="0" type="curve"/>
      <point x="339" y="0"/>
      <point x="214" y="0"/>
    </contour>
  </outline>
</glyph>
<glyph name="asciicircum" format="1">
  <advance width="470"/>
  <unicode hex="005E"/>
  <outline>
    <contour>
      <point x="163" y="456" type="curve"/>
      <point x="206" y="561"/>
      <point x="249" y="664"/>
      <point x="292" y="768" type="curve"/>
      <point x="178" y="768"/>
      <point x="292" y="768"/>
      <point x="178" y="768" type="curve"/>
      <point x="135" y="664"/>
      <point x="92" y="561"/>
      <point x="49" y="456" type="curve"/>
      <point x="163" y="456"/>
      <point x="49" y="456"/>
    </contour>
    <contour>
      <point x="421" y="456" type="curve"/>
      <point x="379" y="558"/>
      <point x="334" y="665"/>
      <point x="292" y="768" type="curve"/>
      <point x="178" y="768"/>
      <point x="292" y="768"/>
      <point x="178" y="768" type="curve"/>
      <point x="220" y="665"/>
      <point x="265" y="558"/>
      <point x="307" y="456" type="curve"/>
      <point x="421" y="456"/>
      <point x="307" y="456"/>
    </contour>
  </outline>
</glyph>
<glyph name="underscore" format="1">
  <advance width="503"/>
  <unicode hex="005F"/>
  <outline>
    <contour>
      <point x="0" y="-190" type="curve"/>
      <point x="167" y="-190"/>
      <point x="335" y="-190"/>
      <point x="503" y="-190" type="curve"/>
      <point x="503" y="-100"/>
      <point x="503" y="-190"/>
      <point x="503" y="-100" type="curve"/>
      <point x="335" y="-100"/>
      <point x="167" y="-100"/>
      <point x="0" y="-100" type="curve"/>
      <point x="0" y="-190"/>
      <point x="0" y="-100"/>
    </contour>
  </outline>
</glyph>
<glyph name="grave" format="1">
  <advance width="333"/>
  <unicode hex="0060"/>
  <outline>
    <contour>
      <point x="218" y="590" type="move" name="_top"/>
    </contour>
    <contour>
      <point x="273" y="591" type="line"/>
      <point x="193" y="757" type="line"/>
      <point x="53" y="757" type="line"/>
      <point x="165" y="591" type="line"/>
    </contour>
  </outline>
</glyph>
<glyph name="b" format="1">
  <advance width="567"/>
  <unicode hex="0062"/>
  <outline>
    <contour>
      <point x="158" y="800" type="curve"/>
      <point x="112" y="800"/>
      <point x="70" y="800"/>
      <point x="27" y="800" type="curve"/>
      <point x="26" y="711"/>
      <point x="27" y="800"/>
      <point x="26" y="711" type="curve"/>
      <point x="160" y="711"/>
      <point x="24" y="711"/>
      <point x="158" y="711" type="curve"/>
      <point x="158" y="800"/>
      <point x="158" y="711"/>
    </contour>
    <contour>
      <point x="187" y="363" type="curve"/>
      <point x="208" y="397"/>
      <point x="251" y="446"/>
      <point x="309" y="446" type="curve"/>
      <point x="391" y="446"/>
      <point x="410" y="359"/>
      <point x="410" y="263" type="curve"/>
      <point x="410" y="171"/>
      <point x="387" y="87"/>
      <point x="311" y="87" type="curve"/>
      <point x="261" y="87"/>
      <point x="224" y="115"/>
      <point x="195" y="158" type="curve"/>
      <point x="136" y="118"/>
      <point x="195" y="157"/>
      <point x="137" y="117" type="curve"/>
      <point x="179" y="47"/>
      <point x="233" y="-5"/>
      <point x="322" y="-5" type="curve"/>
      <point x="456" y="-5"/>
      <point x="524" y="114"/>
      <point x="524" y="268" type="curve"/>
      <point x="524" y="419"/>
      <point x="458" y="538"/>
      <point x="325" y="538" type="curve"/>
      <point x="232" y="538"/>
      <point x="173" y="468"/>
      <point x="138" y="404" type="curve"/>
      <point x="187" y="364"/>
      <point x="138" y="402"/>
    </contour>
    <contour>
      <point x="213" y="0" type="curve"/>
      <point x="213" y="267"/>
      <point x="213" y="533"/>
      <point x="213" y="800" type="curve"/>
      <point x="99" y="800"/>
      <point x="213" y="800"/>
      <point x="99" y="800" type="curve"/>
      <point x="99" y="533"/>
      <point x="99" y="267"/>
      <point x="99" y="0" type="curve"/>
      <point x="213" y="0"/>
      <point x="99" y="0"/>
    </contour>
    <contour>
      <point x="158" y="89" type="curve"/>
      <point x="24" y="89"/>
      <point x="160" y="89"/>
      <point x="27" y="89" type="curve"/>
      <point x="27" y="0"/>
      <point x="27" y="89"/>
      <point x="27" y="0" type="curve"/>
      <point x="70" y="0"/>
      <point x="113" y="0"/>
      <point x="158" y="0" type="curve"/>
      <point x="158" y="89"/>
      <point x="158" y="0"/>
    </contour>
  </outline>
</glyph>
<glyph name="h" format="1">
  <advance width="547"/>
  <unicode hex="0068"/>
  <outline>
    <contour>
      <point x="412" y="-1" type="curve"/>
      <point x="457" y="-1"/>
      <point x="499" y="0"/>
      <point x="543" y="0" type="curve"/>
      <point x="543" y="89"/>
      <point x="543" y="0"/>
      <point x="543" y="89" type="curve"/>
      <point x="410" y="89"/>
      <point x="545" y="89"/>
      <point x="412" y="89" type="curve"/>
      <point x="412" y="-1"/>
      <point x="412" y="89"/>
    </contour>
    <contour>
      <point x="139" y="-1" type="curve"/>
      <point x="176" y="-1"/>
      <point x="137" y="-1"/>
      <point x="250" y="0" type="curve"/>
      <point x="250" y="89"/>
      <point x="250" y="0"/>
      <point x="250" y="89" type="curve"/>
      <point x="137" y="89"/>
      <point x="252" y="89"/>
      <point x="139" y="89" type="curve"/>
      <point x="139" y="-1"/>
      <point x="139" y="89"/>
    </contour>
    <contour>
      <point x="139" y="799" type="curve"/>
      <point x="94" y="799"/>
      <point x="52" y="800"/>
      <point x="8" y="800" type="curve"/>
      <point x="7" y="711"/>
      <point x="8" y="800"/>
      <point x="7" y="711" type="curve"/>
      <point x="141" y="711"/>
      <point x="5" y="711"/>
      <point x="139" y="711" type="curve"/>
      <point x="139" y="799"/>
      <point x="139" y="711"/>
    </contour>
    <contour>
      <point x="139" y="89" type="curve"/>
      <point x="6" y="89"/>
      <point x="141" y="89"/>
      <point x="8" y="89" type="curve"/>
      <point x="7" y="0"/>
      <point x="8" y="89"/>
      <point x="7" y="0" type="curve"/>
      <point x="52" y="0"/>
      <point x="94" y="-1"/>
      <point x="139" y="-1" type="curve"/>
      <point x="139" y="89"/>
      <point x="139" y="-1"/>
    </contour>
    <contour>
      <point x="170" y="314" type="curve"/>
      <point x="187" y="377"/>
      <point x="224" y="446"/>
      <point x="286" y="446" type="curve"/>
      <point x="351" y="446"/>
      <point x="356" y="387"/>
      <point x="356" y="316" type="curve"/>
      <point x="356" y="211"/>
      <point x="356" y="106"/>
      <point x="356" y="0" type="curve"/>
      <point x="470" y="0"/>
      <point x="356" y="0"/>
      <point x="470" y="0" type="curve"/>
      <point x="470" y="108"/>
      <point x="470" y="217"/>
      <point x="470" y="325" type="curve"/>
      <point x="470" y="446"/>
      <point x="436" y="534"/>
      <point x="318" y="534" type="curve"/>
      <point x="229" y="534"/>
      <point x="160" y="454"/>
      <point x="139" y="359" type="curve"/>
      <point x="170" y="314"/>
      <point x="139" y="359"/>
    </contour>
    <contour>
      <point x="195" y="0" type="curve"/>
      <point x="195" y="267"/>
      <point x="195" y="533"/>
      <point x="195" y="800" type="curve"/>
      <point x="81" y="800"/>
      <point x="195" y="800"/>
      <point x="81" y="800" type="curve"/>
      <point x="81" y="533"/>
      <point x="81" y="267"/>
      <point x="81" y="0" type="curve"/>
      <point x="195" y="0"/>
      <point x="81" y="0"/>
    </contour>
  </outline>
</glyph>
<glyph name="l" format="1">
  <advance width="299"/>
  <unicode hex="006C"/>
  <outline>
    <contour>
      <point x="152" y="883" type="move" name="top"/>
    </contour>
    <contour>
      <point x="195" y="-18" type="move" name="bottom"/>
    </contour>
    <contour>
      <point x="150" y="89" type="curve"/>
      <point x="16" y="89"/>
      <point x="150" y="89"/>
      <point x="16" y="89" type="curve"/>
      <point x="16" y="0"/>
      <point x="16" y="89"/>
      <point x="16" y="0" type="curve"/>
      <point x="61" y="0"/>
      <point x="105" y="0"/>
      <point x="150" y="0" type="curve"/>
      <point x="150" y="89"/>
      <point x="150" y="-1"/>
    </contour>
    <contour>
      <point x="151" y="800" type="curve"/>
      <point x="107" y="800"/>
      <point x="62" y="800"/>
      <point x="18" y="800" type="curve"/>
      <point x="17" y="711"/>
      <point x="18" y="800"/>
      <point x="17" y="711" type="curve"/>
      <point x="151" y="711"/>
      <point x="17" y="711"/>
      <point x="151" y="711" type="curve"/>
      <point x="151" y="799"/>
      <point x="151" y="711"/>
    </contour>
    <contour>
      <point x="150" y="0" type="curve"/>
      <point x="194" y="0"/>
      <point x="239" y="0"/>
      <point x="284" y="0" type="curve"/>
      <point x="284" y="89"/>
      <point x="284" y="0"/>
      <point x="284" y="89" type="curve"/>
      <point x="150" y="89"/>
      <point x="284" y="89"/>
      <point x="150" y="89" type="curve"/>
      <point x="150" y="-1"/>
      <point x="150" y="89"/>
    </contour>
    <contour>
      <point x="206" y="0" type="curve"/>
      <point x="206" y="267"/>
      <point x="206" y="533"/>
      <point x="206" y="800" type="curve"/>
      <point x="92" y="800"/>
      <point x="206" y="800"/>
      <point x="92" y="800" type="curve"/>
      <point x="92" y="533"/>
      <point x="92" y="267"/>
      <point x="92" y="0" type="curve"/>
      <point x="206" y="0"/>
      <point x="92" y="0"/>
    </contour>
  </outline>
</glyph>
<glyph name="m" format="1">
  <advance width="828"/>
  <unicode hex="006D"/>
  <outline>
    <contour>
      <point x="422" y="0" type="curve"/>
      <point x="538" y="0"/>
      <point x="422" y="0"/>
      <point x="538" y="0" type="curve"/>
      <point x="538" y="89"/>
      <point x="538" y="0"/>
      <point x="538" y="89" type="curve"/>
      <point x="422" y="89"/>
      <point x="538" y="89"/>
      <point x="422" y="89" type="curve"/>
      <point x="422" y="0"/>
      <point x="422" y="89"/>
    </contour>
    <contour>
      <point x="668" y="0" type="curve"/>
      <point x="712" y="0"/>
      <point x="754" y="0"/>
      <point x="799" y="0" type="curve"/>
      <point x="799" y="89"/>
      <point x="799" y="0"/>
      <point x="799" y="89" type="curve"/>
      <point x="666" y="89"/>
      <point x="801" y="89"/>
      <point x="668" y="89" type="curve"/>
      <point x="668" y="0"/>
      <point x="668" y="89"/>
    </contour>
    <contour>
      <point x="177" y="89" type="curve"/>
      <point x="44" y="89"/>
      <point x="179" y="89"/>
      <point x="46" y="89" type="curve"/>
      <point x="45" y="0"/>
      <point x="46" y="89"/>
      <point x="45" y="0" type="curve"/>
      <point x="90" y="0"/>
      <point x="132" y="0"/>
      <point x="177" y="0" type="curve"/>
      <point x="177" y="89"/>
      <point x="177" y="0"/>
    </contour>
    <contour>
      <point x="177" y="0" type="curve"/>
      <point x="216" y="0"/>
      <point x="172" y="0"/>
      <point x="291" y="0" type="curve"/>
      <point x="291" y="89"/>
      <point x="291" y="0"/>
      <point x="291" y="89" type="curve"/>
      <point x="172" y="89"/>
      <point x="295" y="89"/>
      <point x="177" y="89" type="curve"/>
      <point x="177" y="0"/>
      <point x="177" y="89"/>
    </contour>
    <contour>
      <point x="177" y="533" type="curve"/>
      <point x="132" y="533"/>
      <point x="90" y="533"/>
      <point x="46" y="533" type="curve"/>
      <point x="45" y="444"/>
      <point x="46" y="533"/>
      <point x="45" y="444" type="curve"/>
      <point x="179" y="444"/>
      <point x="43" y="444"/>
      <point x="177" y="444" type="curve"/>
      <point x="177" y="533"/>
      <point x="177" y="444"/>
    </contour>
    <contour>
      <point x="453" y="291" type="curve"/>
      <point x="472" y="365"/>
      <point x="491" y="446"/>
      <point x="552" y="446" type="curve"/>
      <point x="617" y="446"/>
      <point x="610" y="391"/>
      <point x="610" y="316" type="curve"/>
      <point x="610" y="211"/>
      <point x="610" y="106"/>
      <point x="610" y="0" type="curve"/>
      <point x="724" y="0"/>
      <point x="610" y="0"/>
      <point x="724" y="0" type="curve"/>
      <point x="724" y="108"/>
      <point x="724" y="217"/>
      <point x="724" y="325" type="curve"/>
      <point x="724" y="453"/>
      <point x="713" y="538"/>
      <point x="592" y="538" type="curve"/>
      <point x="500" y="538"/>
      <point x="447" y="453"/>
      <point x="423" y="343" type="curve"/>
      <point x="456" y="294"/>
      <point x="419" y="341"/>
    </contour>
    <contour>
      <point x="208" y="291" type="curve"/>
      <point x="225" y="364"/>
      <point x="245" y="446"/>
      <point x="307" y="446" type="curve"/>
      <point x="371" y="446"/>
      <point x="365" y="391"/>
      <point x="365" y="316" type="curve"/>
      <point x="365" y="211"/>
      <point x="365" y="106"/>
      <point x="365" y="0" type="curve"/>
      <point x="479" y="0"/>
      <point x="365" y="0"/>
      <point x="479" y="0" type="curve"/>
      <point x="479" y="108"/>
      <point x="479" y="217"/>
      <point x="479" y="325" type="curve"/>
      <point x="479" y="453"/>
      <point x="468" y="538"/>
      <point x="347" y="538" type="curve"/>
      <point x="253" y="538"/>
      <point x="203" y="454"/>
      <point x="178" y="343" type="curve"/>
      <point x="211" y="294"/>
      <point x="174" y="341"/>
    </contour>
    <contour>
      <point x="234" y="0" type="curve"/>
      <point x="234" y="178"/>
      <point x="234" y="355"/>
      <point x="234" y="533" type="curve"/>
      <point x="120" y="533"/>
      <point x="234" y="533"/>
      <point x="120" y="533" type="curve"/>
      <point x="120" y="355"/>
      <point x="120" y="178"/>
      <point x="120" y="0" type="curve"/>
      <point x="234" y="0"/>
      <point x="120" y="0"/>
    </contour>
  </outline>
</glyph>
<glyph name="r" format="1">
  <advance width="380"/>
  <unicode hex="0072"/>
  <outline>
    <contour>
      <point x="184" y="625" type="move" name="top"/>
    </contour>
    <contour>
      <point x="225" y="-18" type="move" name="bottom"/>
    </contour>
    <contour>
      <point x="175" y="0" type="curve"/>
      <point x="217" y="0"/>
      <point x="257" y="0"/>
      <point x="299" y="0" type="curve"/>
      <point x="299" y="89"/>
      <point x="299" y="0"/>
      <point x="299" y="89" type="curve"/>
      <point x="173" y="89"/>
      <point x="302" y="89"/>
      <point x="175" y="89" type="curve"/>
      <point x="175" y="0"/>
      <point x="175" y="89"/>
    </contour>
    <contour>
      <point x="175" y="89" type="curve"/>
      <point x="42" y="89"/>
      <point x="178" y="89"/>
      <point x="45" y="89" type="curve"/>
      <point x="44" y="0"/>
      <point x="45" y="89"/>
      <point x="44" y="0" type="curve"/>
      <point x="88" y="0"/>
      <point x="131" y="0"/>
      <point x="175" y="0" type="curve"/>
      <point x="175" y="89"/>
      <point x="175" y="0"/>
    </contour>
    <contour>
      <point x="175" y="533" type="curve"/>
      <point x="130" y="533"/>
      <point x="88" y="533"/>
      <point x="44" y="533" type="curve"/>
      <point x="44" y="444"/>
      <point x="44" y="533"/>
      <point x="44" y="444" type="curve"/>
      <point x="177" y="444"/>
      <point x="42" y="444"/>
      <point x="175" y="444" type="curve"/>
      <point x="175" y="533"/>
      <point x="175" y="444"/>
    </contour>
    <contour>
      <point x="232" y="0" type="curve"/>
      <point x="232" y="178"/>
      <point x="232" y="355"/>
      <point x="232" y="533" type="curve"/>
      <point x="118" y="533"/>
      <point x="232" y="533"/>
      <point x="118" y="533" type="curve"/>
      <point x="118" y="355"/>
      <point x="118" y="178"/>
      <point x="118" y="0" type="curve"/>
      <point x="232" y="0"/>
      <point x="118" y="0"/>
    </contour>
    <contour>
      <point x="208" y="305" type="curve"/>
      <point x="235" y="413"/>
      <point x="293" y="446"/>
      <point x="360" y="446" type="curve"/>
      <point x="360" y="539"/>
      <point x="360" y="444"/>
      <point x="360" y="538" type="curve"/>
      <point x="268" y="538"/>
      <point x="199" y="456"/>
      <point x="166" y="350" type="curve"/>
      <point x="207" y="306"/>
      <point x="170" y="348"/>
    </contour>
  </outline>
</glyph>
<glyph name="v" format="1">
  <advance width="552"/>
  <unicode hex="0076"/>
  <outline>
    <contour>
      <point x="123" y="533" type="curve"/>
      <point x="86" y="533"/>
      <point x="52" y="533"/>
      <point x="15" y="533" type="curve"/>
      <point x="15" y="444"/>
      <point x="15" y="533"/>
      <point x="15" y="444" type="curve"/>
      <point x="125" y="444"/>
      <point x="13" y="444"/>
      <point x="123" y="444" type="curve"/>
      <point x="123" y="533"/>
      <point x="123" y="444"/>
    </contour>
    <contour>
      <point x="123" y="444" type="curve"/>
      <point x="249" y="444"/>
      <point x="121" y="444"/>
      <point x="247" y="444" type="curve"/>
      <point x="247" y="533"/>
      <point x="247" y="444"/>
      <point x="247" y="533" type="curve"/>
      <point x="205" y="533"/>
      <point x="165" y="533"/>
      <point x="123" y="533" type="curve"/>
      <point x="123" y="444"/>
      <point x="123" y="533"/>
    </contour>
    <contour>
      <point x="440" y="533" type="curve"/>
      <point x="397" y="533"/>
      <point x="356" y="533"/>
      <point x="314" y="533" type="curve"/>
      <point x="314" y="444"/>
      <point x="314" y="533"/>
      <point x="314" y="444" type="curve"/>
      <point x="442" y="444"/>
      <point x="312" y="444"/>
      <point x="440" y="444" type="curve"/>
      <point x="440" y="533"/>
      <point x="440" y="444"/>
    </contour>
    <contour>
      <point x="440" y="444" type="curve"/>
      <point x="548" y="444"/>
      <point x="438" y="444"/>
      <point x="546" y="444" type="curve"/>
      <point x="546" y="533"/>
      <point x="546" y="444"/>
      <point x="546" y="533" type="curve"/>
      <point x="510" y="533"/>
      <point x="476" y="533"/>
      <point x="440" y="533" type="curve"/>
      <point x="440" y="444"/>
      <point x="440" y="533"/>
    </contour>
    <contour>
      <point x="57" y="533" type="curve"/>
      <point x="109" y="355"/>
      <point x="160" y="178"/>
      <point x="211" y="0" type="curve"/>
      <point x="317" y="0"/>
      <point x="211" y="0"/>
      <point x="317" y="0" type="curve"/>
      <point x="267" y="177"/>
      <point x="224" y="356"/>
      <point x="174" y="533" type="curve"/>
      <point x="57" y="533"/>
      <point x="174" y="533"/>
    </contour>
    <contour>
      <point x="390" y="533" type="curve"/>
      <point x="237" y="0" type="line"/>
      <point x="344" y="0"/>
      <point x="237" y="0"/>
      <point x="344" y="0" type="curve"/>
      <point x="398" y="178"/>
      <point x="451" y="355"/>
      <point x="505" y="533" type="curve"/>
      <point x="390" y="533"/>
      <point x="505" y="533"/>
    </contour>
  </outline>
</glyph>
<glyph name="braceleft" format="1">
  <advance width="251"/>
  <unicode hex="007B"/>
  <outline>
    <contour>
      <point x="206" y="-23" type="curve"/>
      <point x="169" y="-23"/>
      <point x="172" y="15"/>
      <point x="172" y="56" type="curve"/>
      <point x="172" y="109"/>
      <point x="172" y="162"/>
      <point x="172" y="215" type="curve"/>
      <point x="172" y="313"/>
      <point x="127" y="387"/>
      <point x="35" y="387" type="curve"/>
      <point x="35" y="294"/>
      <point x="35" y="387"/>
      <point x="35" y="294" type="curve"/>
      <point x="67" y="294"/>
      <point x="68" y="260"/>
      <point x="68" y="224" type="curve"/>
      <point x="68" y="169"/>
      <point x="68" y="115"/>
      <point x="68" y="61" type="curve"/>
      <point x="68" y="-39"/>
      <point x="112" y="-112"/>
      <point x="206" y="-112" type="curve"/>
      <point x="206" y="-23"/>
      <point x="206" y="-112"/>
    </contour>
    <contour>
      <point x="206" y="792" type="curve"/>
      <point x="112" y="792"/>
      <point x="68" y="722"/>
      <point x="68" y="623" type="curve"/>
      <point x="68" y="567"/>
      <point x="68" y="510"/>
      <point x="68" y="454" type="curve"/>
      <point x="68" y="418"/>
      <point x="66" y="387"/>
      <point x="35" y="387" type="curve"/>
      <point x="35" y="294"/>
      <point x="35" y="387"/>
      <point x="35" y="294" type="curve"/>
      <point x="127" y="294"/>
      <point x="172" y="367"/>
      <point x="172" y="468" type="curve"/>
      <point x="172" y="519"/>
      <point x="172" y="571"/>
      <point x="172" y="623" type="curve"/>
      <point x="172" y="665"/>
      <point x="168" y="703"/>
      <point x="206" y="703" type="curve"/>
      <point x="206" y="792"/>
      <point x="206" y="703"/>
    </contour>
  </outline>
</glyph>
<glyph name="bar" format="1">
  <advance width="257"/>
  <unicode hex="007C"/>
  <outline>
    <contour>
      <point x="185" y="-300" type="curve"/>
      <point x="185" y="67"/>
      <point x="185" y="433"/>
      <point x="185" y="800" type="curve"/>
      <point x="71" y="800"/>
      <point x="185" y="800"/>
      <point x="71" y="800" type="curve"/>
      <point x="71" y="433"/>
      <point x="71" y="67"/>
      <point x="71" y="-300" type="curve"/>
      <point x="185" y="-300"/>
      <point x="71" y="-300"/>
    </contour>
  </outline>
</glyph>
<glyph name="sterling" format="1">
  <advance width="415"/>
  <unicode hex="00A3"/>
  <outline>
    <contour>
      <point x="349" y="89" type="curve"/>
      <point x="250" y="89"/>
      <point x="145" y="89"/>
      <point x="46" y="89" type="curve"/>
      <point x="46" y="0"/>
      <point x="46" y="89"/>
      <point x="46" y="0" type="curve"/>
      <point x="145" y="0"/>
      <point x="250" y="0"/>
      <point x="349" y="0" type="curve"/>
      <point x="349" y="89"/>
      <point x="349" y="0"/>
    </contour>
    <contour>
      <point x="309" y="420" type="curve"/>
      <point x="229" y="420"/>
      <point x="142" y="420"/>
      <point x="63" y="420" type="curve"/>
      <point x="63" y="331"/>
      <point x="63" y="420"/>
      <point x="63" y="331" type="curve"/>
      <point x="142" y="331"/>
      <point x="229" y="331"/>
      <point x="309" y="331" type="curve"/>
      <point x="309" y="420"/>
      <point x="309" y="331"/>
    </contour>
    <contour>
      <point x="375" y="664" type="curve"/>
      <point x="337" y="707"/>
      <point x="303" y="721"/>
      <point x="254" y="721" type="curve"/>
      <point x="98" y="721"/>
      <point x="73" y="558"/>
      <point x="106" y="365" type="curve"/>
      <point x="129" y="224"/>
      <point x="134" y="89"/>
      <point x="46" y="89" type="curve"/>
      <point x="46" y="0"/>
      <point x="46" y="89"/>
      <point x="46" y="0" type="curve"/>
      <point x="218" y="0"/>
      <point x="240" y="178"/>
      <point x="207" y="384" type="curve"/>
      <point x="186" y="513"/>
      <point x="176" y="636"/>
      <point x="248" y="636" type="curve"/>
      <point x="279" y="636"/>
      <point x="295" y="619"/>
      <point x="317" y="599" type="curve"/>
      <point x="375" y="664"/>
      <point x="317" y="599"/>
    </contour>
  </outline>
</glyph>
<glyph name="yen" format="1">
  <advance width="620"/>
  <unicode hex="00A5"/>
  <outline>
    <contour>
      <point x="468" y="408" type="curve"/>
      <point x="416" y="408"/>
      <point x="364" y="408"/>
      <point x="312" y="408" type="curve"/>
      <point x="312" y="310"/>
      <point x="312" y="408"/>
      <point x="312" y="310" type="curve"/>
      <point x="364" y="310"/>
      <point x="416" y="310"/>
      <point x="468" y="310" type="curve"/>
      <point x="468" y="408"/>
      <point x="468" y="310"/>
    </contour>
    <contour>
      <point x="291" y="408" type="curve"/>
      <point x="240" y="408"/>
      <point x="189" y="408"/>
      <point x="138" y="408" type="curve"/>
      <point x="138" y="310"/>
      <point x="138" y="408"/>
      <point x="138" y="310" type="curve"/>
      <point x="189" y="310"/>
      <point x="240" y="310"/>
      <point x="291" y="310" type="curve"/>
      <point x="291" y="408"/>
      <point x="291" y="310"/>
    </contour>
    <contour>
      <point x="468" y="270" type="curve"/>
      <point x="358" y="270"/>
      <point x="248" y="270"/>
      <point x="138" y="270" type="curve"/>
      <point x="138" y="173"/>
      <point x="138" y="270"/>
      <point x="138" y="173" type="curve"/>
      <point x="248" y="173"/>
      <point x="358" y="173"/>
      <point x="468" y="173" type="curve"/>
      <point x="468" y="270"/>
      <point x="468" y="173"/>
    </contour>
    <contour>
      <point x="302" y="89" type="curve"/>
      <point x="169" y="89"/>
      <point x="304" y="89"/>
      <point x="171" y="89" type="curve"/>
      <point x="171" y="0"/>
      <point x="171" y="89"/>
      <point x="171" y="0" type="curve"/>
      <point x="215" y="0"/>
      <point x="257" y="0"/>
      <point x="302" y="0" type="curve"/>
      <point x="302" y="89"/>
      <point x="302" y="0"/>
    </contour>
    <contour>
      <point x="302" y="0" type="curve"/>
      <point x="347" y="0"/>
      <point x="389" y="0"/>
      <point x="433" y="0" type="curve"/>
      <point x="433" y="89"/>
      <point x="433" y="0"/>
      <point x="433" y="89" type="curve"/>
      <point x="300" y="89"/>
      <point x="435" y="89"/>
      <point x="302" y="89" type="curve"/>
      <point x="302" y="0"/>
      <point x="302" y="89"/>
    </contour>
    <contour>
      <point x="461" y="722" type="curve"/>
      <point x="419" y="722"/>
      <point x="379" y="722"/>
      <point x="338" y="722" type="curve"/>
      <point x="338" y="633"/>
      <point x="338" y="722"/>
      <point x="338" y="633" type="curve"/>
      <point x="463" y="633"/>
      <point x="335" y="633"/>
      <point x="461" y="633" type="curve"/>
      <point x="461" y="722"/>
      <point x="461" y="633"/>
    </contour>
    <contour>
      <point x="138" y="722" type="curve"/>
      <point x="103" y="722"/>
      <point x="69" y="722"/>
      <point x="35" y="722" type="curve"/>
      <point x="34" y="633"/>
      <point x="35" y="722"/>
      <point x="34" y="633" type="curve"/>
      <point x="140" y="633"/>
      <point x="32" y="633"/>
      <point x="138" y="633" type="curve"/>
      <point x="138" y="722"/>
      <point x="138" y="633"/>
    </contour>
    <contour>
      <point x="153" y="633" type="curve"/>
      <point x="278" y="633"/>
      <point x="151" y="633"/>
      <point x="276" y="633" type="curve"/>
      <point x="276" y="722"/>
      <point x="276" y="633"/>
      <point x="276" y="722" type="curve"/>
      <point x="235" y="722"/>
      <point x="194" y="722"/>
      <point x="153" y="722" type="curve"/>
      <point x="153" y="633"/>
      <point x="153" y="722"/>
    </contour>
    <contour>
      <point x="476" y="633" type="curve"/>
      <point x="586" y="633"/>
      <point x="474" y="633"/>
      <point x="584" y="633" type="curve"/>
      <point x="584" y="722"/>
      <point x="584" y="633"/>
      <point x="584" y="722" type="curve"/>
      <point x="548" y="722"/>
      <point x="513" y="722"/>
      <point x="476" y="722" type="curve"/>
      <point x="476" y="633"/>
      <point x="476" y="722"/>
    </contour>
    <contour>
      <point x="70" y="722" type="curve"/>
      <point x="128" y="594"/>
      <point x="183" y="468"/>
      <point x="240" y="337" type="curve"/>
      <point x="356" y="337"/>
      <point x="223" y="337"/>
      <point x="339" y="337" type="curve"/>
      <point x="289" y="469"/>
      <point x="240" y="592"/>
      <point x="187" y="722" type="curve"/>
      <point x="70" y="722"/>
      <point x="187" y="722"/>
    </contour>
    <contour>
      <point x="427" y="722" type="curve"/>
      <point x="369" y="590"/>
      <point x="317" y="468"/>
      <point x="257" y="337" type="curve"/>
      <point x="373" y="337"/>
      <point x="248" y="337"/>
      <point x="364" y="337" type="curve"/>
      <point x="424" y="467"/>
      <point x="482" y="594"/>
      <point x="543" y="722" type="curve"/>
      <point x="427" y="722"/>
      <point x="543" y="722"/>
    </contour>
    <contour>
      <point x="364" y="0" type="curve"/>
      <point x="364" y="115"/>
      <point x="364" y="224"/>
      <point x="364" y="339" type="curve"/>
      <point x="240" y="339"/>
      <point x="364" y="339"/>
      <point x="240" y="339" type="curve"/>
      <point x="240" y="224"/>
      <point x="240" y="115"/>
      <point x="240" y="0" type="curve"/>
      <point x="364" y="0"/>
      <point x="240" y="0"/>
    </contour>
  </outline>
</glyph>
<glyph name="dieresis" format="1">
  <advance width="366"/>
  <unicode hex="00A8"/>
  <outline>
    <contour>
      <point x="175" y="617" type="move" name="_top"/>
    </contour>
    <contour>
      <point x="150" y="670" type="curve"/>
      <point x="150" y="709"/>
      <point x="125" y="728"/>
      <point x="89" y="728" type="curve"/>
      <point x="53" y="728"/>
      <point x="30" y="707"/>
      <point x="30" y="670" type="curve"/>
      <point x="150" y="670"/>
      <point x="30" y="670"/>
      <point x="150" y="670" type="curve"/>
      <point x="150" y="630"/>
      <point x="126" y="612"/>
      <point x="89" y="612" type="curve"/>
      <point x="53" y="612"/>
      <point x="30" y="632"/>
      <point x="30" y="670" type="curve"/>
      <point x="150" y="670"/>
      <point x="30" y="670"/>
    </contour>
    <contour>
      <point x="322" y="670" type="curve"/>
      <point x="322" y="709"/>
      <point x="297" y="728"/>
      <point x="261" y="728" type="curve"/>
      <point x="225" y="728"/>
      <point x="201" y="707"/>
      <point x="201" y="670" type="curve"/>
      <point x="322" y="670"/>
      <point x="201" y="670"/>
      <point x="322" y="670" type="curve"/>
      <point x="322" y="630"/>
      <point x="297" y="612"/>
      <point x="261" y="612" type="curve"/>
      <point x="225" y="612"/>
      <point x="201" y="632"/>
      <point x="201" y="670" type="curve"/>
      <point x="322" y="670"/>
      <point x="201" y="670"/>
    </contour>
  </outline>
</glyph>
<glyph name="logicalnot" format="1">
  <advance width="541"/>
  <unicode hex="00AC"/>
  <outline>
    <contour>
      <point x="77" y="265" type="curve"/>
      <point x="471" y="265" type="line"/>
      <point x="471" y="363"/>
      <point x="471" y="265"/>
      <point x="471" y="363" type="curve"/>
      <point x="77" y="363" type="line"/>
      <point x="77" y="265"/>
      <point x="77" y="363"/>
    </contour>
    <contour>
      <point x="471" y="142" type="curve"/>
      <point x="471" y="363" type="line"/>
      <point x="357" y="363"/>
      <point x="472" y="363"/>
      <point x="358" y="363" type="curve"/>
      <point x="358" y="142" type="line"/>
      <point x="472" y="142"/>
      <point x="357" y="142"/>
    </contour>
  </outline>
</glyph>
<glyph name="registered" format="1">
  <advance width="662"/>
  <unicode hex="00AE"/>
  <outline>
    <contour>
      <point x="132" y="321" type="curve"/>
      <point x="132" y="469"/>
      <point x="197" y="579"/>
      <point x="334" y="579" type="curve"/>
      <point x="468" y="579"/>
      <point x="531" y="467"/>
      <point x="531" y="320" type="curve"/>
      <point x="531" y="176"/>
      <point x="471" y="66"/>
      <point x="340" y="66" type="curve"/>
      <point x="203" y="66"/>
      <point x="132" y="174"/>
      <point x="132" y="321" type="curve"/>
      <point x="99" y="321"/>
      <point x="86" y="321"/>
      <point x="54" y="321" type="curve"/>
      <point x="54" y="133"/>
      <point x="155" y="2"/>
      <point x="336" y="2" type="curve"/>
      <point x="514" y="2"/>
      <point x="608" y="136"/>
      <point x="608" y="323" type="curve"/>
      <point x="608" y="510"/>
      <point x="512" y="644"/>
      <point x="334" y="644" type="curve"/>
      <point x="153" y="644"/>
      <point x="54" y="510"/>
      <point x="54" y="321" type="curve"/>
      <point x="86" y="321"/>
      <point x="99" y="321"/>
    </contour>
    <contour>
      <point x="396" y="143" type="curve"/>
      <point x="425" y="143"/>
      <point x="434" y="143"/>
      <point x="463" y="143" type="curve"/>
      <point x="463" y="215"/>
      <point x="463" y="143"/>
      <point x="463" y="215" type="curve"/>
      <point x="455" y="215"/>
      <point x="452" y="215"/>
      <point x="445" y="215" type="curve"/>
      <point x="407" y="229"/>
      <point x="401" y="234"/>
    </contour>
    <contour>
      <point x="323" y="505" type="curve"/>
      <point x="285" y="505"/>
      <point x="248" y="505"/>
      <point x="210" y="505" type="curve"/>
      <point x="210" y="432"/>
      <point x="210" y="505"/>
      <point x="210" y="432" type="curve"/>
      <point x="217" y="432"/>
      <point x="224" y="432"/>
      <point x="231" y="432" type="curve"/>
      <point x="323" y="505"/>
      <point x="231" y="432"/>
    </contour>
    <contour>
      <point x="323" y="215" type="curve"/>
      <point x="285" y="215"/>
      <point x="248" y="215"/>
      <point x="210" y="215" type="curve"/>
      <point x="210" y="143"/>
      <point x="210" y="215"/>
      <point x="210" y="143" type="curve"/>
      <point x="217" y="143"/>
      <point x="224" y="143"/>
      <point x="231" y="143" type="curve"/>
      <point x="323" y="215"/>
      <point x="231" y="143"/>
    </contour>
    <contour>
      <point x="231" y="143" type="curve"/>
      <point x="266" y="143"/>
      <point x="300" y="143"/>
      <point x="335" y="143" type="curve"/>
      <point x="335" y="215"/>
      <point x="335" y="143"/>
      <point x="335" y="215" type="curve"/>
      <point x="331" y="215"/>
      <point x="327" y="215"/>
      <point x="323" y="215" type="curve"/>
      <point x="231" y="143"/>
      <point x="323" y="215"/>
    </contour>
    <contour>
      <point x="310" y="318" type="curve"/>
      <point x="316" y="305"/>
      <point x="390" y="156"/>
      <point x="396" y="143" type="curve"/>
      <point x="450" y="172"/>
      <point x="436" y="166"/>
      <point x="445" y="215" type="curve"/>
      <point x="395" y="312" type="line"/>
      <point x="282" y="312"/>
      <point x="423" y="318"/>
    </contour>
    <contour>
      <point x="314" y="215" type="curve"/>
      <point x="314" y="311"/>
      <point x="314" y="408"/>
      <point x="314" y="505" type="curve"/>
      <point x="221" y="432"/>
      <point x="323" y="505"/>
      <point x="231" y="432" type="curve"/>
      <point x="231" y="336"/>
      <point x="231" y="239"/>
      <point x="231" y="143" type="curve"/>
      <point x="323" y="215"/>
      <point x="221" y="143"/>
    </contour>
    <contour>
      <point x="279" y="275" type="curve"/>
      <point x="292" y="275"/>
      <point x="306" y="275"/>
      <point x="319" y="275" type="curve"/>
      <point x="397" y="275"/>
      <point x="447" y="313"/>
      <point x="447" y="392" type="curve"/>
      <point x="447" y="460"/>
      <point x="405" y="505"/>
      <point x="338" y="505" type="curve"/>
      <point x="333" y="505"/>
      <point x="328" y="505"/>
      <point x="323" y="505" type="curve"/>
      <point x="231" y="432"/>
      <point x="323" y="505"/>
      <point x="231" y="432" type="curve"/>
      <point x="260" y="432"/>
      <point x="291" y="432"/>
      <point x="321" y="432" type="curve"/>
      <point x="348" y="432"/>
      <point x="365" y="416"/>
      <point x="365" y="388" type="curve"/>
      <point x="365" y="364"/>
      <point x="355" y="347"/>
      <point x="332" y="347" type="curve"/>
      <point x="314" y="347"/>
      <point x="296" y="347"/>
      <point x="279" y="347" type="curve"/>
      <point x="279" y="275"/>
      <point x="279" y="347"/>
    </contour>
  </outline>
</glyph>
<glyph name="macron" format="1">
  <advance width="250"/>
  <unicode hex="00AF"/>
  <outline>
    <contour>
      <point x="113" y="595" type="move" name="_top"/>
    </contour>
    <contour>
      <point x="196" y="684" type="curve"/>
      <point x="141" y="684"/>
      <point x="85" y="684"/>
      <point x="30" y="684" type="curve"/>
      <point x="30" y="595"/>
      <point x="30" y="684"/>
      <point x="30" y="595" type="curve"/>
      <point x="85" y="595"/>
      <point x="141" y="595"/>
      <point x="196" y="595" type="curve"/>
      <point x="196" y="684"/>
      <point x="196" y="595"/>
    </contour>
  </outline>
</glyph>
<glyph name="plusminus" format="1">
  <advance width="628"/>
  <unicode hex="00B1"/>
  <outline>
    <contour>
      <point x="59" y="47" type="line"/>
      <point x="570" y="47" type="line"/>
      <point x="570" y="145" type="line"/>
      <point x="59" y="145" type="line"/>
    </contour>
    <contour>
      <point x="59" y="265" type="curve"/>
      <point x="570" y="265" type="line"/>
      <point x="570" y="363"/>
      <point x="570" y="265"/>
      <point x="570" y="363" type="curve"/>
      <point x="59" y="363" type="line"/>
      <point x="59" y="265"/>
      <point x="59" y="363"/>
    </contour>
    <contour>
      <point x="368" y="48" type="curve"/>
      <point x="368" y="580" type="line"/>
      <point x="254" y="580"/>
      <point x="375" y="580"/>
      <point x="261" y="580" type="curve"/>
      <point x="261" y="48" type="line"/>
      <point x="375" y="48"/>
      <point x="254" y="48"/>
    </contour>
  </outline>
</glyph>
<glyph name="acute" format="1">
  <advance width="394"/>
  <unicode hex="00B4"/>
  <outline>
    <contour>
      <point x="97" y="592" type="move" name="_top"/>
    </contour>
    <contour>
      <point x="148" y="591" type="line"/>
      <point x="260" y="757" type="line"/>
      <point x="120" y="757" type="line"/>
      <point x="41" y="591" type="line"/>
    </contour>
  </outline>
</glyph>
<glyph name="paragraph" format="1">
  <advance width="680"/>
  <unicode hex="00B6"/>
  <outline>
    <contour>
      <point x="361" y="633" type="curve"/>
      <point x="497" y="633"/>
      <point x="361" y="633"/>
      <point x="497" y="633" type="curve"/>
      <point x="497" y="722"/>
      <point x="497" y="633"/>
      <point x="497" y="722" type="curve"/>
      <point x="451" y="722"/>
      <point x="406" y="722"/>
      <point x="361" y="722" type="curve"/>
      <point x="361" y="633"/>
      <point x="361" y="722"/>
    </contour>
    <contour>
      <point x="361" y="0" type="curve"/>
      <point x="406" y="0"/>
      <point x="451" y="0"/>
      <point x="497" y="0" type="curve"/>
      <point x="497" y="89"/>
      <point x="497" y="0"/>
      <point x="497" y="89" type="curve"/>
      <point x="361" y="89"/>
      <point x="497" y="89"/>
      <point x="361" y="89" type="curve"/>
      <point x="361" y="0"/>
      <point x="361" y="89"/>
    </contour>
    <contour>
      <point x="361" y="89" type="curve"/>
      <point x="232" y="89"/>
      <point x="361" y="89"/>
      <point x="232" y="89" type="curve"/>
      <point x="232" y="0"/>
      <point x="232" y="89"/>
      <point x="232" y="0" type="curve"/>
      <point x="361" y="0"/>
      <point x="318" y="0"/>
      <point x="361" y="0" type="curve"/>
      <point x="361" y="89"/>
      <point x="361" y="0"/>
    </contour>
    <contour>
      <point x="342" y="379" type="curve"/>
      <point x="308" y="357"/>
      <point x="281" y="344"/>
      <point x="241" y="344" type="curve"/>
      <point x="176" y="344"/>
      <point x="151" y="404"/>
      <point x="151" y="479" type="curve"/>
      <point x="151" y="566"/>
      <point x="192" y="633"/>
      <point x="273" y="633" type="curve"/>
      <point x="302" y="633"/>
      <point x="330" y="633"/>
      <point x="358" y="633" type="curve"/>
      <point x="358" y="722"/>
      <point x="358" y="633"/>
      <point x="358" y="722" type="curve"/>
      <point x="325" y="722"/>
      <point x="291" y="722"/>
      <point x="258" y="722" type="curve"/>
      <point x="120" y="722"/>
      <point x="37" y="623"/>
      <point x="37" y="483" type="curve"/>
      <point x="37" y="346"/>
      <point x="118" y="261"/>
      <point x="251" y="259" type="curve"/>
      <point x="299" y="259"/>
      <point x="338" y="280"/>
      <point x="378" y="305" type="curve"/>
      <point x="342" y="378"/>
      <point x="377" y="307"/>
    </contour>
    <contour>
      <point x="419" y="0" type="curve"/>
      <point x="419" y="241"/>
      <point x="419" y="481"/>
      <point x="419" y="722" type="curve"/>
      <point x="305" y="722"/>
      <point x="419" y="722"/>
      <point x="305" y="722" type="curve"/>
      <point x="305" y="481"/>
      <point x="305" y="241"/>
      <point x="305" y="0" type="curve"/>
      <point x="419" y="0"/>
      <point x="305" y="0"/>
    </contour>
    <contour>
      <point x="603" y="0" type="curve"/>
      <point x="603" y="241"/>
      <point x="603" y="481"/>
      <point x="603" y="722" type="curve"/>
      <point x="490" y="722"/>
      <point x="603" y="722"/>
      <point x="490" y="722" type="curve"/>
      <point x="490" y="481"/>
      <point x="490" y="241"/>
      <point x="490" y="0" type="curve"/>
      <point x="603" y="0"/>
      <point x="490" y="0"/>
    </contour>
  </outline>
</glyph>
<glyph name="cedilla" format="1">
  <advance width="334"/>
  <unicode hex="00B8"/>
  <outline>
    <contour>
      <point x="199" y="68" type="move" name="_bottom"/>
    </contour>
    <contour>
      <point x="118" y="130" type="curve"/>
      <point x="108" y="107"/>
      <point x="75" y="28"/>
      <point x="65" y="5" type="curve"/>
      <point x="143" y="-66"/>
      <point x="65" y="5"/>
      <point x="143" y="-66" type="curve"/>
      <point x="155" y="-39"/>
      <point x="194" y="42"/>
      <point x="205" y="68" type="curve"/>
      <point x="118" y="130"/>
      <point x="205" y="68"/>
    </contour>
    <contour>
      <point x="143" y="-66" type="curve"/>
      <point x="149" y="-61"/>
      <point x="154" y="-57"/>
      <point x="162" y="-57" type="curve"/>
      <point x="173" y="-57"/>
      <point x="179" y="-65"/>
      <point x="179" y="-80" type="curve"/>
      <point x="179" y="-97"/>
      <point x="165" y="-106"/>
      <point x="147" y="-106" type="curve"/>
      <point x="129" y="-106"/>
      <point x="114" y="-102"/>
      <point x="99" y="-91" type="curve"/>
      <point x="56" y="-156"/>
      <point x="99" y="-91"/>
      <point x="56" y="-156" type="curve"/>
      <point x="82" y="-175"/>
      <point x="108" y="-182"/>
      <point x="142" y="-182" type="curve"/>
      <point x="206" y="-182"/>
      <point x="249" y="-145"/>
      <point x="249" y="-78" type="curve"/>
      <point x="249" y="-14"/>
      <point x="212" y="27"/>
      <point x="150" y="27" type="curve"/>
      <point x="117" y="27"/>
      <point x="94" y="22"/>
      <point x="65" y="5" type="curve"/>
      <point x="143" y="-66"/>
      <point x="65" y="5"/>
    </contour>
  </outline>
</glyph>
<glyph name="ordmasculine" format="1">
  <advance width="369"/>
  <unicode hex="00BA"/>
  <outline>
    <contour>
      <point x="118" y="596" type="curve"/>
      <point x="118" y="654"/>
      <point x="130" y="706"/>
      <point x="183" y="706" type="curve"/>
      <point x="234" y="706"/>
      <point x="247" y="655"/>
      <point x="247" y="596" type="curve"/>
      <point x="247" y="534"/>
      <point x="236" y="483"/>
      <point x="188" y="483" type="curve"/>
      <point x="129" y="483"/>
      <point x="118" y="534"/>
      <point x="118" y="596" type="curve"/>
      <point x="112" y="596"/>
      <point x="54" y="596"/>
      <point x="48" y="596" type="curve"/>
      <point x="48" y="494"/>
      <point x="90" y="421"/>
      <point x="185" y="421" type="curve"/>
      <point x="277" y="421"/>
      <point x="322" y="493"/>
      <point x="322" y="596" type="curve"/>
      <point x="322" y="696"/>
      <point x="279" y="767"/>
      <point x="186" y="767" type="curve"/>
      <point x="91" y="767"/>
      <point x="48" y="696"/>
      <point x="48" y="596" type="curve"/>
      <point x="54" y="596"/>
      <point x="112" y="596"/>
    </contour>
  </outline>
</glyph>
<glyph name="onequarter" format="1">
  <advance width="818"/>
  <unicode hex="00BC"/>
  <outline>
    <contour>
      <point x="303" y="-49" type="line"/>
      <point x="618" y="719" type="line"/>
      <point x="513" y="719" type="line"/>
      <point x="198" y="-49" type="line"/>
    </contour>
    <contour>
      <point x="125" y="302" type="curve"/>
      <point x="168" y="302"/>
      <point x="220" y="302"/>
      <point x="264" y="302" type="curve"/>
      <point x="264" y="374"/>
      <point x="264" y="302"/>
      <point x="264" y="374" type="curve"/>
      <point x="251" y="374"/>
      <point x="230" y="374"/>
      <point x="217" y="374" type="curve"/>
      <point x="125" y="302"/>
      <point x="217" y="374"/>
    </contour>
    <contour>
      <point x="217" y="374" type="curve"/>
      <point x="173" y="374"/>
      <point x="121" y="374"/>
      <point x="76" y="374" type="curve"/>
      <point x="76" y="302"/>
      <point x="76" y="374"/>
      <point x="76" y="302" type="curve"/>
      <point x="90" y="302"/>
      <point x="111" y="302"/>
      <point x="125" y="302" type="curve"/>
      <point x="217" y="374"/>
      <point x="125" y="302"/>
    </contour>
    <contour>
      <point x="86" y="574" type="line"/>
      <point x="216" y="717" type="line"/>
      <point x="125" y="719" type="line"/>
      <point x="34" y="627" type="line"/>
    </contour>
    <contour>
      <point x="217" y="374" type="curve"/>
      <point x="217" y="719" type="line"/>
      <point x="125" y="719" type="line"/>
      <point x="125" y="302" type="line"/>
      <point x="217" y="374"/>
      <point x="125" y="302"/>
    </contour>
    <contour>
      <point x="782" y="136" type="line"/>
      <point x="477" y="136" type="line"/>
      <point x="477" y="65" type="line"/>
      <point x="782" y="65" type="line"/>
    </contour>
    <contour>
      <point x="513" y="70" type="line"/>
      <point x="697" y="371" type="line"/>
      <point x="631" y="386" type="line"/>
      <point x="477" y="136" type="line"/>
    </contour>
    <contour>
      <point x="722" y="-44" type="line"/>
      <point x="722" y="386" type="line"/>
      <point x="631" y="386" type="line"/>
      <point x="631" y="-44" type="line"/>
    </contour>
    <contour>
      <point x="676" y="19" type="line"/>
      <point x="584" y="19" type="line"/>
      <point x="584" y="-45" type="line"/>
      <point x="676" y="-45" type="line"/>
    </contour>
    <contour>
      <point x="676" y="-45" type="line"/>
      <point x="767" y="-45" type="line"/>
      <point x="767" y="19" type="line"/>
      <point x="676" y="19" type="line"/>
    </contour>
  </outline>
</glyph>
<glyph name="questiondown" format="1">
  <advance width="461"/>
  <unicode hex="00BF"/>
  <outline>
    <contour>
      <point x="296" y="367" type="curve"/>
      <point x="296" y="404"/>
      <point x="296" y="478"/>
      <point x="296" y="515" type="curve"/>
      <point x="191" y="515"/>
      <point x="296" y="515"/>
      <point x="191" y="515" type="curve"/>
      <point x="191" y="478"/>
      <point x="191" y="404"/>
      <point x="191" y="367" type="curve"/>
      <point x="296" y="367"/>
      <point x="191" y="367"/>
    </contour>
    <contour>
      <point x="363" y="145" type="line"/>
      <point x="334" y="111"/>
      <point x="305" y="89"/>
      <point x="259" y="89" type="curve"/>
      <point x="190" y="89"/>
      <point x="156" y="144"/>
      <point x="156" y="218" type="curve"/>
      <point x="156" y="304"/>
      <point x="201" y="367"/>
      <point x="284" y="367" type="curve"/>
      <point x="284" y="402"/>
      <point x="285" y="418"/>
      <point x="285" y="453" type="curve"/>
      <point x="138" y="453"/>
      <point x="47" y="360"/>
      <point x="47" y="218" type="curve"/>
      <point x="47" y="82"/>
      <point x="127" y="-6"/>
      <point x="254" y="-6" type="curve"/>
      <point x="330" y="-6"/>
      <point x="384" y="22"/>
      <point x="424" y="73" type="curve"/>
    </contour>
    <contour>
      <point x="183" y="686" type="curve"/>
      <point x="183" y="647"/>
      <point x="209" y="628"/>
      <point x="244" y="628" type="curve"/>
      <point x="280" y="628"/>
      <point x="303" y="649"/>
      <point x="303" y="686" type="curve"/>
      <point x="183" y="686"/>
      <point x="303" y="686"/>
      <point x="183" y="686" type="curve"/>
      <point x="183" y="726"/>
      <point x="208" y="744"/>
      <point x="244" y="744" type="curve"/>
      <point x="280" y="744"/>
      <point x="303" y="724"/>
      <point x="303" y="686" type="curve"/>
      <point x="183" y="686"/>
      <point x="303" y="686"/>
    </contour>
  </outline>
</glyph>
<glyph name="Acircumflex" format="1">
  <advance width="655"/>
  <unicode hex="00C2"/>
  <outline>
    <contour>
      <point x="116" y="89" type="curve"/>
      <point x="-20" y="89"/>
      <point x="129" y="89"/>
      <point x="-8" y="89" type="curve"/>
      <point x="-8" y="0"/>
      <point x="-8" y="89"/>
      <point x="-8" y="0" type="curve"/>
      <point x="38" y="0"/>
      <point x="71" y="0"/>
      <point x="115" y="0" type="curve"/>
      <point x="116" y="89"/>
      <point x="115" y="0"/>
    </contour>
    <contour>
      <point x="116" y="0" type="curve"/>
      <point x="170" y="0"/>
      <point x="111" y="0"/>
      <point x="273" y="0" type="curve"/>
      <point x="273" y="89"/>
      <point x="273" y="0"/>
      <point x="273" y="89" type="curve"/>
      <point x="111" y="89"/>
      <point x="277" y="89"/>
      <point x="116" y="89" type="curve"/>
      <point x="116" y="0"/>
      <point x="116" y="89"/>
    </contour>
    <contour>
      <point x="520" y="0" type="curve"/>
      <point x="564" y="0"/>
      <point x="597" y="0"/>
      <point x="643" y="0" type="curve"/>
      <point x="643" y="89"/>
      <point x="643" y="0"/>
      <point x="643" y="89" type="curve"/>
      <point x="507" y="89"/>
      <point x="655" y="89"/>
      <point x="520" y="89" type="curve"/>
      <point x="520" y="0"/>
      <point x="520" y="89"/>
    </contour>
    <contour>
      <point x="520" y="89" type="curve"/>
      <point x="357" y="89"/>
      <point x="525" y="89"/>
      <point x="362" y="89" type="curve"/>
      <point x="362" y="0"/>
      <point x="362" y="89"/>
      <point x="362" y="0" type="curve"/>
      <point x="417" y="0"/>
      <point x="465" y="0"/>
      <point x="520" y="0" type="curve"/>
      <point x="520" y="89"/>
      <point x="520" y="0"/>
    </contour>
    <contour>
      <point x="437" y="290" type="curve"/>
      <point x="363" y="290"/>
      <point x="288" y="290"/>
      <point x="214" y="290" type="curve"/>
      <point x="167" y="196"/>
      <point x="214" y="290"/>
      <point x="167" y="196" type="curve"/>
      <point x="269" y="196"/>
      <point x="372" y="196"/>
      <point x="474" y="196" type="curve"/>
      <point x="437" y="290"/>
      <point x="474" y="196"/>
    </contour>
    <contour>
      <point x="587" y="0" type="curve"/>
      <point x="520" y="241"/>
      <point x="448" y="481"/>
      <point x="382" y="722" type="curve"/>
      <point x="278" y="722"/>
      <point x="382" y="722"/>
      <point x="278" y="722" type="curve"/>
      <point x="343" y="482"/>
      <point x="403" y="240"/>
      <point x="469" y="0" type="curve"/>
      <point x="587" y="0"/>
      <point x="469" y="0"/>
    </contour>
    <contour>
      <point x="170" y="0" type="curve"/>
      <point x="242" y="240"/>
      <point x="307" y="482"/>
      <point x="380" y="722" type="curve"/>
      <point x="277" y="722"/>
      <point x="380" y="722"/>
      <point x="277" y="722" type="curve"/>
      <point x="202" y="480"/>
      <point x="119" y="242"/>
      <point x="45" y="0" type="curve"/>
      <point x="170" y="0"/>
      <point x="45" y="0"/>
    </contour>
    <contour>
      <point x="263" y="791" type="line"/>
      <point x="374" y="957" type="line"/>
      <point x="234" y="957" type="line"/>
      <point x="155" y="791" type="line"/>
    </contour>
    <contour>
      <point x="498" y="791" type="line"/>
      <point x="418" y="957" type="line"/>
      <point x="278" y="957" type="line"/>
      <point x="390" y="791" type="line"/>
    </contour>
  </outline>
</glyph>
<glyph name="Atilde" format="1">
  <advance width="655"/>
  <unicode hex="00C3"/>
  <outline>
    <contour>
      <point x="116" y="89" type="curve"/>
      <point x="-20" y="89"/>
      <point x="129" y="89"/>
      <point x="-8" y="89" type="curve"/>
      <point x="-8" y="0"/>
      <point x="-8" y="89"/>
      <point x="-8" y="0" type="curve"/>
      <point x="38" y="0"/>
      <point x="71" y="0"/>
      <point x="115" y="0" type="curve"/>
      <point x="116" y="89"/>
      <point x="115" y="0"/>
    </contour>
    <contour>
      <point x="116" y="0" type="curve"/>
      <point x="170" y="0"/>
      <point x="111" y="0"/>
      <point x="273" y="0" type="curve"/>
      <point x="273" y="89"/>
      <point x="273" y="0"/>
      <point x="273" y="89" type="curve"/>
      <point x="111" y="89"/>
      <point x="277" y="89"/>
      <point x="116" y="89" type="curve"/>
      <point x="116" y="0"/>
      <point x="116" y="89"/>
    </contour>
    <contour>
      <point x="520" y="0" type="curve"/>
      <point x="564" y="0"/>
      <point x="597" y="0"/>
      <point x="643" y="0" type="curve"/>
      <point x="643" y="89"/>
      <point x="643" y="0"/>
      <point x="643" y="89" type="curve"/>
      <point x="507" y="89"/>
      <point x="655" y="89"/>
      <point x="520" y="89" type="curve"/>
      <point x="520" y="0"/>
      <point x="520" y="89"/>
    </contour>
    <contour>
      <point x="520" y="89" type="curve"/>
      <point x="357" y="89"/>
      <point x="525" y="89"/>
      <point x="362" y="89" type="curve"/>
      <point x="362" y="0"/>
      <point x="362" y="89"/>
      <point x="362" y="0" type="curve"/>
      <point x="417" y="0"/>
      <point x="465" y="0"/>
      <point x="520" y="0" type="curve"/>
      <point x="520" y="89"/>
      <point x="520" y="0"/>
    </contour>
    <contour>
      <point x="437" y="290" type="curve"/>
      <point x="363" y="290"/>
      <point x="288" y="290"/>
      <point x="214" y="290" type="curve"/>
      <point x="167" y="196"/>
      <point x="214" y="290"/>
      <point x="167" y="196" type="curve"/>
      <point x="269" y="196"/>
      <point x="372" y="196"/>
      <point x="474" y="196" type="curve"/>
      <point x="437" y="290"/>
      <point x="474" y="196"/>
    </contour>
    <contour>
      <point x="587" y="0" type="curve"/>
      <point x="520" y="241"/>
      <point x="448" y="481"/>
      <point x="382" y="722" type="curve"/>
      <point x="278" y="722"/>
      <point x="382" y="722"/>
      <point x="278" y="722" type="curve"/>
      <point x="343" y="482"/>
      <point x="403" y="240"/>
      <point x="469" y="0" type="curve"/>
      <point x="587" y="0"/>
      <point x="469" y="0"/>
    </contour>
    <contour>
      <point x="170" y="0" type="curve"/>
      <point x="242" y="240"/>
      <point x="307" y="482"/>
      <point x="380" y="722" type="curve"/>
      <point x="277" y="722"/>
      <point x="380" y="722"/>
      <point x="277" y="722" type="curve"/>
      <point x="202" y="480"/>
      <point x="119" y="242"/>
      <point x="45" y="0" type="curve"/>
      <point x="170" y="0"/>
      <point x="45" y="0"/>
    </contour>
    <contour>
      <point x="427" y="966" type="curve"/>
      <point x="412" y="928"/>
      <point x="401" y="910"/>
      <point x="382" y="910" type="curve"/>
      <point x="356" y="910"/>
      <point x="344" y="920"/>
      <point x="326" y="937" type="curve"/>
      <point x="302" y="960"/>
      <point x="289" y="972"/>
      <point x="258" y="972" type="curve"/>
      <point x="192" y="972"/>
      <point x="163" y="906"/>
      <point x="145" y="842" type="curve"/>
      <point x="229" y="795"/>
      <point x="145" y="843"/>
      <point x="229" y="795" type="curve"/>
      <point x="246" y="838"/>
      <point x="259" y="855"/>
      <point x="283" y="855" type="curve"/>
      <point x="305" y="855"/>
      <point x="315" y="845"/>
      <point x="329" y="830" type="curve"/>
      <point x="356" y="804"/>
      <point x="373" y="789"/>
      <point x="408" y="789" type="curve"/>
      <point x="474" y="789"/>
      <point x="495" y="853"/>
      <point x="518" y="921" type="curve"/>
      <point x="427" y="966"/>
      <point x="518" y="920"/>
    </contour>
  </outline>
</glyph>
<glyph name="Aring" format="1">
  <advance width="655"/>
  <unicode hex="00C5"/>
  <outline>
    <contour>
      <point x="116" y="89" type="curve"/>
      <point x="-20" y="89"/>
      <point x="129" y="89"/>
      <point x="-8" y="89" type="curve"/>
      <point x="-8" y="0"/>
      <point x="-8" y="89"/>
      <point x="-8" y="0" type="curve"/>
      <point x="38" y="0"/>
      <point x="71" y="0"/>
      <point x="115" y="0" type="curve"/>
      <point x="116" y="89"/>
      <point x="115" y="0"/>
    </contour>
    <contour>
      <point x="116" y="0" type="curve"/>
      <point x="170" y="0"/>
      <point x="111" y="0"/>
      <point x="273" y="0" type="curve"/>
      <point x="273" y="89"/>
      <point x="273" y="0"/>
      <point x="273" y="89" type="curve"/>
      <point x="111" y="89"/>
      <point x="277" y="89"/>
      <point x="116" y="89" type="curve"/>
      <point x="116" y="0"/>
      <point x="116" y="89"/>
    </contour>
    <contour>
      <point x="520" y="0" type="curve"/>
      <point x="564" y="0"/>
      <point x="597" y="0"/>
      <point x="643" y="0" type="curve"/>
      <point x="643" y="89"/>
      <point x="643" y="0"/>
      <point x="643" y="89" type="curve"/>
      <point x="507" y="89"/>
      <point x="655" y="89"/>
      <point x="520" y="89" type="curve"/>
      <point x="520" y="0"/>
      <point x="520" y="89"/>
    </contour>
    <contour>
      <point x="520" y="89" type="curve"/>
      <point x="357" y="89"/>
      <point x="525" y="89"/>
      <point x="362" y="89" type="curve"/>
      <point x="362" y="0"/>
      <point x="362" y="89"/>
      <point x="362" y="0" type="curve"/>
      <point x="417" y="0"/>
      <point x="465" y="0"/>
      <point x="520" y="0" type="curve"/>
      <point x="520" y="89"/>
      <point x="520" y="0"/>
    </contour>
    <contour>
      <point x="437" y="290" type="curve"/>
      <point x="363" y="290"/>
      <point x="288" y="290"/>
      <point x="214" y="290" type="curve"/>
      <point x="167" y="196"/>
      <point x="214" y="290"/>
      <point x="167" y="196" type="curve"/>
      <point x="269" y="196"/>
      <point x="372" y="196"/>
      <point x="474" y="196" type="curve"/>
      <point x="437" y="290"/>
      <point x="474" y="196"/>
    </contour>
    <contour>
      <point x="587" y="0" type="curve"/>
      <point x="520" y="241"/>
      <point x="448" y="481"/>
      <point x="382" y="722" type="curve"/>
      <point x="278" y="722"/>
      <point x="382" y="722"/>
      <point x="278" y="722" type="curve"/>
      <point x="343" y="482"/>
      <point x="403" y="240"/>
      <point x="469" y="0" type="curve"/>
      <point x="587" y="0"/>
      <point x="469" y="0"/>
    </contour>
    <contour>
      <point x="170" y="0" type="curve"/>
      <point x="242" y="240"/>
      <point x="307" y="482"/>
      <point x="380" y="722" type="curve"/>
      <point x="277" y="722"/>
      <point x="380" y="722"/>
      <point x="277" y="722" type="curve"/>
      <point x="202" y="480"/>
      <point x="119" y="242"/>
      <point x="45" y="0" type="curve"/>
      <point x="170" y="0"/>
      <point x="45" y="0"/>
    </contour>
    <contour>
      <point x="196" y="929" type="curve"/>
      <point x="196" y="846"/>
      <point x="244" y="789"/>
      <point x="326" y="789" type="curve"/>
      <point x="408" y="789"/>
      <point x="457" y="845"/>
      <point x="457" y="929" type="curve"/>
      <point x="457" y="1014"/>
      <point x="407" y="1069"/>
      <point x="324" y="1069" type="curve"/>
      <point x="242" y="1069"/>
      <point x="196" y="1013"/>
      <point x="196" y="929" type="curve"/>
      <point x="297" y="929"/>
      <point x="188" y="929"/>
      <point x="288" y="929" type="curve"/>
      <point x="288" y="959"/>
      <point x="292" y="988"/>
      <point x="324" y="988" type="curve"/>
      <point x="355" y="988"/>
      <point x="360" y="960"/>
      <point x="360" y="929" type="curve"/>
      <point x="360" y="899"/>
      <point x="357" y="871"/>
      <point x="326" y="871" type="curve"/>
      <point x="294" y="871"/>
      <point x="288" y="899"/>
      <point x="288" y="929" type="curve"/>
      <point x="188" y="929"/>
      <point x="297" y="929"/>
    </contour>
  </outline>
</glyph>
<glyph name="Icircumflex" format="1">
  <advance width="338"/>
  <unicode hex="00CE"/>
  <outline>
    <contour>
      <point x="167" y="722" type="curve"/>
      <point x="121" y="722"/>
      <point x="81" y="722"/>
      <point x="35" y="722" type="curve"/>
      <point x="35" y="633"/>
      <point x="35" y="722"/>
      <point x="35" y="633" type="curve"/>
      <point x="172" y="633"/>
      <point x="30" y="633"/>
      <point x="167" y="633" type="curve"/>
      <point x="167" y="722"/>
      <point x="167" y="633"/>
    </contour>
    <contour>
      <point x="167" y="633" type="curve"/>
      <point x="303" y="633"/>
      <point x="162" y="633"/>
      <point x="298" y="633" type="curve"/>
      <point x="298" y="722"/>
      <point x="298" y="633"/>
      <point x="298" y="722" type="curve"/>
      <point x="252" y="722"/>
      <point x="212" y="722"/>
      <point x="167" y="722" type="curve"/>
      <point x="167" y="633"/>
      <point x="167" y="722"/>
    </contour>
    <contour>
      <point x="167" y="0" type="curve"/>
      <point x="212" y="0"/>
      <point x="252" y="0"/>
      <point x="298" y="0" type="curve"/>
      <point x="298" y="89"/>
      <point x="298" y="0"/>
      <point x="298" y="89" type="curve"/>
      <point x="162" y="89"/>
      <point x="303" y="89"/>
      <point x="167" y="89" type="curve"/>
      <point x="167" y="0"/>
      <point x="167" y="89"/>
    </contour>
    <contour>
      <point x="167" y="89" type="curve"/>
      <point x="30" y="89"/>
      <point x="172" y="89"/>
      <point x="35" y="89" type="curve"/>
      <point x="35" y="0"/>
      <point x="35" y="89"/>
      <point x="35" y="0" type="curve"/>
      <point x="81" y="0"/>
      <point x="121" y="0"/>
      <point x="167" y="0" type="curve"/>
      <point x="167" y="89"/>
      <point x="167" y="0"/>
    </contour>
    <contour>
      <point x="223" y="0" type="curve"/>
      <point x="223" y="241"/>
      <point x="223" y="481"/>
      <point x="223" y="722" type="curve"/>
      <point x="109" y="722"/>
      <point x="223" y="722"/>
      <point x="109" y="722" type="curve"/>
      <point x="109" y="481"/>
      <point x="109" y="241"/>
      <point x="109" y="0" type="curve"/>
      <point x="223" y="0"/>
      <point x="109" y="0"/>
    </contour>
    <contour>
      <point x="104" y="791" type="line"/>
      <point x="216" y="957" type="line"/>
      <point x="76" y="957" type="line"/>
      <point x="-4" y="791" type="line"/>
    </contour>
    <contour>
      <point x="339" y="791" type="line"/>
      <point x="260" y="957" type="line"/>
      <point x="120" y="957" type="line"/>
      <point x="231" y="791" type="line"/>
    </contour>
  </outline>
</glyph>
<glyph name="Idieresis" format="1">
  <advance width="341"/>
  <unicode hex="00CF"/>
  <outline>
    <contour>
      <point x="172" y="722" type="curve"/>
      <point x="126" y="722"/>
      <point x="86" y="722"/>
      <point x="40" y="722" type="curve"/>
      <point x="40" y="633"/>
      <point x="40" y="722"/>
      <point x="40" y="633" type="curve"/>
      <point x="177" y="633"/>
      <point x="35" y="633"/>
      <point x="172" y="633" type="curve"/>
      <point x="172" y="722"/>
      <point x="172" y="633"/>
    </contour>
    <contour>
      <point x="172" y="633" type="curve"/>
      <point x="308" y="633"/>
      <point x="167" y="633"/>
      <point x="303" y="633" type="curve"/>
      <point x="303" y="722"/>
      <point x="303" y="633"/>
      <point x="303" y="722" type="curve"/>
      <point x="257" y="722"/>
      <point x="216" y="722"/>
      <point x="172" y="722" type="curve"/>
      <point x="172" y="633"/>
      <point x="172" y="722"/>
    </contour>
    <contour>
      <point x="172" y="0" type="curve"/>
      <point x="216" y="0"/>
      <point x="257" y="0"/>
      <point x="303" y="0" type="curve"/>
      <point x="303" y="89"/>
      <point x="303" y="0"/>
      <point x="303" y="89" type="curve"/>
      <point x="167" y="89"/>
      <point x="308" y="89"/>
      <point x="172" y="89" type="curve"/>
      <point x="172" y="0"/>
      <point x="172" y="89"/>
    </contour>
    <contour>
      <point x="172" y="89" type="curve"/>
      <point x="35" y="89"/>
      <point x="177" y="89"/>
      <point x="40" y="89" type="curve"/>
      <point x="40" y="0"/>
      <point x="40" y="89"/>
      <point x="40" y="0" type="curve"/>
      <point x="86" y="0"/>
      <point x="126" y="0"/>
      <point x="172" y="0" type="curve"/>
      <point x="172" y="89"/>
      <point x="172" y="0"/>
    </contour>
    <contour>
      <point x="228" y="0" type="curve"/>
      <point x="228" y="241"/>
      <point x="228" y="481"/>
      <point x="228" y="722" type="curve"/>
      <point x="114" y="722"/>
      <point x="228" y="722"/>
      <point x="114" y="722" type="curve"/>
      <point x="114" y="481"/>
      <point x="114" y="241"/>
      <point x="114" y="0" type="curve"/>
      <point x="228" y="0"/>
      <point x="114" y="0"/>
    </contour>
    <contour>
      <point x="148" y="844" type="curve"/>
      <point x="148" y="883"/>
      <point x="122" y="902"/>
      <point x="87" y="902" type="curve"/>
      <point x="51" y="902"/>
      <point x="27" y="881"/>
      <point x="27" y="844" type="curve"/>
      <point x="148" y="844"/>
      <point x="27" y="844"/>
      <point x="148" y="844" type="curve"/>
      <point x="148" y="804"/>
      <point x="123" y="786"/>
      <point x="87" y="786" type="curve"/>
      <point x="50" y="786"/>
      <point x="27" y="805"/>
      <point x="27" y="844" type="curve"/>
      <point x="148" y="844"/>
      <point x="27" y="844"/>
    </contour>
    <contour>
      <point x="319" y="844" type="curve"/>
      <point x="319" y="883"/>
      <point x="293" y="902"/>
      <point x="258" y="902" type="curve"/>
      <point x="222" y="902"/>
      <point x="199" y="881"/>
      <point x="199" y="844" type="curve"/>
      <point x="319" y="844"/>
      <point x="199" y="844"/>
      <point x="319" y="844" type="curve"/>
      <point x="319" y="804"/>
      <point x="294" y="786"/>
      <point x="258" y="786" type="curve"/>
      <point x="222" y="786"/>
      <point x="199" y="805"/>
      <point x="199" y="844" type="curve"/>
      <point x="319" y="844"/>
      <point x="199" y="844"/>
    </contour>
  </outline>
</glyph>
<glyph name="Ntilde" format="1">
  <advance width="723"/>
  <unicode hex="00D1"/>
  <outline>
    <contour>
      <point x="168" y="722" type="curve"/>
      <point x="123" y="722"/>
      <point x="83" y="722"/>
      <point x="39" y="722" type="curve"/>
      <point x="39" y="633"/>
      <point x="39" y="722"/>
      <point x="39" y="633" type="curve"/>
      <point x="173" y="633"/>
      <point x="35" y="633"/>
      <point x="168" y="633" type="curve"/>
      <point x="168" y="722"/>
      <point x="168" y="633"/>
    </contour>
    <contour>
      <point x="567" y="633" type="curve"/>
      <point x="699" y="633"/>
      <point x="562" y="633"/>
      <point x="694" y="633" type="curve"/>
      <point x="694" y="722"/>
      <point x="694" y="633"/>
      <point x="694" y="722" type="curve"/>
      <point x="649" y="722"/>
      <point x="610" y="722"/>
      <point x="567" y="722" type="curve"/>
      <point x="567" y="633"/>
      <point x="567" y="722"/>
    </contour>
    <contour>
      <point x="567" y="722" type="curve"/>
      <point x="523" y="722"/>
      <point x="485" y="722"/>
      <point x="442" y="722" type="curve"/>
      <point x="442" y="633"/>
      <point x="442" y="722"/>
      <point x="442" y="633" type="curve"/>
      <point x="571" y="633"/>
      <point x="438" y="633"/>
      <point x="567" y="633" type="curve"/>
      <point x="567" y="722"/>
      <point x="567" y="633"/>
    </contour>
    <contour>
      <point x="167" y="89" type="curve"/>
      <point x="34" y="89"/>
      <point x="172" y="89"/>
      <point x="39" y="89" type="curve"/>
      <point x="38" y="0"/>
      <point x="39" y="89"/>
      <point x="38" y="0" type="curve"/>
      <point x="82" y="0"/>
      <point x="122" y="0"/>
      <point x="167" y="0" type="curve"/>
      <point x="167" y="89"/>
      <point x="167" y="0"/>
    </contour>
    <contour>
      <point x="167" y="0" type="curve"/>
      <point x="209" y="0"/>
      <point x="162" y="0"/>
      <point x="290" y="0" type="curve"/>
      <point x="290" y="89"/>
      <point x="290" y="0"/>
      <point x="290" y="89" type="curve"/>
      <point x="162" y="89"/>
      <point x="295" y="89"/>
      <point x="167" y="89" type="curve"/>
      <point x="167" y="0"/>
      <point x="167" y="89"/>
    </contour>
    <contour>
      <point x="623" y="0" type="curve"/>
      <point x="491" y="241"/>
      <point x="359" y="481"/>
      <point x="228" y="722" type="curve"/>
      <point x="109" y="722"/>
      <point x="228" y="722"/>
      <point x="110" y="722" type="curve"/>
      <point x="241" y="481"/>
      <point x="372" y="241"/>
      <point x="504" y="0" type="curve"/>
      <point x="623" y="0"/>
      <point x="504" y="0"/>
    </contour>
    <contour>
      <point x="508" y="722" type="curve"/>
      <point x="508" y="481"/>
      <point x="508" y="241"/>
      <point x="508" y="0" type="curve"/>
      <point x="622" y="0"/>
      <point x="508" y="0"/>
      <point x="622" y="0" type="curve"/>
      <point x="622" y="241"/>
      <point x="622" y="481"/>
      <point x="622" y="722" type="curve"/>
      <point x="508" y="722"/>
      <point x="622" y="722"/>
    </contour>
    <contour>
      <point x="224" y="0" type="curve"/>
      <point x="224" y="241"/>
      <point x="224" y="481"/>
      <point x="224" y="722" type="curve"/>
      <point x="110" y="722"/>
      <point x="224" y="722"/>
      <point x="110" y="722" type="curve"/>
      <point x="110" y="481"/>
      <point x="110" y="241"/>
      <point x="110" y="0" type="curve"/>
      <point x="224" y="0"/>
      <point x="110" y="0"/>
    </contour>
    <contour>
      <point x="469" y="966" type="curve"/>
      <point x="453" y="928"/>
      <point x="443" y="910"/>
      <point x="424" y="910" type="curve"/>
      <point x="398" y="910"/>
      <point x="385" y="920"/>
      <point x="368" y="937" type="curve"/>
      <point x="344" y="960"/>
      <point x="330" y="972"/>
      <point x="300" y="972" type="curve"/>
      <point x="234" y="972"/>
      <point x="204" y="906"/>
      <point x="186" y="842" type="curve"/>
      <point x="271" y="795"/>
      <point x="186" y="843"/>
      <point x="271" y="795" type="curve"/>
      <point x="287" y="838"/>
      <point x="301" y="855"/>
      <point x="325" y="855" type="curve"/>
      <point x="346" y="855"/>
      <point x="356" y="845"/>
      <point x="370" y="830" type="curve"/>
      <point x="398" y="804"/>
      <point x="414" y="789"/>
      <point x="450" y="789" type="curve"/>
      <point x="516" y="789"/>
      <point x="536" y="853"/>
      <point x="559" y="921" type="curve"/>
      <point x="469" y="966"/>
      <point x="559" y="920"/>
    </contour>
  </outline>
</glyph>
<glyph name="Ograve" format="1">
  <advance width="644"/>
  <unicode hex="00D2"/>
  <outline>
    <contour>
      <point x="166" y="360" type="curve"/>
      <point x="166" y="507"/>
      <point x="190" y="634"/>
      <point x="319" y="634" type="curve"/>
      <point x="445" y="634"/>
      <point x="478" y="509"/>
      <point x="478" y="363" type="curve"/>
      <point x="478" y="216"/>
      <point x="452" y="88"/>
      <point x="324" y="88" type="curve"/>
      <point x="197" y="88"/>
      <point x="166" y="213"/>
      <point x="166" y="360" type="curve"/>
      <point x="52" y="360"/>
      <point x="166" y="360"/>
      <point x="52" y="360" type="curve"/>
      <point x="52" y="154"/>
      <point x="133" y="-5"/>
      <point x="320" y="-5" type="curve"/>
      <point x="509" y="-5"/>
      <point x="592" y="155"/>
      <point x="592" y="363" type="curve"/>
      <point x="592" y="568"/>
      <point x="512" y="727"/>
      <point x="324" y="727" type="curve"/>
      <point x="135" y="727"/>
      <point x="52" y="567"/>
      <point x="52" y="360" type="curve"/>
      <point x="166" y="360"/>
      <point x="52" y="360"/>
    </contour>
    <contour>
      <point x="377" y="792" type="line"/>
      <point x="298" y="958" type="line"/>
      <point x="158" y="958" type="line"/>
      <point x="269" y="792" type="line"/>
    </contour>
  </outline>
</glyph>
<glyph name="Ocircumflex" format="1">
  <advance width="644"/>
  <unicode hex="00D4"/>
  <outline>
    <contour>
      <point x="166" y="360" type="curve"/>
      <point x="166" y="507"/>
      <point x="190" y="634"/>
      <point x="319" y="634" type="curve"/>
      <point x="445" y="634"/>
      <point x="478" y="509"/>
      <point x="478" y="363" type="curve"/>
      <point x="478" y="216"/>
      <point x="452" y="88"/>
      <point x="324" y="88" type="curve"/>
      <point x="197" y="88"/>
      <point x="166" y="213"/>
      <point x="166" y="360" type="curve"/>
      <point x="52" y="360"/>
      <point x="166" y="360"/>
      <point x="52" y="360" type="curve"/>
      <point x="52" y="154"/>
      <point x="133" y="-5"/>
      <point x="320" y="-5" type="curve"/>
      <point x="509" y="-5"/>
      <point x="592" y="155"/>
      <point x="592" y="363" type="curve"/>
      <point x="592" y="568"/>
      <point x="512" y="727"/>
      <point x="324" y="727" type="curve"/>
      <point x="135" y="727"/>
      <point x="52" y="567"/>
      <point x="52" y="360" type="curve"/>
      <point x="166" y="360"/>
      <point x="52" y="360"/>
    </contour>
    <contour>
      <point x="259" y="791" type="line"/>
      <point x="370" y="957" type="line"/>
      <point x="231" y="957" type="line"/>
      <point x="151" y="791" type="line"/>
    </contour>
    <contour>
      <point x="494" y="791" type="line"/>
      <point x="414" y="957" type="line"/>
      <point x="275" y="957" type="line"/>
      <point x="386" y="791" type="line"/>
    </contour>
  </outline>
</glyph>
<glyph name="multiply" format="1">
  <advance width="589"/>
  <unicode hex="00D7"/>
  <outline>
    <contour>
      <point x="120" y="63" type="line"/>
      <point x="534" y="492" type="line"/>
      <point x="468" y="558" type="line"/>
      <point x="55" y="129" type="line"/>
    </contour>
    <contour>
      <point x="534" y="127" type="line"/>
      <point x="120" y="555" type="line"/>
      <point x="55" y="490" type="line"/>
      <point x="468" y="61" type="line"/>
    </contour>
  </outline>
</glyph>
<glyph name="Oslash" format="1">
  <advance width="644"/>
  <unicode hex="00D8"/>
  <outline>
    <contour>
      <point x="195" y="-61" type="line"/>
      <point x="527" y="745" type="line"/>
      <point x="452" y="772" type="line"/>
      <point x="122" y="-26" type="line"/>
    </contour>
    <contour>
      <point x="166" y="360" type="curve"/>
      <point x="166" y="507"/>
      <point x="190" y="634"/>
      <point x="319" y="634" type="curve"/>
      <point x="445" y="634"/>
      <point x="478" y="509"/>
      <point x="478" y="363" type="curve"/>
      <point x="478" y="216"/>
      <point x="452" y="88"/>
      <point x="324" y="88" type="curve"/>
      <point x="197" y="88"/>
      <point x="166" y="213"/>
      <point x="166" y="360" type="curve"/>
      <point x="52" y="360"/>
      <point x="166" y="360"/>
      <point x="52" y="360" type="curve"/>
      <point x="52" y="154"/>
      <point x="133" y="-5"/>
      <point x="320" y="-5" type="curve"/>
      <point x="509" y="-5"/>
      <point x="592" y="155"/>
      <point x="592" y="363" type="curve"/>
      <point x="592" y="568"/>
      <point x="512" y="727"/>
      <point x="324" y="727" type="curve"/>
      <point x="135" y="727"/>
      <point x="52" y="567"/>
      <point x="52" y="360" type="curve"/>
      <point x="166" y="360"/>
      <point x="52" y="360"/>
    </contour>
  </outline>
</glyph>
<glyph name="Udieresis" format="1">
  <advance width="699"/>
  <unicode hex="00DC"/>
  <outline>
    <contour>
      <point x="535" y="633" type="curve"/>
      <point x="666" y="633"/>
      <point x="533" y="633"/>
      <point x="664" y="633" type="curve"/>
      <point x="664" y="722"/>
      <point x="664" y="633"/>
      <point x="664" y="722" type="curve"/>
      <point x="620" y="722"/>
      <point x="579" y="722"/>
      <point x="535" y="722" type="curve"/>
      <point x="535" y="633"/>
      <point x="535" y="722"/>
    </contour>
    <contour>
      <point x="535" y="722" type="curve"/>
      <point x="491" y="722"/>
      <point x="449" y="722"/>
      <point x="406" y="722" type="curve"/>
      <point x="406" y="633"/>
      <point x="406" y="722"/>
      <point x="406" y="633" type="curve"/>
      <point x="537" y="633"/>
      <point x="404" y="633"/>
      <point x="535" y="633" type="curve"/>
      <point x="535" y="722"/>
      <point x="535" y="633"/>
    </contour>
    <contour>
      <point x="166" y="722" type="curve"/>
      <point x="122" y="722"/>
      <point x="80" y="722"/>
      <point x="37" y="722" type="curve"/>
      <point x="37" y="633"/>
      <point x="37" y="722"/>
      <point x="37" y="633" type="curve"/>
      <point x="168" y="633"/>
      <point x="35" y="633"/>
      <point x="166" y="633" type="curve"/>
      <point x="166" y="722"/>
      <point x="166" y="633"/>
    </contour>
    <contour>
      <point x="166" y="633" type="curve"/>
      <point x="297" y="633"/>
      <point x="164" y="633"/>
      <point x="295" y="633" type="curve"/>
      <point x="295" y="722"/>
      <point x="295" y="633"/>
      <point x="295" y="722" type="curve"/>
      <point x="252" y="722"/>
      <point x="210" y="722"/>
      <point x="166" y="722" type="curve"/>
      <point x="166" y="633"/>
      <point x="166" y="722"/>
    </contour>
    <contour>
      <point x="113" y="686" type="curve"/>
      <point x="113" y="548"/>
      <point x="112" y="410"/>
      <point x="113" y="273" type="curve"/>
      <point x="113" y="97"/>
      <point x="180" y="-5"/>
      <point x="347" y="-5" type="curve"/>
      <point x="517" y="-5"/>
      <point x="587" y="100"/>
      <point x="587" y="280" type="curve"/>
      <point x="587" y="415"/>
      <point x="587" y="551"/>
      <point x="587" y="686" type="curve"/>
      <point x="483" y="686"/>
      <point x="587" y="686"/>
      <point x="483" y="686" type="curve"/>
      <point x="483" y="545"/>
      <point x="483" y="408"/>
      <point x="483" y="267" type="curve"/>
      <point x="483" y="164"/>
      <point x="448" y="93"/>
      <point x="355" y="93" type="curve"/>
      <point x="247" y="93"/>
      <point x="217" y="171"/>
      <point x="217" y="290" type="curve"/>
      <point x="217" y="422"/>
      <point x="217" y="555"/>
      <point x="217" y="686" type="curve"/>
      <point x="113" y="686"/>
      <point x="216" y="686"/>
    </contour>
    <contour>
      <point x="328" y="844" type="curve"/>
      <point x="328" y="883"/>
      <point x="302" y="902"/>
      <point x="267" y="902" type="curve"/>
      <point x="231" y="902"/>
      <point x="207" y="881"/>
      <point x="207" y="844" type="curve"/>
      <point x="328" y="844"/>
      <point x="207" y="844"/>
      <point x="328" y="844" type="curve"/>
      <point x="328" y="804"/>
      <point x="303" y="786"/>
      <point x="267" y="786" type="curve"/>
      <point x="230" y="786"/>
      <point x="207" y="805"/>
      <point x="207" y="844" type="curve"/>
      <point x="328" y="844"/>
      <point x="207" y="844"/>
    </contour>
    <contour>
      <point x="499" y="844" type="curve"/>
      <point x="499" y="883"/>
      <point x="474" y="902"/>
      <point x="438" y="902" type="curve"/>
      <point x="402" y="902"/>
      <point x="379" y="881"/>
      <point x="379" y="844" type="curve"/>
      <point x="499" y="844"/>
      <point x="379" y="844"/>
      <point x="499" y="844" type="curve"/>
      <point x="499" y="804"/>
      <point x="474" y="786"/>
      <point x="438" y="786" type="curve"/>
      <point x="402" y="786"/>
      <point x="379" y="805"/>
      <point x="379" y="844" type="curve"/>
      <point x="499" y="844"/>
      <point x="379" y="844"/>
    </contour>
  </outline>
</glyph>
<glyph name="Thorn" format="1">
  <advance width="541"/>
  <unicode hex="00DE"/>
  <outline>
    <contour>
      <point x="182" y="722" type="curve"/>
      <point x="142" y="722"/>
      <point x="99" y="722"/>
      <point x="57" y="722" type="curve"/>
      <point x="57" y="633"/>
      <point x="57" y="722"/>
      <point x="57" y="633" type="curve"/>
      <point x="182" y="633"/>
      <point x="57" y="633"/>
      <point x="182" y="633" type="curve"/>
      <point x="182" y="722"/>
      <point x="182" y="633"/>
    </contour>
    <contour>
      <point x="182" y="89" type="curve"/>
      <point x="57" y="89"/>
      <point x="182" y="89"/>
      <point x="57" y="89" type="curve"/>
      <point x="57" y="0"/>
      <point x="57" y="89"/>
      <point x="57" y="0" type="curve"/>
      <point x="99" y="0"/>
      <point x="142" y="0"/>
      <point x="182" y="0" type="curve"/>
      <point x="182" y="89"/>
      <point x="182" y="0"/>
    </contour>
    <contour>
      <point x="182" y="0" type="curve"/>
      <point x="223" y="0"/>
      <point x="182" y="0"/>
      <point x="304" y="0" type="curve"/>
      <point x="304" y="89"/>
      <point x="304" y="0"/>
      <point x="304" y="89" type="curve"/>
      <point x="182" y="89"/>
      <point x="304" y="89"/>
      <point x="182" y="89" type="curve"/>
      <point x="182" y="0"/>
      <point x="182" y="89"/>
    </contour>
    <contour>
      <point x="166" y="212" type="curve"/>
      <point x="211" y="184"/>
      <point x="259" y="166"/>
      <point x="316" y="166" type="curve"/>
      <point x="435" y="168"/>
      <point x="506" y="251"/>
      <point x="506" y="383" type="curve"/>
      <point x="506" y="505"/>
      <point x="423" y="592"/>
      <point x="286" y="592" type="curve"/>
      <point x="252" y="592"/>
      <point x="218" y="592"/>
      <point x="185" y="592" type="curve"/>
      <point x="185" y="504"/>
      <point x="185" y="592"/>
      <point x="185" y="504" type="curve"/>
      <point x="213" y="504"/>
      <point x="242" y="504"/>
      <point x="271" y="504" type="curve"/>
      <point x="351" y="504"/>
      <point x="392" y="449"/>
      <point x="392" y="379" type="curve"/>
      <point x="392" y="309"/>
      <point x="368" y="252"/>
      <point x="303" y="252" type="curve"/>
      <point x="262" y="252"/>
      <point x="236" y="265"/>
      <point x="202" y="286" type="curve"/>
      <point x="166" y="215"/>
      <point x="202" y="286"/>
    </contour>
    <contour>
      <point x="239" y="0" type="curve"/>
      <point x="239" y="241"/>
      <point x="239" y="481"/>
      <point x="239" y="722" type="curve"/>
      <point x="125" y="722"/>
      <point x="239" y="722"/>
      <point x="125" y="722" type="curve"/>
      <point x="125" y="481"/>
      <point x="125" y="241"/>
      <point x="125" y="0" type="curve"/>
      <point x="239" y="0"/>
      <point x="125" y="0"/>
    </contour>
    <contour>
      <point x="182" y="633" type="curve"/>
      <point x="223" y="633"/>
      <point x="182" y="633"/>
      <point x="304" y="633" type="curve"/>
      <point x="304" y="722"/>
      <point x="304" y="633"/>
      <point x="304" y="722" type="curve"/>
      <point x="182" y="722"/>
      <point x="304" y="722"/>
      <point x="182" y="722" type="curve"/>
      <point x="182" y="633"/>
      <point x="182" y="722"/>
    </contour>
  </outline>
</glyph>
<glyph name="germandbls" format="1">
  <advance width="531"/>
  <unicode hex="00DF"/>
  <outline>
    <contour>
      <point x="158" y="89" type="curve"/>
      <point x="27" y="89"/>
      <point x="160" y="89"/>
      <point x="30" y="89" type="curve"/>
      <point x="30" y="0"/>
      <point x="30" y="89"/>
      <point x="30" y="0" type="curve"/>
      <point x="73" y="0"/>
      <point x="115" y="0"/>
      <point x="158" y="0" type="curve"/>
      <point x="158" y="89"/>
      <point x="158" y="0"/>
    </contour>
    <contour>
      <point x="158" y="0" type="curve"/>
      <point x="199" y="0"/>
      <point x="235" y="0"/>
      <point x="277" y="0" type="curve"/>
      <point x="277" y="89"/>
      <point x="277" y="0"/>
      <point x="277" y="89" type="curve"/>
      <point x="151" y="89"/>
      <point x="283" y="89"/>
      <point x="158" y="89" type="curve"/>
      <point x="158" y="0"/>
      <point x="158" y="89"/>
    </contour>
    <contour>
      <point x="214" y="0" type="curve"/>
      <point x="214" y="199"/>
      <point x="214" y="396"/>
      <point x="214" y="595" type="curve"/>
      <point x="100" y="595"/>
      <point x="214" y="595"/>
      <point x="100" y="595" type="curve"/>
      <point x="100" y="396"/>
      <point x="100" y="199"/>
      <point x="100" y="0" type="curve"/>
      <point x="214" y="0"/>
      <point x="100" y="0"/>
    </contour>
    <contour>
      <point x="214" y="595" type="curve"/>
      <point x="214" y="655"/>
      <point x="230" y="708"/>
      <point x="284" y="708" type="curve"/>
      <point x="336" y="708"/>
      <point x="361" y="662"/>
      <point x="361" y="600" type="curve"/>
      <point x="361" y="536"/>
      <point x="329" y="490"/>
      <point x="272" y="490" type="curve"/>
      <point x="272" y="414"/>
      <point x="272" y="490"/>
      <point x="272" y="414" type="curve"/>
      <point x="391" y="414"/>
      <point x="470" y="486"/>
      <point x="470" y="605" type="curve"/>
      <point x="470" y="721"/>
      <point x="402" y="797"/>
      <point x="288" y="797" type="curve"/>
      <point x="169" y="797"/>
      <point x="100" y="715"/>
      <point x="100" y="595" type="curve"/>
      <point x="214" y="595"/>
      <point x="100" y="595"/>
    </contour>
    <contour>
      <point x="358" y="79" type="curve"/>
      <point x="447" y="105"/>
      <point x="494" y="174"/>
      <point x="494" y="284" type="curve"/>
      <point x="494" y="409"/>
      <point x="411" y="490"/>
      <point x="272" y="490" type="curve"/>
      <point x="272" y="414"/>
      <point x="272" y="490"/>
      <point x="272" y="414" type="curve"/>
      <point x="338" y="414"/>
      <point x="386" y="360"/>
      <point x="386" y="285" type="curve"/>
      <point x="386" y="226"/>
      <point x="365" y="183"/>
      <point x="321" y="167" type="curve"/>
      <point x="358" y="79"/>
      <point x="321" y="167"/>
    </contour>
  </outline>
</glyph>
<glyph name="ae" format="1">
  <advance width="737"/>
  <unicode hex="00E6"/>
  <outline>
    <contour>
      <point x="69" y="462" type="curve"/>
      <point x="69" y="348"/>
      <point x="69" y="469"/>
      <point x="69" y="355" type="curve"/>
      <point x="158" y="355"/>
      <point x="69" y="355"/>
      <point x="158" y="355" type="curve"/>
      <point x="158" y="469"/>
      <point x="158" y="348"/>
      <point x="158" y="462" type="curve"/>
      <point x="69" y="462"/>
      <point x="158" y="462"/>
    </contour>
    <contour>
      <point x="417" y="282" type="curve"/>
      <point x="417" y="336"/>
      <point x="417" y="321"/>
      <point x="417" y="375" type="curve"/>
      <point x="417" y="487"/>
      <point x="349" y="534"/>
      <point x="241" y="534" type="curve"/>
      <point x="162" y="534"/>
      <point x="108" y="504"/>
      <point x="69" y="462" type="curve"/>
      <point x="112" y="387"/>
      <point x="69" y="462"/>
      <point x="112" y="387" type="curve"/>
      <point x="137" y="415"/>
      <point x="171" y="446"/>
      <point x="225" y="446" type="curve"/>
      <point x="278" y="446"/>
      <point x="303" y="411"/>
      <point x="303" y="348" type="curve"/>
      <point x="303" y="303"/>
      <point x="303" y="327"/>
      <point x="303" y="282" type="curve"/>
      <point x="417" y="282"/>
      <point x="303" y="282"/>
    </contour>
    <contour>
      <point x="358" y="322" type="curve"/>
      <point x="299" y="321"/>
      <point x="266" y="322"/>
      <point x="207" y="312" type="curve"/>
      <point x="106" y="295"/>
      <point x="44" y="252"/>
      <point x="44" y="159" type="curve"/>
      <point x="44" y="58"/>
      <point x="94" y="-5"/>
      <point x="193" y="-5" type="curve"/>
      <point x="296" y="-5"/>
      <point x="341" y="62"/>
      <point x="391" y="147" type="curve"/>
      <point x="334" y="196"/>
      <point x="390" y="147"/>
      <point x="332" y="196" type="curve"/>
      <point x="298" y="138"/>
      <point x="279" y="84"/>
      <point x="214" y="84" type="curve"/>
      <point x="169" y="84"/>
      <point x="154" y="112"/>
      <point x="154" y="158" type="curve"/>
      <point x="154" y="197"/>
      <point x="180" y="224"/>
      <point x="213" y="230" type="curve"/>
      <point x="270" y="240"/>
      <point x="306" y="238"/>
      <point x="362" y="238" type="curve"/>
      <point x="357" y="314"/>
      <point x="363" y="247"/>
    </contour>
    <contour>
      <point x="359" y="237" type="curve"/>
      <point x="455" y="237"/>
      <point x="552" y="237"/>
      <point x="648" y="237" type="curve"/>
      <point x="695" y="237"/>
      <point x="648" y="237"/>
      <point x="695" y="237" type="curve"/>
      <point x="695" y="274"/>
      <point x="695" y="237"/>
      <point x="695" y="274" type="curve"/>
      <point x="695" y="281"/>
      <point x="695" y="288"/>
      <point x="695" y="295" type="curve"/>
      <point x="695" y="440"/>
      <point x="638" y="538"/>
      <point x="506" y="538" type="curve"/>
      <point x="364" y="538"/>
      <point x="301" y="435"/>
      <point x="301" y="279" type="curve"/>
      <point x="301" y="110"/>
      <point x="368" y="-5"/>
      <point x="521" y="-5" type="curve"/>
      <point x="588" y="-5"/>
      <point x="630" y="23"/>
      <point x="679" y="74" type="curve"/>
      <point x="609" y="136"/>
      <point x="679" y="74"/>
      <point x="609" y="136" type="curve"/>
      <point x="584" y="106"/>
      <point x="559" y="88"/>
      <point x="521" y="88" type="curve"/>
      <point x="431" y="88"/>
      <point x="414" y="172"/>
      <point x="414" y="279" type="curve"/>
      <point x="414" y="371"/>
      <point x="423" y="446"/>
      <point x="501" y="446" type="curve"/>
      <point x="570" y="446"/>
      <point x="587" y="384"/>
      <point x="587" y="303" type="curve"/>
      <point x="587" y="293"/>
      <point x="587" y="284"/>
      <point x="587" y="274" type="curve"/>
      <point x="597" y="284"/>
      <point x="607" y="293"/>
      <point x="616" y="302" type="curve"/>
      <point x="625" y="312"/>
      <point x="639" y="311"/>
      <point x="648" y="321" type="curve"/>
      <point x="552" y="321"/>
      <point x="455" y="321"/>
      <point x="359" y="321" type="curve"/>
      <point x="359" y="233"/>
      <point x="359" y="326"/>
    </contour>
  </outline>
</glyph>
<glyph name="iacute" format="1">
  <advance width="304"/>
  <unicode hex="00ED"/>
  <outline>
    <contour>
      <point x="160" y="89" type="curve"/>
      <point x="27" y="89"/>
      <point x="162" y="89"/>
      <point x="29" y="89" type="curve"/>
      <point x="28" y="0"/>
      <point x="29" y="89"/>
      <point x="28" y="0" type="curve"/>
      <point x="72" y="0"/>
      <point x="115" y="0"/>
      <point x="160" y="0" type="curve"/>
      <point x="160" y="89"/>
      <point x="160" y="0"/>
    </contour>
    <contour>
      <point x="160" y="0" type="curve"/>
      <point x="201" y="0"/>
      <point x="241" y="0"/>
      <point x="284" y="0" type="curve"/>
      <point x="284" y="89"/>
      <point x="284" y="0"/>
      <point x="284" y="89" type="curve"/>
      <point x="157" y="89"/>
      <point x="286" y="89"/>
      <point x="160" y="89" type="curve"/>
      <point x="160" y="0"/>
      <point x="160" y="89"/>
    </contour>
    <contour>
      <point x="160" y="533" type="curve"/>
      <point x="115" y="533"/>
      <point x="72" y="533"/>
      <point x="29" y="533" type="curve"/>
      <point x="28" y="444"/>
      <point x="29" y="533"/>
      <point x="28" y="444" type="curve"/>
      <point x="162" y="444"/>
      <point x="26" y="444"/>
      <point x="160" y="444" type="curve"/>
      <point x="160" y="533"/>
      <point x="160" y="444"/>
    </contour>
    <contour>
      <point x="219" y="0" type="curve"/>
      <point x="219" y="178"/>
      <point x="219" y="355"/>
      <point x="219" y="533" type="curve"/>
      <point x="100" y="533"/>
      <point x="219" y="533"/>
      <point x="100" y="533" type="curve"/>
      <point x="100" y="355"/>
      <point x="100" y="178"/>
      <point x="100" y="0" type="curve"/>
      <point x="219" y="0"/>
      <point x="100" y="0"/>
    </contour>
    <contour>
      <point x="212" y="624" type="line"/>
      <point x="324" y="790" type="line"/>
      <point x="184" y="790" type="line"/>
      <point x="105" y="624" type="line"/>
    </contour>
  </outline>
</glyph>
<glyph name="ograve" format="1">
  <advance width="519"/>
  <unicode hex="00F2"/>
  <outline>
    <contour>
      <point x="150" y="266" type="curve"/>
      <point x="150" y="360"/>
      <point x="170" y="446"/>
      <point x="254" y="446" type="curve"/>
      <point x="340" y="446"/>
      <point x="361" y="361"/>
      <point x="361" y="265" type="curve"/>
      <point x="361" y="168"/>
      <point x="343" y="87"/>
      <point x="262" y="87" type="curve"/>
      <point x="168" y="88"/>
      <point x="150" y="167"/>
      <point x="150" y="266" type="curve"/>
      <point x="144" y="266"/>
      <point x="49" y="266"/>
      <point x="44" y="266" type="curve"/>
      <point x="44" y="108"/>
      <point x="110" y="-5"/>
      <point x="257" y="-5" type="curve"/>
      <point x="406" y="-5"/>
      <point x="475" y="106"/>
      <point x="475" y="265" type="curve"/>
      <point x="475" y="425"/>
      <point x="408" y="538"/>
      <point x="260" y="538" type="curve"/>
      <point x="111" y="538"/>
      <point x="44" y="425"/>
      <point x="44" y="266" type="curve"/>
      <point x="49" y="266"/>
      <point x="144" y="266"/>
    </contour>
    <contour>
      <point x="313" y="626" type="line"/>
      <point x="233" y="792" type="line"/>
      <point x="93" y="792" type="line"/>
      <point x="205" y="626" type="line"/>
    </contour>
  </outline>
</glyph>
<glyph name="ocircumflex" format="1">
  <advance width="519"/>
  <unicode hex="00F4"/>
  <outline>
    <contour>
      <point x="150" y="266" type="curve"/>
      <point x="150" y="360"/>
      <point x="170" y="446"/>
      <point x="254" y="446" type="curve"/>
      <point x="340" y="446"/>
      <point x="361" y="361"/>
      <point x="361" y="265" type="curve"/>
      <point x="361" y="168"/>
      <point x="343" y="87"/>
      <point x="262" y="87" type="curve"/>
      <point x="168" y="88"/>
      <point x="150" y="167"/>
      <point x="150" y="266" type="curve"/>
      <point x="144" y="266"/>
      <point x="49" y="266"/>
      <point x="44" y="266" type="curve"/>
      <point x="44" y="108"/>
      <point x="110" y="-5"/>
      <point x="257" y="-5" type="curve"/>
      <point x="406" y="-5"/>
      <point x="475" y="106"/>
      <point x="475" y="265" type="curve"/>
      <point x="475" y="425"/>
      <point x="408" y="538"/>
      <point x="260" y="538" type="curve"/>
      <point x="111" y="538"/>
      <point x="44" y="425"/>
      <point x="44" y="266" type="curve"/>
      <point x="49" y="266"/>
      <point x="144" y="266"/>
    </contour>
    <contour>
      <point x="194" y="625" type="line"/>
      <point x="306" y="791" type="line"/>
      <point x="166" y="791" type="line"/>
      <point x="86" y="625" type="line"/>
    </contour>
    <contour>
      <point x="429" y="625" type="line"/>
      <point x="350" y="791" type="line"/>
      <point x="210" y="791" type="line"/>
      <point x="322" y="625" type="line"/>
    </contour>
  </outline>
</glyph>
<glyph name="odieresis" format="1">
  <advance width="519"/>
  <unicode hex="00F6"/>
  <outline>
    <contour>
      <point x="150" y="266" type="curve"/>
      <point x="150" y="360"/>
      <point x="170" y="446"/>
      <point x="254" y="446" type="curve"/>
      <point x="340" y="446"/>
      <point x="361" y="361"/>
      <point x="361" y="265" type="curve"/>
      <point x="361" y="168"/>
      <point x="343" y="87"/>
      <point x="262" y="87" type="curve"/>
      <point x="168" y="88"/>
      <point x="150" y="167"/>
      <point x="150" y="266" type="curve"/>
      <point x="144" y="266"/>
      <point x="49" y="266"/>
      <point x="44" y="266" type="curve"/>
      <point x="44" y="108"/>
      <point x="110" y="-5"/>
      <point x="257" y="-5" type="curve"/>
      <point x="406" y="-5"/>
      <point x="475" y="106"/>
      <point x="475" y="265" type="curve"/>
      <point x="475" y="425"/>
      <point x="408" y="538"/>
      <point x="260" y="538" type="curve"/>
      <point x="111" y="538"/>
      <point x="44" y="425"/>
      <point x="44" y="266" type="curve"/>
      <point x="49" y="266"/>
      <point x="144" y="266"/>
    </contour>
    <contour>
      <point x="233" y="677" type="curve"/>
      <point x="233" y="716"/>
      <point x="207" y="736"/>
      <point x="172" y="736" type="curve"/>
      <point x="136" y="736"/>
      <point x="113" y="715"/>
      <point x="113" y="677" type="curve"/>
      <point x="233" y="677"/>
      <point x="113" y="677"/>
      <point x="233" y="677" type="curve"/>
      <point x="233" y="638"/>
      <point x="208" y="620"/>
      <point x="172" y="620" type="curve"/>
      <point x="135" y="620"/>
      <point x="113" y="639"/>
      <point x="113" y="677" type="curve"/>
      <point x="233" y="677"/>
      <point x="113" y="677"/>
    </contour>
    <contour>
      <point x="405" y="677" type="curve"/>
      <point x="405" y="716"/>
      <point x="379" y="736"/>
      <point x="344" y="736" type="curve"/>
      <point x="308" y="736"/>
      <point x="284" y="715"/>
      <point x="284" y="677" type="curve"/>
      <point x="405" y="677"/>
      <point x="284" y="677"/>
      <point x="405" y="677" type="curve"/>
      <point x="405" y="638"/>
      <point x="380" y="620"/>
      <point x="344" y="620" type="curve"/>
      <point x="307" y="620"/>
      <point x="284" y="639"/>
      <point x="284" y="677" type="curve"/>
      <point x="405" y="677"/>
      <point x="284" y="677"/>
    </contour>
  </outline>
</glyph>
<glyph name="divide" format="1">
  <advance width="625"/>
  <unicode hex="00F7"/>
  <outline>
    <contour>
      <point x="56" y="262" type="line"/>
      <point x="568" y="262" type="line"/>
      <point x="568" y="360" type="line"/>
      <point x="56" y="360" type="line"/>
    </contour>
    <contour>
      <point x="369" y="467" type="curve"/>
      <point x="369" y="506"/>
      <point x="344" y="525"/>
      <point x="308" y="525" type="curve"/>
      <point x="272" y="525"/>
      <point x="249" y="504"/>
      <point x="249" y="467" type="curve"/>
      <point x="369" y="467"/>
      <point x="249" y="467"/>
      <point x="369" y="467" type="curve"/>
      <point x="369" y="427"/>
      <point x="345" y="409"/>
      <point x="308" y="409" type="curve"/>
      <point x="272" y="409"/>
      <point x="249" y="428"/>
      <point x="249" y="467" type="curve"/>
      <point x="369" y="467"/>
      <point x="249" y="467"/>
    </contour>
    <contour>
      <point x="369" y="147" type="curve"/>
      <point x="369" y="186"/>
      <point x="344" y="205"/>
      <point x="308" y="205" type="curve"/>
      <point x="272" y="205"/>
      <point x="249" y="184"/>
      <point x="249" y="147" type="curve"/>
      <point x="369" y="147"/>
      <point x="249" y="147"/>
      <point x="369" y="147" type="curve"/>
      <point x="369" y="107"/>
      <point x="345" y="89"/>
      <point x="308" y="89" type="curve"/>
      <point x="272" y="89"/>
      <point x="249" y="109"/>
      <point x="249" y="147" type="curve"/>
      <point x="369" y="147"/>
      <point x="249" y="147"/>
    </contour>
  </outline>
</glyph>
<glyph name="oslash" format="1">
  <advance width="519"/>
  <unicode hex="00F8"/>
  <outline>
    <contour>
      <point x="167" y="-67" type="line"/>
      <point x="425" y="562" type="line"/>
      <point x="352" y="592" type="line"/>
      <point x="93" y="-34" type="line"/>
    </contour>
    <contour>
      <point x="150" y="266" type="curve"/>
      <point x="150" y="360"/>
      <point x="170" y="446"/>
      <point x="254" y="446" type="curve"/>
      <point x="340" y="446"/>
      <point x="361" y="361"/>
      <point x="361" y="265" type="curve"/>
      <point x="361" y="168"/>
      <point x="343" y="87"/>
      <point x="262" y="87" type="curve"/>
      <point x="168" y="88"/>
      <point x="150" y="167"/>
      <point x="150" y="266" type="curve"/>
      <point x="144" y="266"/>
      <point x="49" y="266"/>
      <point x="44" y="266" type="curve"/>
      <point x="44" y="108"/>
      <point x="110" y="-5"/>
      <point x="257" y="-5" type="curve"/>
      <point x="406" y="-5"/>
      <point x="475" y="106"/>
      <point x="475" y="265" type="curve"/>
      <point x="475" y="425"/>
      <point x="408" y="538"/>
      <point x="260" y="538" type="curve"/>
      <point x="111" y="538"/>
      <point x="44" y="425"/>
      <point x="44" y="266" type="curve"/>
      <point x="49" y="266"/>
      <point x="144" y="266"/>
    </contour>
  </outline>
</glyph>
<glyph name="udieresis" format="1">
  <advance width="572"/>
  <unicode hex="00FC"/>
  <outline>
    <contour>
      <point x="418" y="533" type="curve"/>
      <point x="373" y="533"/>
      <point x="331" y="533"/>
      <point x="286" y="533" type="curve"/>
      <point x="286" y="444"/>
      <point x="286" y="533"/>
      <point x="286" y="444" type="curve"/>
      <point x="420" y="444"/>
      <point x="284" y="444"/>
      <point x="418" y="444" type="curve"/>
      <point x="418" y="533"/>
      <point x="418" y="444"/>
    </contour>
    <contour>
      <point x="148" y="533" type="curve"/>
      <point x="104" y="533"/>
      <point x="60" y="533"/>
      <point x="17" y="533" type="curve"/>
      <point x="17" y="444"/>
      <point x="17" y="533"/>
      <point x="17" y="444" type="curve"/>
      <point x="150" y="444"/>
      <point x="14" y="444"/>
      <point x="148" y="444" type="curve"/>
      <point x="148" y="533"/>
      <point x="148" y="444"/>
    </contour>
    <contour>
      <point x="418" y="0" type="curve"/>
      <point x="460" y="0"/>
      <point x="499" y="0"/>
      <point x="541" y="0" type="curve"/>
      <point x="541" y="89"/>
      <point x="541" y="0"/>
      <point x="541" y="89" type="curve"/>
      <point x="416" y="89"/>
      <point x="543" y="89"/>
      <point x="418" y="89" type="curve"/>
      <point x="418" y="0"/>
      <point x="418" y="89"/>
    </contour>
    <contour>
      <point x="474" y="0" type="curve"/>
      <point x="474" y="178"/>
      <point x="474" y="355"/>
      <point x="474" y="533" type="curve"/>
      <point x="360" y="533"/>
      <point x="474" y="533"/>
      <point x="360" y="533" type="curve"/>
      <point x="360" y="355"/>
      <point x="360" y="178"/>
      <point x="360" y="0" type="curve"/>
      <point x="474" y="0"/>
      <point x="360" y="0"/>
    </contour>
    <contour>
      <point x="382" y="214" type="curve"/>
      <point x="361" y="158"/>
      <point x="331" y="88"/>
      <point x="277" y="88" type="curve"/>
      <point x="215" y="88"/>
      <point x="205" y="142"/>
      <point x="205" y="211" type="curve"/>
      <point x="205" y="319"/>
      <point x="205" y="426"/>
      <point x="205" y="533" type="curve"/>
      <point x="91" y="533"/>
      <point x="205" y="533"/>
      <point x="91" y="533" type="curve"/>
      <point x="91" y="424"/>
      <point x="91" y="315"/>
      <point x="91" y="207" type="curve"/>
      <point x="91" y="81"/>
      <point x="133" y="-5"/>
      <point x="260" y="-5" type="curve"/>
      <point x="345" y="-5"/>
      <point x="395" y="79"/>
      <point x="424" y="176" type="curve"/>
      <point x="382" y="214"/>
      <point x="425" y="177"/>
    </contour>
    <contour>
      <point x="237" y="677" type="curve"/>
      <point x="237" y="716"/>
      <point x="211" y="736"/>
      <point x="176" y="736" type="curve"/>
      <point x="140" y="736"/>
      <point x="117" y="715"/>
      <point x="117" y="677" type="curve"/>
      <point x="237" y="677"/>
      <point x="117" y="677"/>
      <point x="237" y="677" type="curve"/>
      <point x="237" y="638"/>
      <point x="212" y="620"/>
      <point x="176" y="620" type="curve"/>
      <point x="139" y="620"/>
      <point x="117" y="639"/>
      <point x="117" y="677" type="curve"/>
      <point x="237" y="677"/>
      <point x="117" y="677"/>
    </contour>
    <contour>
      <point x="409" y="677" type="curve"/>
      <point x="409" y="716"/>
      <point x="383" y="736"/>
      <point x="348" y="736" type="curve"/>
      <point x="312" y="736"/>
      <point x="289" y="715"/>
      <point x="289" y="677" type="curve"/>
      <point x="409" y="677"/>
      <point x="289" y="677"/>
      <point x="409" y="677" type="curve"/>
      <point x="409" y="638"/>
      <point x="384" y="620"/>
      <point x="348" y="620" type="curve"/>
      <point x="311" y="620"/>
      <point x="289" y="639"/>
      <point x="289" y="677" type="curve"/>
      <point x="409" y="677"/>
      <point x="289" y="677"/>
    </contour>
  </outline>
</glyph>
<glyph name="Dcaron" format="1">
  <advance width="668"/>
  <unicode hex="010E"/>
  <outline>
    <contour>
      <point x="189" y="89" type="curve"/>
      <point x="53" y="89"/>
      <point x="193" y="89"/>
      <point x="58" y="89" type="curve"/>
      <point x="58" y="0"/>
      <point x="58" y="89"/>
      <point x="58" y="0" type="curve"/>
      <point x="103" y="0"/>
      <point x="144" y="0"/>
      <point x="189" y="0" type="curve"/>
      <point x="189" y="89"/>
      <point x="189" y="0"/>
    </contour>
    <contour>
      <point x="189" y="722" type="curve"/>
      <point x="144" y="722"/>
      <point x="103" y="722"/>
      <point x="58" y="722" type="curve"/>
      <point x="58" y="633"/>
      <point x="58" y="722"/>
      <point x="58" y="633" type="curve"/>
      <point x="193" y="633"/>
      <point x="53" y="633"/>
      <point x="189" y="633" type="curve"/>
      <point x="189" y="722"/>
      <point x="189" y="633"/>
    </contour>
    <contour>
      <point x="130" y="722" type="curve"/>
      <point x="130" y="481"/>
      <point x="130" y="241"/>
      <point x="130" y="0" type="curve"/>
      <point x="244" y="0"/>
      <point x="130" y="0"/>
      <point x="244" y="0" type="curve"/>
      <point x="244" y="241"/>
      <point x="244" y="481"/>
      <point x="244" y="722" type="curve"/>
      <point x="130" y="722"/>
      <point x="244" y="722"/>
    </contour>
    <contour>
      <point x="189" y="0" type="curve"/>
      <point x="236" y="0"/>
      <point x="279" y="0"/>
      <point x="327" y="0" type="curve"/>
      <point x="529" y="0"/>
      <point x="617" y="139"/>
      <point x="617" y="354" type="curve"/>
      <point x="617" y="577"/>
      <point x="531" y="722"/>
      <point x="323" y="722" type="curve"/>
      <point x="278" y="722"/>
      <point x="235" y="722"/>
      <point x="189" y="722" type="curve"/>
      <point x="189" y="637"/>
      <point x="189" y="719"/>
      <point x="189" y="633" type="curve"/>
      <point x="233" y="633"/>
      <point x="274" y="633"/>
      <point x="318" y="633" type="curve"/>
      <point x="464" y="633"/>
      <point x="503" y="515"/>
      <point x="503" y="353" type="curve"/>
      <point x="503" y="201"/>
      <point x="469" y="89"/>
      <point x="337" y="89" type="curve"/>
      <point x="286" y="89"/>
      <point x="240" y="89"/>
      <point x="189" y="89" type="curve"/>
      <point x="189" y="3"/>
      <point x="189" y="85"/>
    </contour>
    <contour>
      <point x="364" y="957" type="line"/>
      <point x="252" y="791" type="line"/>
      <point x="392" y="791" type="line"/>
      <point x="472" y="957" type="line"/>
    </contour>
    <contour>
      <point x="128" y="957" type="line"/>
      <point x="208" y="791" type="line"/>
      <point x="348" y="791" type="line"/>
      <point x="236" y="957" type="line"/>
    </contour>
  </outline>
</glyph>
<glyph name="dcaron" format="1">
  <advance width="586"/>
  <unicode hex="010F"/>
  <outline>
    <contour>
      <point x="413" y="800" type="curve"/>
      <point x="368" y="800"/>
      <point x="328" y="800"/>
      <point x="283" y="800" type="curve"/>
      <point x="283" y="711"/>
      <point x="283" y="800"/>
      <point x="283" y="711" type="curve"/>
      <point x="419" y="711"/>
      <point x="278" y="711"/>
      <point x="414" y="711" type="curve"/>
      <point x="414" y="800"/>
      <point x="413" y="711"/>
    </contour>
    <contour>
      <point x="415" y="0" type="curve"/>
      <point x="460" y="0"/>
      <point x="500" y="0"/>
      <point x="546" y="0" type="curve"/>
      <point x="546" y="89"/>
      <point x="546" y="0"/>
      <point x="546" y="89" type="curve"/>
      <point x="410" y="89"/>
      <point x="551" y="89"/>
      <point x="415" y="89" type="curve"/>
      <point x="415" y="-1"/>
      <point x="415" y="89"/>
    </contour>
    <contour>
      <point x="419" y="448" type="curve"/>
      <point x="379" y="504"/>
      <point x="322" y="534"/>
      <point x="249" y="534" type="curve"/>
      <point x="107" y="534"/>
      <point x="44" y="412"/>
      <point x="44" y="262" type="curve"/>
      <point x="44" y="115"/>
      <point x="111" y="-1"/>
      <point x="247" y="-1" type="curve"/>
      <point x="328" y="-1"/>
      <point x="384" y="41"/>
      <point x="419" y="116" type="curve"/>
      <point x="378" y="178"/>
      <point x="419" y="116"/>
      <point x="378" y="178" type="curve"/>
      <point x="354" y="126"/>
      <point x="322" y="87"/>
      <point x="269" y="87" type="curve"/>
      <point x="185" y="87"/>
      <point x="158" y="171"/>
      <point x="158" y="267" type="curve"/>
      <point x="158" y="363"/>
      <point x="188" y="446"/>
      <point x="272" y="446" type="curve"/>
      <point x="318" y="446"/>
      <point x="354" y="420"/>
      <point x="378" y="381" type="curve"/>
      <point x="419" y="448"/>
      <point x="378" y="381"/>
    </contour>
    <contour>
      <point x="474" y="0" type="curve"/>
      <point x="474" y="267"/>
      <point x="474" y="533"/>
      <point x="474" y="800" type="curve"/>
      <point x="355" y="800"/>
      <point x="474" y="800"/>
      <point x="355" y="800" type="curve"/>
      <point x="355" y="533"/>
      <point x="355" y="267"/>
      <point x="355" y="0" type="curve"/>
      <point x="474" y="0"/>
      <point x="355" y="0"/>
    </contour>
    <contour>
      <point x="592" y="587" type="line"/>
      <point x="671" y="593"/>
      <point x="724" y="652"/>
      <point x="724" y="745" type="curve"/>
      <point x="724" y="817"/>
      <point x="698" y="856"/>
      <point x="658" y="856" type="curve"/>
      <point x="622" y="856"/>
      <point x="598" y="835"/>
      <point x="598" y="797" type="curve"/>
      <point x="598" y="766"/>
      <point x="615" y="741"/>
      <point x="647" y="740" type="curve"/>
      <point x="647" y="715"/>
      <point x="643" y="665"/>
      <point x="588" y="650" type="curve"/>
    </contour>
  </outline>
</glyph>
<glyph name="Eogonek" format="1">
  <advance width="550"/>
  <unicode hex="0118"/>
  <outline>
    <contour>
      <point x="504" y="44" type="curve"/>
      <point x="504" y="164"/>
      <point x="504" y="42"/>
      <point x="504" y="162" type="curve"/>
      <point x="414" y="162"/>
      <point x="504" y="162"/>
      <point x="414" y="162" type="curve"/>
      <point x="414" y="42"/>
      <point x="414" y="164"/>
      <point x="414" y="44" type="curve"/>
      <point x="504" y="44"/>
      <point x="414" y="44"/>
    </contour>
    <contour>
      <point x="389" y="678" type="curve"/>
      <point x="389" y="558"/>
      <point x="389" y="680"/>
      <point x="389" y="560" type="curve"/>
      <point x="479" y="560"/>
      <point x="389" y="560"/>
      <point x="479" y="560" type="curve"/>
      <point x="479" y="680"/>
      <point x="479" y="558"/>
      <point x="479" y="678" type="curve"/>
      <point x="389" y="678"/>
      <point x="479" y="678"/>
    </contour>
    <contour>
      <point x="188" y="89" type="curve"/>
      <point x="53" y="89"/>
      <point x="193" y="89"/>
      <point x="57" y="89" type="curve"/>
      <point x="57" y="0"/>
      <point x="57" y="89"/>
      <point x="57" y="0" type="curve"/>
      <point x="103" y="0"/>
      <point x="144" y="0"/>
      <point x="188" y="0" type="curve"/>
      <point x="188" y="89"/>
      <point x="188" y="0"/>
    </contour>
    <contour>
      <point x="188" y="722" type="curve"/>
      <point x="144" y="722"/>
      <point x="103" y="722"/>
      <point x="57" y="722" type="curve"/>
      <point x="57" y="633"/>
      <point x="57" y="722"/>
      <point x="57" y="633" type="curve"/>
      <point x="193" y="633"/>
      <point x="53" y="633"/>
      <point x="188" y="633" type="curve"/>
      <point x="188" y="722"/>
      <point x="188" y="633"/>
    </contour>
    <contour>
      <point x="191" y="328" type="curve"/>
      <point x="271" y="328"/>
      <point x="352" y="328"/>
      <point x="433" y="328" type="curve"/>
      <point x="433" y="418"/>
      <point x="433" y="328"/>
      <point x="433" y="418" type="curve"/>
      <point x="352" y="418"/>
      <point x="271" y="418"/>
      <point x="191" y="418" type="curve"/>
      <point x="191" y="328"/>
      <point x="191" y="418"/>
    </contour>
    <contour>
      <point x="180" y="633" type="curve"/>
      <point x="280" y="633"/>
      <point x="379" y="633"/>
      <point x="479" y="633" type="curve"/>
      <point x="479" y="722"/>
      <point x="479" y="633"/>
      <point x="479" y="722" type="curve"/>
      <point x="379" y="722"/>
      <point x="280" y="722"/>
      <point x="180" y="722" type="curve"/>
      <point x="180" y="633"/>
      <point x="180" y="722"/>
    </contour>
    <contour>
      <point x="245" y="0" type="curve"/>
      <point x="245" y="722" type="line"/>
      <point x="131" y="722"/>
      <point x="245" y="722"/>
      <point x="131" y="722" type="curve"/>
      <point x="131" y="481"/>
      <point x="131" y="241"/>
      <point x="131" y="0" type="curve"/>
      <point x="245" y="0"/>
      <point x="131" y="0"/>
    </contour>
    <contour>
      <point x="180" y="0" type="curve"/>
      <point x="288" y="0"/>
      <point x="396" y="0"/>
      <point x="504" y="0" type="curve"/>
      <point x="504" y="89"/>
      <point x="504" y="0"/>
      <point x="504" y="89" type="curve"/>
      <point x="396" y="89"/>
      <point x="288" y="89"/>
      <point x="180" y="89" type="curve"/>
      <point x="180" y="0"/>
      <point x="180" y="89"/>
    </contour>
    <contour>
      <point x="456" y="64" type="curve"/>
      <point x="397" y="32"/>
      <point x="348" y="2"/>
      <point x="348" y="-63" type="curve"/>
      <point x="348" y="-134"/>
      <point x="387" y="-183"/>
      <point x="456" y="-183" type="curve"/>
      <point x="490" y="-183"/>
      <point x="513" y="-171"/>
      <point x="540" y="-151" type="curve"/>
      <point x="490" y="-83"/>
      <point x="538" y="-149"/>
      <point x="488" y="-81" type="curve"/>
      <point x="480" y="-87"/>
      <point x="471" y="-95"/>
      <point x="462" y="-95" type="curve"/>
      <point x="446" y="-95"/>
      <point x="438" y="-81"/>
      <point x="438" y="-63" type="curve"/>
      <point x="438" y="-31"/>
      <point x="469" y="-15"/>
      <point x="497" y="2" type="curve"/>
      <point x="457" y="62"/>
      <point x="496" y="5"/>
    </contour>
  </outline>
</glyph>
<glyph name="eogonek" format="1">
  <advance width="480"/>
  <unicode hex="0119"/>
  <outline>
    <contour>
      <point x="103" y="237" type="curve"/>
      <point x="199" y="237"/>
      <point x="296" y="237"/>
      <point x="392" y="237" type="curve"/>
      <point x="439" y="237"/>
      <point x="392" y="237"/>
      <point x="439" y="237" type="curve"/>
      <point x="439" y="274"/>
      <point x="439" y="237"/>
      <point x="439" y="274" type="curve"/>
      <point x="439" y="281"/>
      <point x="439" y="288"/>
      <point x="439" y="295" type="curve"/>
      <point x="439" y="440"/>
      <point x="382" y="538"/>
      <point x="250" y="538" type="curve"/>
      <point x="108" y="538"/>
      <point x="45" y="435"/>
      <point x="45" y="279" type="curve"/>
      <point x="45" y="110"/>
      <point x="112" y="-5"/>
      <point x="265" y="-5" type="curve"/>
      <point x="332" y="-5"/>
      <point x="374" y="23"/>
      <point x="423" y="74" type="curve"/>
      <point x="353" y="136"/>
      <point x="423" y="74"/>
      <point x="353" y="136" type="curve"/>
      <point x="328" y="106"/>
      <point x="303" y="88"/>
      <point x="265" y="88" type="curve"/>
      <point x="174" y="88"/>
      <point x="158" y="172"/>
      <point x="158" y="279" type="curve"/>
      <point x="158" y="371"/>
      <point x="166" y="446"/>
      <point x="245" y="446" type="curve"/>
      <point x="313" y="446"/>
      <point x="331" y="384"/>
      <point x="331" y="303" type="curve"/>
      <point x="331" y="293"/>
      <point x="331" y="284"/>
      <point x="331" y="274" type="curve"/>
      <point x="341" y="284"/>
      <point x="351" y="293"/>
      <point x="360" y="302" type="curve"/>
      <point x="369" y="312"/>
      <point x="383" y="311"/>
      <point x="392" y="321" type="curve"/>
      <point x="296" y="321"/>
      <point x="199" y="321"/>
      <point x="103" y="321" type="curve"/>
      <point x="103" y="233"/>
      <point x="103" y="326"/>
    </contour>
    <contour>
      <point x="283" y="70" type="curve"/>
      <point x="224" y="38"/>
      <point x="175" y="9"/>
      <point x="175" y="-57" type="curve"/>
      <point x="175" y="-127"/>
      <point x="214" y="-177"/>
      <point x="283" y="-177" type="curve"/>
      <point x="317" y="-177"/>
      <point x="340" y="-165"/>
      <point x="367" y="-144" type="curve"/>
      <point x="317" y="-77"/>
      <point x="365" y="-142"/>
      <point x="314" y="-75" type="curve"/>
      <point x="306" y="-81"/>
      <point x="298" y="-89"/>
      <point x="289" y="-89" type="curve"/>
      <point x="273" y="-89"/>
      <point x="265" y="-74"/>
      <point x="265" y="-57" type="curve"/>
      <point x="265" y="-25"/>
      <point x="296" y="-9"/>
      <point x="324" y="9" type="curve"/>
      <point x="284" y="68"/>
      <point x="323" y="11"/>
    </contour>
  </outline>
</glyph>
<glyph name="Ecaron" format="1">
  <advance width="544"/>
  <unicode hex="011A"/>
  <outline>
    <contour>
      <point x="504" y="44" type="curve"/>
      <point x="504" y="164"/>
      <point x="504" y="42"/>
      <point x="504" y="162" type="curve"/>
      <point x="414" y="162"/>
      <point x="504" y="162"/>
      <point x="414" y="162" type="curve"/>
      <point x="414" y="42"/>
      <point x="414" y="164"/>
      <point x="414" y="44" type="curve"/>
      <point x="504" y="44"/>
      <point x="414" y="44"/>
    </contour>
    <contour>
      <point x="389" y="678" type="curve"/>
      <point x="389" y="558"/>
      <point x="389" y="680"/>
      <point x="389" y="560" type="curve"/>
      <point x="479" y="560"/>
      <point x="389" y="560"/>
      <point x="479" y="560" type="curve"/>
      <point x="479" y="680"/>
      <point x="479" y="558"/>
      <point x="479" y="678" type="curve"/>
      <point x="389" y="678"/>
      <point x="479" y="678"/>
    </contour>
    <contour>
      <point x="188" y="89" type="curve"/>
      <point x="53" y="89"/>
      <point x="193" y="89"/>
      <point x="57" y="89" type="curve"/>
      <point x="57" y="0"/>
      <point x="57" y="89"/>
      <point x="57" y="0" type="curve"/>
      <point x="103" y="0"/>
      <point x="144" y="0"/>
      <point x="188" y="0" type="curve"/>
      <point x="188" y="89"/>
      <point x="188" y="0"/>
    </contour>
    <contour>
      <point x="188" y="722" type="curve"/>
      <point x="144" y="722"/>
      <point x="103" y="722"/>
      <point x="57" y="722" type="curve"/>
      <point x="57" y="633"/>
      <point x="57" y="722"/>
      <point x="57" y="633" type="curve"/>
      <point x="193" y="633"/>
      <point x="53" y="633"/>
      <point x="188" y="633" type="curve"/>
      <point x="188" y="722"/>
      <point x="188" y="633"/>
    </contour>
    <contour>
      <point x="191" y="328" type="curve"/>
      <point x="271" y="328"/>
      <point x="352" y="328"/>
      <point x="433" y="328" type="curve"/>
      <point x="433" y="418"/>
      <point x="433" y="328"/>
      <point x="433" y="418" type="curve"/>
      <point x="352" y="418"/>
      <point x="271" y="418"/>
      <point x="191" y="418" type="curve"/>
      <point x="191" y="328"/>
      <point x="191" y="418"/>
    </contour>
    <contour>
      <point x="180" y="633" type="curve"/>
      <point x="280" y="633"/>
      <point x="379" y="633"/>
      <point x="479" y="633" type="curve"/>
      <point x="479" y="722"/>
      <point x="479" y="633"/>
      <point x="479" y="722" type="curve"/>
      <point x="379" y="722"/>
      <point x="280" y="722"/>
      <point x="180" y="722" type="curve"/>
      <point x="180" y="633"/>
      <point x="180" y="722"/>
    </contour>
    <contour>
      <point x="245" y="0" type="curve"/>
      <point x="245" y="722" type="line"/>
      <point x="131" y="722"/>
      <point x="245" y="722"/>
      <point x="131" y="722" type="curve"/>
      <point x="131" y="481"/>
      <point x="131" y="241"/>
      <point x="131" y="0" type="curve"/>
      <point x="245" y="0"/>
      <point x="131" y="0"/>
    </contour>
    <contour>
      <point x="180" y="0" type="curve"/>
      <point x="288" y="0"/>
      <point x="396" y="0"/>
      <point x="504" y="0" type="curve"/>
      <point x="504" y="89"/>
      <point x="504" y="0"/>
      <point x="504" y="89" type="curve"/>
      <point x="396" y="89"/>
      <point x="288" y="89"/>
      <point x="180" y="89" type="curve"/>
      <point x="180" y="0"/>
      <point x="180" y="89"/>
    </contour>
    <contour>
      <point x="354" y="958" type="line"/>
      <point x="242" y="792" type="line"/>
      <point x="382" y="792" type="line"/>
      <point x="461" y="958" type="line"/>
    </contour>
    <contour>
      <point x="118" y="958" type="line"/>
      <point x="198" y="792" type="line"/>
      <point x="338" y="792" type="line"/>
      <point x="226" y="958" type="line"/>
    </contour>
  </outline>
</glyph>
<glyph name="ecaron" format="1">
  <advance width="480"/>
  <unicode hex="011B"/>
  <outline>
    <contour>
      <point x="103" y="237" type="curve"/>
      <point x="199" y="237"/>
      <point x="296" y="237"/>
      <point x="392" y="237" type="curve"/>
      <point x="439" y="237"/>
      <point x="392" y="237"/>
      <point x="439" y="237" type="curve"/>
      <point x="439" y="274"/>
      <point x="439" y="237"/>
      <point x="439" y="274" type="curve"/>
      <point x="439" y="281"/>
      <point x="439" y="288"/>
      <point x="439" y="295" type="curve"/>
      <point x="439" y="440"/>
      <point x="382" y="538"/>
      <point x="250" y="538" type="curve"/>
      <point x="108" y="538"/>
      <point x="45" y="435"/>
      <point x="45" y="279" type="curve"/>
      <point x="45" y="110"/>
      <point x="112" y="-5"/>
      <point x="265" y="-5" type="curve"/>
      <point x="332" y="-5"/>
      <point x="374" y="23"/>
      <point x="423" y="74" type="curve"/>
      <point x="353" y="136"/>
      <point x="423" y="74"/>
      <point x="353" y="136" type="curve"/>
      <point x="328" y="106"/>
      <point x="303" y="88"/>
      <point x="265" y="88" type="curve"/>
      <point x="174" y="88"/>
      <point x="158" y="172"/>
      <point x="158" y="279" type="curve"/>
      <point x="158" y="371"/>
      <point x="166" y="446"/>
      <point x="245" y="446" type="curve"/>
      <point x="313" y="446"/>
      <point x="331" y="384"/>
      <point x="331" y="303" type="curve"/>
      <point x="331" y="293"/>
      <point x="331" y="284"/>
      <point x="331" y="274" type="curve"/>
      <point x="341" y="284"/>
      <point x="351" y="293"/>
      <point x="360" y="302" type="curve"/>
      <point x="369" y="312"/>
      <point x="383" y="311"/>
      <point x="392" y="321" type="curve"/>
      <point x="296" y="321"/>
      <point x="199" y="321"/>
      <point x="103" y="321" type="curve"/>
      <point x="103" y="233"/>
      <point x="103" y="326"/>
    </contour>
    <contour>
      <point x="316" y="792" type="line"/>
      <point x="204" y="626" type="line"/>
      <point x="344" y="626" type="line"/>
      <point x="424" y="792" type="line"/>
    </contour>
    <contour>
      <point x="81" y="792" type="line"/>
      <point x="160" y="626" type="line"/>
      <point x="300" y="626" type="line"/>
      <point x="189" y="792" type="line"/>
    </contour>
  </outline>
</glyph>
<glyph name="gbreve" format="1">
  <advance width="485"/>
  <unicode hex="011F"/>
  <outline>
    <contour>
      <point x="344" y="444" type="curve"/>
      <point x="454" y="506" type="line"/>
      <point x="450" y="511"/>
      <point x="410" y="583"/>
      <point x="406" y="587" type="curve"/>
      <point x="282" y="515" type="line"/>
      <point x="344" y="444"/>
      <point x="282" y="515"/>
    </contour>
    <contour>
      <point x="178" y="341" type="curve"/>
      <point x="178" y="398"/>
      <point x="199" y="449"/>
      <point x="250" y="449" type="curve"/>
      <point x="302" y="449"/>
      <point x="320" y="398"/>
      <point x="320" y="341" type="curve"/>
      <point x="320" y="288"/>
      <point x="301" y="240"/>
      <point x="250" y="240" type="curve"/>
      <point x="202" y="240"/>
      <point x="178" y="286"/>
      <point x="178" y="341" type="curve"/>
      <point x="64" y="337"/>
      <point x="178" y="341"/>
      <point x="64" y="337" type="curve"/>
      <point x="64" y="227"/>
      <point x="135" y="152"/>
      <point x="245" y="152" type="curve"/>
      <point x="358" y="152"/>
      <point x="433" y="229"/>
      <point x="433" y="345" type="curve"/>
      <point x="433" y="457"/>
      <point x="362" y="537"/>
      <point x="250" y="537" type="curve"/>
      <point x="135" y="537"/>
      <point x="64" y="454"/>
      <point x="64" y="337" type="curve"/>
      <point x="178" y="341"/>
      <point x="64" y="337"/>
    </contour>
    <contour>
      <point x="149" y="242" type="curve"/>
      <point x="100" y="209"/>
      <point x="67" y="170"/>
      <point x="67" y="111" type="curve"/>
      <point x="67" y="23"/>
      <point x="142" y="-19"/>
      <point x="236" y="-29" type="curve"/>
      <point x="305" y="-36"/>
      <point x="366" y="-58"/>
      <point x="366" y="-125" type="curve"/>
      <point x="366" y="-186"/>
      <point x="314" y="-216"/>
      <point x="249" y="-216" type="curve"/>
      <point x="187" y="-216"/>
      <point x="145" y="-175"/>
      <point x="145" y="-111" type="curve"/>
      <point x="145" y="-60"/>
      <point x="160" y="-16"/>
      <point x="203" y="5" type="curve"/>
      <point x="146" y="59"/>
      <point x="203" y="5"/>
      <point x="146" y="59" type="curve"/>
      <point x="74" y="23"/>
      <point x="31" y="-33"/>
      <point x="31" y="-115" type="curve"/>
      <point x="31" y="-235"/>
      <point x="121" y="-305"/>
      <point x="244" y="-305" type="curve"/>
      <point x="371" y="-305"/>
      <point x="471" y="-238"/>
      <point x="469" y="-116" type="curve"/>
      <point x="469" y="-4"/>
      <point x="373" y="44"/>
      <point x="257" y="56" type="curve"/>
      <point x="214" y="59"/>
      <point x="181" y="80"/>
      <point x="181" y="120" type="curve"/>
      <point x="181" y="148"/>
      <point x="188" y="166"/>
      <point x="209" y="184" type="curve"/>
      <point x="149" y="242"/>
      <point x="209" y="184"/>
    </contour>
    <contour>
      <point x="294" y="774" type="curve"/>
      <point x="294" y="738"/>
      <point x="285" y="709"/>
      <point x="250" y="709" type="curve"/>
      <point x="215" y="709"/>
      <point x="205" y="737"/>
      <point x="205" y="775" type="curve"/>
      <point x="103" y="775"/>
      <point x="205" y="775"/>
      <point x="103" y="775" type="curve"/>
      <point x="103" y="684"/>
      <point x="155" y="627"/>
      <point x="246" y="627" type="curve"/>
      <point x="339" y="627"/>
      <point x="396" y="681"/>
      <point x="396" y="774" type="curve"/>
      <point x="294" y="774"/>
      <point x="396" y="774"/>
    </contour>
  </outline>
</glyph>
<glyph name="dotlessi" format="1">
  <advance width="331"/>
  <unicode hex="0131"/>
  <outline>
    <contour>
      <point x="180" y="625" type="move" name="top"/>
    </contour>
    <contour>
      <point x="178" y="89" type="curve"/>
      <point x="45" y="89"/>
      <point x="180" y="89"/>
      <point x="47" y="89" type="curve"/>
      <point x="46" y="0"/>
      <point x="47" y="89"/>
      <point x="46" y="0" type="curve"/>
      <point x="91" y="0"/>
      <point x="133" y="0"/>
      <point x="178" y="0" type="curve"/>
      <point x="178" y="89"/>
      <point x="178" y="0"/>
    </contour>
    <contour>
      <point x="178" y="0" type="curve"/>
      <point x="219" y="0"/>
      <point x="259" y="0"/>
      <point x="302" y="0" type="curve"/>
      <point x="302" y="89"/>
      <point x="302" y="0"/>
      <point x="302" y="89" type="curve"/>
      <point x="176" y="89"/>
      <point x="304" y="89"/>
      <point x="178" y="89" type="curve"/>
      <point x="178" y="0"/>
      <point x="178" y="89"/>
    </contour>
    <contour>
      <point x="178" y="533" type="curve"/>
      <point x="133" y="533"/>
      <point x="91" y="533"/>
      <point x="47" y="533" type="curve"/>
      <point x="46" y="444"/>
      <point x="47" y="533"/>
      <point x="46" y="444" type="curve"/>
      <point x="180" y="444"/>
      <point x="44" y="444"/>
      <point x="178" y="444" type="curve"/>
      <point x="178" y="533"/>
      <point x="178" y="444"/>
    </contour>
    <contour>
      <point x="238" y="0" type="curve"/>
      <point x="238" y="178"/>
      <point x="238" y="355"/>
      <point x="238" y="533" type="curve"/>
      <point x="118" y="533"/>
      <point x="238" y="533"/>
      <point x="118" y="533" type="curve"/>
      <point x="118" y="355"/>
      <point x="118" y="178"/>
      <point x="118" y="0" type="curve"/>
      <point x="238" y="0"/>
      <point x="118" y="0"/>
    </contour>
  </outline>
</glyph>
<glyph name="Kcommaaccent" format="1">
  <advance width="621"/>
  <unicode hex="0136"/>
  <outline>
    <contour>
      <point x="468" y="722" type="curve"/>
      <point x="422" y="722"/>
      <point x="381" y="722"/>
      <point x="336" y="722" type="curve"/>
      <point x="336" y="633"/>
      <point x="336" y="722"/>
      <point x="336" y="633" type="curve"/>
      <point x="473" y="633"/>
      <point x="331" y="633"/>
      <point x="468" y="633" type="curve"/>
      <point x="468" y="722"/>
      <point x="468" y="633"/>
    </contour>
    <contour>
      <point x="469" y="0" type="curve"/>
      <point x="530" y="0"/>
      <point x="539" y="0"/>
      <point x="599" y="0" type="curve"/>
      <point x="599" y="89"/>
      <point x="599" y="0"/>
      <point x="599" y="89" type="curve"/>
      <point x="419" y="89"/>
      <point x="650" y="89"/>
      <point x="469" y="89" type="curve"/>
      <point x="469" y="0"/>
      <point x="469" y="89"/>
    </contour>
    <contour>
      <point x="446" y="633" type="curve"/>
      <point x="582" y="633"/>
      <point x="438" y="633"/>
      <point x="574" y="633" type="curve"/>
      <point x="574" y="722"/>
      <point x="574" y="633"/>
      <point x="574" y="722" type="curve"/>
      <point x="530" y="722"/>
      <point x="491" y="722"/>
      <point x="446" y="722" type="curve"/>
      <point x="446" y="633"/>
      <point x="446" y="722"/>
    </contour>
    <contour>
      <point x="166" y="722" type="curve"/>
      <point x="122" y="722"/>
      <point x="82" y="722"/>
      <point x="38" y="722" type="curve"/>
      <point x="38" y="633"/>
      <point x="38" y="722"/>
      <point x="38" y="633" type="curve"/>
      <point x="171" y="633"/>
      <point x="34" y="633"/>
      <point x="166" y="633" type="curve"/>
      <point x="166" y="722"/>
      <point x="166" y="633"/>
    </contour>
    <contour>
      <point x="166" y="633" type="curve"/>
      <point x="303" y="633"/>
      <point x="132" y="633"/>
      <point x="268" y="633" type="curve"/>
      <point x="268" y="722"/>
      <point x="268" y="633"/>
      <point x="268" y="722" type="curve"/>
      <point x="223" y="722"/>
      <point x="212" y="722"/>
      <point x="166" y="722" type="curve"/>
      <point x="166" y="633"/>
      <point x="166" y="722"/>
    </contour>
    <contour>
      <point x="166" y="0" type="curve"/>
      <point x="215" y="0"/>
      <point x="131" y="0"/>
      <point x="278" y="0" type="curve"/>
      <point x="278" y="89"/>
      <point x="278" y="0"/>
      <point x="278" y="89" type="curve"/>
      <point x="131" y="89"/>
      <point x="313" y="89"/>
      <point x="166" y="89" type="curve"/>
      <point x="166" y="0"/>
      <point x="166" y="89"/>
    </contour>
    <contour>
      <point x="166" y="89" type="curve"/>
      <point x="34" y="89"/>
      <point x="171" y="89"/>
      <point x="38" y="89" type="curve"/>
      <point x="38" y="0"/>
      <point x="38" y="89"/>
      <point x="38" y="0" type="curve"/>
      <point x="82" y="0"/>
      <point x="122" y="0"/>
      <point x="166" y="0" type="curve"/>
      <point x="166" y="89"/>
      <point x="166" y="0"/>
    </contour>
    <contour>
      <point x="448" y="722" type="curve"/>
      <point x="210" y="380" type="line"/>
      <point x="333" y="380"/>
      <point x="209" y="380"/>
      <point x="332" y="380" type="curve"/>
      <point x="531" y="674" type="line"/>
      <point x="447" y="674"/>
      <point x="532" y="722"/>
    </contour>
    <contour>
      <point x="224" y="0" type="curve"/>
      <point x="224" y="722" type="line"/>
      <point x="110" y="722"/>
      <point x="224" y="722"/>
      <point x="110" y="722" type="curve"/>
      <point x="110" y="481"/>
      <point x="110" y="241"/>
      <point x="110" y="0" type="curve"/>
      <point x="224" y="0"/>
      <point x="110" y="0"/>
    </contour>
    <contour>
      <point x="560" y="39" type="curve"/>
      <point x="332" y="380" type="line"/>
      <point x="209" y="380"/>
      <point x="333" y="380"/>
      <point x="210" y="380" type="curve"/>
      <point x="465" y="0" type="line"/>
      <point x="561" y="0"/>
      <point x="463" y="39"/>
    </contour>
    <contour>
      <point x="229" y="-348" type="line"/>
      <point x="309" y="-342"/>
      <point x="362" y="-282"/>
      <point x="362" y="-190" type="curve"/>
      <point x="362" y="-118"/>
      <point x="335" y="-79"/>
      <point x="295" y="-79" type="curve"/>
      <point x="259" y="-79"/>
      <point x="235" y="-99"/>
      <point x="235" y="-138" type="curve"/>
      <point x="235" y="-169"/>
      <point x="252" y="-193"/>
      <point x="284" y="-194" type="curve"/>
      <point x="284" y="-220"/>
      <point x="280" y="-270"/>
      <point x="226" y="-285" type="curve"/>
    </contour>
  </outline>
</glyph>
<glyph name="kcommaaccent" format="1">
  <advance width="511"/>
  <unicode hex="0137"/>
  <outline>
    <contour>
      <point x="137" y="89" type="curve"/>
      <point x="4" y="89"/>
      <point x="139" y="89"/>
      <point x="6" y="89" type="curve"/>
      <point x="6" y="0"/>
      <point x="6" y="89"/>
      <point x="6" y="0" type="curve"/>
      <point x="51" y="0"/>
      <point x="93" y="-1"/>
      <point x="137" y="-1" type="curve"/>
      <point x="137" y="89"/>
      <point x="137" y="-1"/>
    </contour>
    <contour>
      <point x="375" y="0" type="curve"/>
      <point x="416" y="0"/>
      <point x="456" y="0"/>
      <point x="498" y="0" type="curve"/>
      <point x="498" y="89"/>
      <point x="498" y="0"/>
      <point x="498" y="89" type="curve"/>
      <point x="375" y="89"/>
      <point x="500" y="89"/>
      <point x="377" y="89" type="curve"/>
      <point x="377" y="0"/>
      <point x="375" y="89"/>
    </contour>
    <contour>
      <point x="381" y="444" type="curve"/>
      <point x="479" y="444"/>
      <point x="379" y="444"/>
      <point x="477" y="444" type="curve"/>
      <point x="477" y="533"/>
      <point x="477" y="444"/>
      <point x="477" y="533" type="curve"/>
      <point x="445" y="533"/>
      <point x="413" y="533"/>
      <point x="381" y="533" type="curve"/>
      <point x="381" y="444"/>
      <point x="381" y="533"/>
    </contour>
    <contour>
      <point x="137" y="-1" type="curve"/>
      <point x="176" y="-1"/>
      <point x="135" y="-1"/>
      <point x="249" y="0" type="curve"/>
      <point x="249" y="89"/>
      <point x="249" y="0"/>
      <point x="249" y="89" type="curve"/>
      <point x="135" y="89"/>
      <point x="251" y="89"/>
      <point x="137" y="89" type="curve"/>
      <point x="137" y="-1"/>
      <point x="137" y="89"/>
    </contour>
    <contour>
      <point x="404" y="533" type="curve"/>
      <point x="349" y="533"/>
      <point x="296" y="533"/>
      <point x="240" y="533" type="curve"/>
      <point x="240" y="444"/>
      <point x="240" y="533"/>
      <point x="240" y="444" type="curve"/>
      <point x="406" y="444"/>
      <point x="238" y="444"/>
      <point x="404" y="444" type="curve"/>
      <point x="404" y="533"/>
      <point x="404" y="444"/>
    </contour>
    <contour>
      <point x="139" y="799" type="curve"/>
      <point x="94" y="799"/>
      <point x="52" y="800"/>
      <point x="7" y="800" type="curve"/>
      <point x="7" y="711"/>
      <point x="7" y="800"/>
      <point x="7" y="711" type="curve"/>
      <point x="141" y="711"/>
      <point x="5" y="711"/>
      <point x="139" y="711" type="curve"/>
      <point x="139" y="799"/>
      <point x="139" y="711"/>
    </contour>
    <contour>
      <point x="195" y="0" type="curve"/>
      <point x="195" y="800" type="line"/>
      <point x="81" y="800"/>
      <point x="195" y="800"/>
      <point x="81" y="800" type="curve"/>
      <point x="81" y="533"/>
      <point x="81" y="267"/>
      <point x="81" y="0" type="curve"/>
      <point x="195" y="0"/>
      <point x="81" y="0"/>
    </contour>
    <contour>
      <point x="353" y="533" type="curve"/>
      <point x="174" y="275" type="line"/>
      <point x="285" y="275"/>
      <point x="173" y="275"/>
      <point x="284" y="275" type="curve"/>
      <point x="447" y="493" type="line"/>
      <point x="352" y="493"/>
      <point x="448" y="533"/>
    </contour>
    <contour>
      <point x="458" y="53" type="curve"/>
      <point x="284" y="275" type="line"/>
      <point x="173" y="275"/>
      <point x="285" y="275"/>
      <point x="174" y="275" type="curve"/>
      <point x="372" y="0" type="line"/>
      <point x="459" y="0"/>
      <point x="371" y="53"/>
    </contour>
    <contour>
      <point x="219" y="-348" type="line"/>
      <point x="298" y="-342"/>
      <point x="351" y="-282"/>
      <point x="351" y="-190" type="curve"/>
      <point x="351" y="-118"/>
      <point x="325" y="-79"/>
      <point x="285" y="-79" type="curve"/>
      <point x="249" y="-79"/>
      <point x="225" y="-99"/>
      <point x="225" y="-138" type="curve"/>
      <point x="225" y="-169"/>
      <point x="242" y="-193"/>
      <point x="274" y="-194" type="curve"/>
      <point x="274" y="-220"/>
      <point x="270" y="-270"/>
      <point x="215" y="-285" type="curve"/>
    </contour>
  </outline>
</glyph>
<glyph name="Lacute" format="1">
  <advance width="503"/>
  <unicode hex="0139"/>
  <outline>
    <contour>
      <point x="481" y="44" type="curve"/>
      <point x="481" y="164"/>
      <point x="481" y="42"/>
      <point x="481" y="162" type="curve"/>
      <point x="391" y="162"/>
      <point x="481" y="162"/>
      <point x="391" y="162" type="curve"/>
      <point x="391" y="42"/>
      <point x="391" y="164"/>
      <point x="391" y="44" type="curve"/>
      <point x="481" y="44"/>
      <point x="391" y="44"/>
    </contour>
    <contour>
      <point x="170" y="89" type="curve"/>
      <point x="34" y="89"/>
      <point x="175" y="89"/>
      <point x="39" y="89" type="curve"/>
      <point x="38" y="0"/>
      <point x="39" y="89"/>
      <point x="38" y="0" type="curve"/>
      <point x="84" y="0"/>
      <point x="124" y="0"/>
      <point x="170" y="0" type="curve"/>
      <point x="170" y="89"/>
      <point x="170" y="0"/>
    </contour>
    <contour>
      <point x="170" y="722" type="curve"/>
      <point x="124" y="722"/>
      <point x="84" y="722"/>
      <point x="39" y="722" type="curve"/>
      <point x="38" y="633"/>
      <point x="39" y="722"/>
      <point x="38" y="633" type="curve"/>
      <point x="175" y="633"/>
      <point x="33" y="633"/>
      <point x="170" y="633" type="curve"/>
      <point x="170" y="722"/>
      <point x="170" y="633"/>
    </contour>
    <contour>
      <point x="170" y="633" type="curve"/>
      <point x="306" y="633"/>
      <point x="165" y="633"/>
      <point x="301" y="633" type="curve"/>
      <point x="301" y="722"/>
      <point x="301" y="633"/>
      <point x="301" y="722" type="curve"/>
      <point x="255" y="722"/>
      <point x="215" y="722"/>
      <point x="170" y="722" type="curve"/>
      <point x="170" y="633"/>
      <point x="170" y="722"/>
    </contour>
    <contour>
      <point x="228" y="0" type="curve"/>
      <point x="228" y="241"/>
      <point x="228" y="481"/>
      <point x="228" y="722" type="curve"/>
      <point x="114" y="722"/>
      <point x="228" y="722"/>
      <point x="114" y="722" type="curve"/>
      <point x="114" y="481"/>
      <point x="114" y="241"/>
      <point x="114" y="0" type="curve"/>
      <point x="228" y="0"/>
      <point x="114" y="0"/>
    </contour>
    <contour>
      <point x="170" y="0" type="curve"/>
      <point x="273" y="0"/>
      <point x="377" y="0"/>
      <point x="481" y="0" type="curve"/>
      <point x="481" y="89"/>
      <point x="481" y="0"/>
      <point x="481" y="89" type="curve"/>
      <point x="377" y="89"/>
      <point x="273" y="89"/>
      <point x="170" y="89" type="curve"/>
      <point x="170" y="0"/>
      <point x="170" y="89"/>
    </contour>
    <contour>
      <point x="221" y="790" type="line"/>
      <point x="333" y="956" type="line"/>
      <point x="193" y="956" type="line"/>
      <point x="114" y="790" type="line"/>
    </contour>
  </outline>
</glyph>
<glyph name="Lcommaaccent" format="1">
  <advance width="503"/>
  <unicode hex="013B"/>
  <outline>
    <contour>
      <point x="481" y="44" type="curve"/>
      <point x="481" y="164"/>
      <point x="481" y="42"/>
      <point x="481" y="162" type="curve"/>
      <point x="391" y="162"/>
      <point x="481" y="162"/>
      <point x="391" y="162" type="curve"/>
      <point x="391" y="42"/>
      <point x="391" y="164"/>
      <point x="391" y="44" type="curve"/>
      <point x="481" y="44"/>
      <point x="391" y="44"/>
    </contour>
    <contour>
      <point x="170" y="89" type="curve"/>
      <point x="34" y="89"/>
      <point x="175" y="89"/>
      <point x="39" y="89" type="curve"/>
      <point x="38" y="0"/>
      <point x="39" y="89"/>
      <point x="38" y="0" type="curve"/>
      <point x="84" y="0"/>
      <point x="124" y="0"/>
      <point x="170" y="0" type="curve"/>
      <point x="170" y="89"/>
      <point x="170" y="0"/>
    </contour>
    <contour>
      <point x="170" y="722" type="curve"/>
      <point x="124" y="722"/>
      <point x="84" y="722"/>
      <point x="39" y="722" type="curve"/>
      <point x="38" y="633"/>
      <point x="39" y="722"/>
      <point x="38" y="633" type="curve"/>
      <point x="175" y="633"/>
      <point x="33" y="633"/>
      <point x="170" y="633" type="curve"/>
      <point x="170" y="722"/>
      <point x="170" y="633"/>
    </contour>
    <contour>
      <point x="170" y="633" type="curve"/>
      <point x="306" y="633"/>
      <point x="165" y="633"/>
      <point x="301" y="633" type="curve"/>
      <point x="301" y="722"/>
      <point x="301" y="633"/>
      <point x="301" y="722" type="curve"/>
      <point x="255" y="722"/>
      <point x="215" y="722"/>
      <point x="170" y="722" type="curve"/>
      <point x="170" y="633"/>
      <point x="170" y="722"/>
    </contour>
    <contour>
      <point x="228" y="0" type="curve"/>
      <point x="228" y="241"/>
      <point x="228" y="481"/>
      <point x="228" y="722" type="curve"/>
      <point x="114" y="722"/>
      <point x="228" y="722"/>
      <point x="114" y="722" type="curve"/>
      <point x="114" y="481"/>
      <point x="114" y="241"/>
      <point x="114" y="0" type="curve"/>
      <point x="228" y="0"/>
      <point x="114" y="0"/>
    </contour>
    <contour>
      <point x="170" y="0" type="curve"/>
      <point x="273" y="0"/>
      <point x="377" y="0"/>
      <point x="481" y="0" type="curve"/>
      <point x="481" y="89"/>
      <point x="481" y="0"/>
      <point x="481" y="89" type="curve"/>
      <point x="377" y="89"/>
      <point x="273" y="89"/>
      <point x="170" y="89" type="curve"/>
      <point x="170" y="0"/>
      <point x="170" y="89"/>
    </contour>
    <contour>
      <point x="201" y="-345" type="line"/>
      <point x="281" y="-339"/>
      <point x="334" y="-279"/>
      <point x="334" y="-187" type="curve"/>
      <point x="334" y="-115"/>
      <point x="307" y="-76"/>
      <point x="267" y="-76" type="curve"/>
      <point x="231" y="-76"/>
      <point x="207" y="-96"/>
      <point x="207" y="-135" type="curve"/>
      <point x="207" y="-166"/>
      <point x="224" y="-190"/>
      <point x="256" y="-191" type="curve"/>
      <point x="256" y="-217"/>
      <point x="252" y="-267"/>
      <point x="197" y="-281" type="curve"/>
    </contour>
  </outline>
</glyph>
<glyph name="lcommaaccent" format="1">
  <advance width="299"/>
  <unicode hex="013C"/>
  <outline>
    <contour>
      <point x="150" y="89" type="curve"/>
      <point x="16" y="89"/>
      <point x="150" y="89"/>
      <point x="16" y="89" type="curve"/>
      <point x="16" y="0"/>
      <point x="16" y="89"/>
      <point x="16" y="0" type="curve"/>
      <point x="61" y="0"/>
      <point x="105" y="0"/>
      <point x="150" y="0" type="curve"/>
      <point x="150" y="89"/>
      <point x="150" y="-1"/>
    </contour>
    <contour>
      <point x="151" y="800" type="curve"/>
      <point x="107" y="800"/>
      <point x="62" y="800"/>
      <point x="18" y="800" type="curve"/>
      <point x="17" y="711"/>
      <point x="18" y="800"/>
      <point x="17" y="711" type="curve"/>
      <point x="151" y="711"/>
      <point x="17" y="711"/>
      <point x="151" y="711" type="curve"/>
      <point x="151" y="799"/>
      <point x="151" y="711"/>
    </contour>
    <contour>
      <point x="150" y="0" type="curve"/>
      <point x="194" y="0"/>
      <point x="239" y="0"/>
      <point x="284" y="0" type="curve"/>
      <point x="284" y="89"/>
      <point x="284" y="0"/>
      <point x="284" y="89" type="curve"/>
      <point x="150" y="89"/>
      <point x="284" y="89"/>
      <point x="150" y="89" type="curve"/>
      <point x="150" y="-1"/>
      <point x="150" y="89"/>
    </contour>
    <contour>
      <point x="206" y="0" type="curve"/>
      <point x="206" y="267"/>
      <point x="206" y="533"/>
      <point x="206" y="800" type="curve"/>
      <point x="92" y="800"/>
      <point x="206" y="800"/>
      <point x="92" y="800" type="curve"/>
      <point x="92" y="533"/>
      <point x="92" y="267"/>
      <point x="92" y="0" type="curve"/>
      <point x="206" y="0"/>
      <point x="92" y="0"/>
    </contour>
    <contour>
      <point x="82" y="-346" type="line"/>
      <point x="161" y="-340"/>
      <point x="214" y="-281"/>
      <point x="214" y="-189" type="curve"/>
      <point x="214" y="-116"/>
      <point x="187" y="-78"/>
      <point x="148" y="-78" type="curve"/>
      <point x="112" y="-78"/>
      <point x="87" y="-98"/>
      <point x="87" y="-136" type="curve"/>
      <point x="87" y="-168"/>
      <point x="104" y="-192"/>
      <point x="136" y="-193" type="curve"/>
      <point x="136" y="-218"/>
      <point x="133" y="-269"/>
      <point x="78" y="-283" type="curve"/>
    </contour>
  </outline>
</glyph>
<glyph name="nacute" format="1">
  <advance width="568"/>
  <unicode hex="0144"/>
  <outline>
    <contour>
      <point x="193" y="282" type="curve"/>
      <point x="205" y="366"/>
      <point x="244" y="446"/>
      <point x="303" y="446" type="curve"/>
      <point x="366" y="446"/>
      <point x="376" y="388"/>
      <point x="376" y="316" type="curve"/>
      <point x="376" y="211"/>
      <point x="376" y="106"/>
      <point x="376" y="0" type="curve"/>
      <point x="490" y="0"/>
      <point x="376" y="0"/>
      <point x="490" y="0" type="curve"/>
      <point x="490" y="108"/>
      <point x="490" y="217"/>
      <point x="490" y="325" type="curve"/>
      <point x="490" y="448"/>
      <point x="460" y="538"/>
      <point x="344" y="538" type="curve"/>
      <point x="252" y="538"/>
      <point x="181" y="460"/>
      <point x="160" y="334" type="curve"/>
      <point x="194" y="284"/>
      <point x="158" y="332"/>
    </contour>
    <contour>
      <point x="432" y="0" type="curve"/>
      <point x="476" y="0"/>
      <point x="519" y="0"/>
      <point x="563" y="0" type="curve"/>
      <point x="563" y="89"/>
      <point x="563" y="0"/>
      <point x="563" y="89" type="curve"/>
      <point x="430" y="89"/>
      <point x="565" y="89"/>
      <point x="432" y="89" type="curve"/>
      <point x="432" y="0"/>
      <point x="432" y="89"/>
    </contour>
    <contour>
      <point x="159" y="89" type="curve"/>
      <point x="25" y="89"/>
      <point x="161" y="89"/>
      <point x="27" y="89" type="curve"/>
      <point x="27" y="0"/>
      <point x="27" y="89"/>
      <point x="27" y="0" type="curve"/>
      <point x="72" y="0"/>
      <point x="114" y="0"/>
      <point x="159" y="0" type="curve"/>
      <point x="159" y="89"/>
      <point x="159" y="0"/>
    </contour>
    <contour>
      <point x="159" y="0" type="curve"/>
      <point x="200" y="0"/>
      <point x="155" y="0"/>
      <point x="278" y="0" type="curve"/>
      <point x="278" y="89"/>
      <point x="278" y="0"/>
      <point x="278" y="89" type="curve"/>
      <point x="155" y="89"/>
      <point x="282" y="89"/>
      <point x="159" y="89" type="curve"/>
      <point x="159" y="0"/>
      <point x="159" y="89"/>
    </contour>
    <contour>
      <point x="215" y="0" type="curve"/>
      <point x="215" y="178"/>
      <point x="215" y="355"/>
      <point x="215" y="533" type="curve"/>
      <point x="101" y="533"/>
      <point x="215" y="533"/>
      <point x="101" y="533" type="curve"/>
      <point x="101" y="355"/>
      <point x="101" y="178"/>
      <point x="101" y="0" type="curve"/>
      <point x="215" y="0"/>
      <point x="101" y="0"/>
    </contour>
    <contour>
      <point x="159" y="533" type="curve"/>
      <point x="114" y="533"/>
      <point x="72" y="533"/>
      <point x="27" y="533" type="curve"/>
      <point x="27" y="444"/>
      <point x="27" y="533"/>
      <point x="27" y="444" type="curve"/>
      <point x="161" y="444"/>
      <point x="25" y="444"/>
      <point x="159" y="444" type="curve"/>
      <point x="159" y="533"/>
      <point x="159" y="444"/>
    </contour>
    <contour>
      <point x="347" y="624" type="line"/>
      <point x="459" y="790" type="line"/>
      <point x="319" y="790" type="line"/>
      <point x="239" y="624" type="line"/>
    </contour>
  </outline>
</glyph>
<glyph name="Ncommaaccent" format="1">
  <advance width="723"/>
  <unicode hex="0145"/>
  <outline>
    <contour>
      <point x="168" y="722" type="curve"/>
      <point x="123" y="722"/>
      <point x="83" y="722"/>
      <point x="39" y="722" type="curve"/>
      <point x="39" y="633"/>
      <point x="39" y="722"/>
      <point x="39" y="633" type="curve"/>
      <point x="173" y="633"/>
      <point x="35" y="633"/>
      <point x="168" y="633" type="curve"/>
      <point x="168" y="722"/>
      <point x="168" y="633"/>
    </contour>
    <contour>
      <point x="567" y="633" type="curve"/>
      <point x="699" y="633"/>
      <point x="562" y="633"/>
      <point x="694" y="633" type="curve"/>
      <point x="694" y="722"/>
      <point x="694" y="633"/>
      <point x="694" y="722" type="curve"/>
      <point x="649" y="722"/>
      <point x="610" y="722"/>
      <point x="567" y="722" type="curve"/>
      <point x="567" y="633"/>
      <point x="567" y="722"/>
    </contour>
    <contour>
      <point x="567" y="722" type="curve"/>
      <point x="523" y="722"/>
      <point x="485" y="722"/>
      <point x="442" y="722" type="curve"/>
      <point x="442" y="633"/>
      <point x="442" y="722"/>
      <point x="442" y="633" type="curve"/>
      <point x="571" y="633"/>
      <point x="438" y="633"/>
      <point x="567" y="633" type="curve"/>
      <point x="567" y="722"/>
      <point x="567" y="633"/>
    </contour>
    <contour>
      <point x="167" y="89" type="curve"/>
      <point x="34" y="89"/>
      <point x="172" y="89"/>
      <point x="39" y="89" type="curve"/>
      <point x="38" y="0"/>
      <point x="39" y="89"/>
      <point x="38" y="0" type="curve"/>
      <point x="82" y="0"/>
      <point x="122" y="0"/>
      <point x="167" y="0" type="curve"/>
      <point x="167" y="89"/>
      <point x="167" y="0"/>
    </contour>
    <contour>
      <point x="167" y="0" type="curve"/>
      <point x="209" y="0"/>
      <point x="162" y="0"/>
      <point x="290" y="0" type="curve"/>
      <point x="290" y="89"/>
      <point x="290" y="0"/>
      <point x="290" y="89" type="curve"/>
      <point x="162" y="89"/>
      <point x="295" y="89"/>
      <point x="167" y="89" type="curve"/>
      <point x="167" y="0"/>
      <point x="167" y="89"/>
    </contour>
    <contour>
      <point x="623" y="0" type="curve"/>
      <point x="491" y="241"/>
      <point x="359" y="481"/>
      <point x="228" y="722" type="curve"/>
      <point x="109" y="722"/>
      <point x="228" y="722"/>
      <point x="110" y="722" type="curve"/>
      <point x="241" y="481"/>
      <point x="372" y="241"/>
      <point x="504" y="0" type="curve"/>
      <point x="623" y="0"/>
      <point x="504" y="0"/>
    </contour>
    <contour>
      <point x="508" y="722" type="curve"/>
      <point x="508" y="481"/>
      <point x="508" y="241"/>
      <point x="508" y="0" type="curve"/>
      <point x="622" y="0"/>
      <point x="508" y="0"/>
      <point x="622" y="0" type="curve"/>
      <point x="622" y="241"/>
      <point x="622" y="481"/>
      <point x="622" y="722" type="curve"/>
      <point x="508" y="722"/>
      <point x="622" y="722"/>
    </contour>
    <contour>
      <point x="224" y="0" type="curve"/>
      <point x="224" y="241"/>
      <point x="224" y="481"/>
      <point x="224" y="722" type="curve"/>
      <point x="110" y="722"/>
      <point x="224" y="722"/>
      <point x="110" y="722" type="curve"/>
      <point x="110" y="481"/>
      <point x="110" y="241"/>
      <point x="110" y="0" type="curve"/>
      <point x="224" y="0"/>
      <point x="110" y="0"/>
    </contour>
    <contour>
      <point x="300" y="-348" type="line"/>
      <point x="380" y="-342"/>
      <point x="433" y="-282"/>
      <point x="433" y="-190" type="curve"/>
      <point x="433" y="-118"/>
      <point x="406" y="-79"/>
      <point x="366" y="-79" type="curve"/>
      <point x="330" y="-79"/>
      <point x="306" y="-99"/>
      <point x="306" y="-138" type="curve"/>
      <point x="306" y="-169"/>
      <point x="323" y="-193"/>
      <point x="355" y="-194" type="curve"/>
      <point x="355" y="-220"/>
      <point x="351" y="-270"/>
      <point x="297" y="-285" type="curve"/>
    </contour>
  </outline>
</glyph>
<glyph name="oe" format="1">
  <advance width="800"/>
  <unicode hex="0153"/>
  <outline>
    <contour>
      <point x="150" y="266" type="curve"/>
      <point x="150" y="360"/>
      <point x="170" y="446"/>
      <point x="254" y="446" type="curve"/>
      <point x="340" y="446"/>
      <point x="361" y="361"/>
      <point x="361" y="265" type="curve"/>
      <point x="361" y="168"/>
      <point x="343" y="87"/>
      <point x="262" y="87" type="curve"/>
      <point x="168" y="88"/>
      <point x="150" y="167"/>
      <point x="150" y="266" type="curve"/>
      <point x="144" y="266"/>
      <point x="49" y="266"/>
      <point x="44" y="266" type="curve"/>
      <point x="44" y="108"/>
      <point x="110" y="-5"/>
      <point x="257" y="-5" type="curve"/>
      <point x="406" y="-5"/>
      <point x="475" y="106"/>
      <point x="475" y="265" type="curve"/>
      <point x="475" y="425"/>
      <point x="408" y="538"/>
      <point x="260" y="538" type="curve"/>
      <point x="111" y="538"/>
      <point x="44" y="425"/>
      <point x="44" y="266" type="curve"/>
      <point x="49" y="266"/>
      <point x="144" y="266"/>
    </contour>
    <contour>
      <point x="422" y="237" type="curve"/>
      <point x="519" y="237"/>
      <point x="615" y="237"/>
      <point x="711" y="237" type="curve"/>
      <point x="759" y="237"/>
      <point x="711" y="237"/>
      <point x="759" y="237" type="curve"/>
      <point x="759" y="274"/>
      <point x="759" y="237"/>
      <point x="759" y="274" type="curve"/>
      <point x="759" y="281"/>
      <point x="759" y="288"/>
      <point x="759" y="295" type="curve"/>
      <point x="759" y="440"/>
      <point x="701" y="538"/>
      <point x="569" y="538" type="curve"/>
      <point x="427" y="538"/>
      <point x="365" y="435"/>
      <point x="365" y="279" type="curve"/>
      <point x="365" y="110"/>
      <point x="432" y="-5"/>
      <point x="584" y="-5" type="curve"/>
      <point x="652" y="-5"/>
      <point x="694" y="23"/>
      <point x="742" y="74" type="curve"/>
      <point x="673" y="136"/>
      <point x="742" y="74"/>
      <point x="673" y="136" type="curve"/>
      <point x="648" y="106"/>
      <point x="622" y="88"/>
      <point x="584" y="88" type="curve"/>
      <point x="494" y="88"/>
      <point x="477" y="172"/>
      <point x="477" y="279" type="curve"/>
      <point x="477" y="371"/>
      <point x="486" y="446"/>
      <point x="564" y="446" type="curve"/>
      <point x="633" y="446"/>
      <point x="650" y="384"/>
      <point x="650" y="303" type="curve"/>
      <point x="650" y="293"/>
      <point x="650" y="284"/>
      <point x="650" y="274" type="curve"/>
      <point x="660" y="284"/>
      <point x="670" y="293"/>
      <point x="680" y="302" type="curve"/>
      <point x="689" y="312"/>
      <point x="702" y="311"/>
      <point x="711" y="321" type="curve"/>
      <point x="615" y="321"/>
      <point x="519" y="321"/>
      <point x="422" y="321" type="curve"/>
      <point x="422" y="233"/>
      <point x="422" y="326"/>
    </contour>
  </outline>
</glyph>
